<svg width="119" height="10" viewBox="0 0 119 10" fill="none" xmlns="http://www.w3.org/2000/svg">
<path d="M118.482 5.80652H4.53217C4.247 5.80652 4.01367 5.57237 4.01367 5.28619C4.01367 5.00001 4.247 4.76587 4.53217 4.76587H118.482C118.767 4.76587 119 5.00001 119 5.28619C119 5.57237 118.767 5.80652 118.482 5.80652Z" fill="#C28565"/>
<path d="M118.17 9.90397C118.04 9.90397 117.911 9.85194 117.807 9.74787L113.581 5.50722C113.478 5.40316 113.426 5.27307 113.426 5.14299C113.426 4.9999 113.478 4.86982 113.581 4.77877L118.118 0.225922C118.325 0.0177917 118.65 0.0177917 118.844 0.225922C119.051 0.434052 119.051 0.759257 118.844 0.954379L114.67 5.14299L118.533 9.01942C118.74 9.22755 118.74 9.55275 118.533 9.74787C118.442 9.86495 118.312 9.90397 118.17 9.90397Z" fill="#C28565"/>
<path d="M113.635 9.90397C113.505 9.90397 113.375 9.85194 113.272 9.74787L109.046 5.50722C108.839 5.29909 108.839 4.97389 109.046 4.77877L113.583 0.225922C113.79 0.0177917 114.114 0.0177917 114.309 0.225922C114.516 0.434052 114.516 0.759257 114.309 0.954379L110.135 5.14299L113.998 9.01942C114.205 9.22755 114.205 9.55275 113.998 9.74787C113.907 9.86495 113.764 9.90397 113.635 9.90397Z" fill="#C28565"/>
<path d="M109.098 9.90397C108.968 9.90397 108.838 9.85194 108.735 9.74787L104.509 5.50722C104.418 5.40316 104.354 5.27307 104.354 5.14299C104.354 4.9999 104.405 4.86982 104.509 4.77877L109.046 0.225922C109.253 0.0177917 109.577 0.0177917 109.785 0.225922C109.992 0.434052 109.992 0.759257 109.785 0.954379L105.611 5.14299L109.474 9.01942C109.681 9.22755 109.681 9.55275 109.474 9.74787C109.37 9.86495 109.227 9.90397 109.098 9.90397Z" fill="#C28565"/>
<path d="M104.561 9.90397C104.431 9.90397 104.301 9.85194 104.198 9.74787L99.972 5.50722C99.7646 5.29909 99.7646 4.97389 99.972 4.77877L104.509 0.225922C104.716 0.0177917 105.04 0.0177917 105.248 0.225922C105.455 0.434052 105.455 0.759257 105.248 0.954379L101.074 5.14299L104.936 9.01942C105.144 9.22755 105.144 9.55275 104.936 9.74787C104.833 9.86495 104.69 9.90397 104.561 9.90397Z" fill="#C28565"/>
<path d="M10.8576 1.7478L15.7313 5.28602L10.8576 8.82423L0.267578 5.28602L10.8576 1.7478Z" fill="#C28565"/>
</svg>
