<svg width="270" height="16" viewBox="0 0 270 16" fill="none" xmlns="http://www.w3.org/2000/svg">
<path d="M114.468 8.80652H0.518483C0.233317 8.80652 0 8.57237 0 8.28619C0 8.00001 0.233317 7.76587 0.518483 7.76587H114.468C114.753 7.76587 114.987 8.00001 114.987 8.28619C114.987 8.57237 114.753 8.80652 114.468 8.80652Z" fill="#C28565"/>
<path d="M0.829573 12.904C0.699953 12.904 0.557371 12.8519 0.466637 12.7479C0.259244 12.5397 0.259244 12.2145 0.466637 12.0194L4.32933 8.14299L0.155545 3.95438C-0.0518483 3.74625 -0.0518483 3.42104 0.155545 3.22592C0.362938 3.01779 0.686992 3.01779 0.894385 3.22592L5.43111 7.77877C5.6385 7.9869 5.6385 8.3121 5.43111 8.50722L1.20547 12.7479C1.10178 12.8649 0.959194 12.904 0.829573 12.904Z" fill="#C28565"/>
<path d="M5.36668 12.904C5.23706 12.904 5.10744 12.8519 5.00375 12.7479C4.79635 12.5397 4.79635 12.2145 5.00375 12.0194L8.86644 8.14299L4.69265 3.95438C4.48526 3.74625 4.48526 3.42104 4.69265 3.22592C4.90005 3.01779 5.2241 3.01779 5.41853 3.22592L9.95526 7.77877C10.059 7.86982 10.1108 8.01291 10.1108 8.14299C10.1108 8.28608 10.059 8.41617 9.95526 8.50722L5.72962 12.7479C5.63888 12.8649 5.4963 12.904 5.36668 12.904Z" fill="#C28565"/>
<path d="M9.90379 12.904C9.77417 12.904 9.64455 12.8519 9.54086 12.7479C9.33346 12.5397 9.33346 12.2145 9.54086 12.0194L13.4036 8.14299L9.22976 3.95438C9.02237 3.74625 9.02237 3.42104 9.22976 3.22592C9.43716 3.01779 9.76121 3.01779 9.9686 3.22592L14.5053 7.77877C14.7127 7.9869 14.7127 8.3121 14.5053 8.50722L10.2797 12.7479C10.176 12.8649 10.0464 12.904 9.90379 12.904Z" fill="#C28565"/>
<path d="M14.4389 12.904C14.3093 12.904 14.1667 12.8519 14.076 12.7479C13.8686 12.5397 13.8686 12.2145 14.076 12.0194L17.9387 8.14299L13.7649 3.95438C13.5575 3.74625 13.5575 3.42104 13.7649 3.22592C13.9723 3.01779 14.2964 3.01779 14.4908 3.22592L19.0275 7.77877C19.1312 7.86982 19.1831 8.01291 19.1831 8.14299C19.1831 8.28608 19.1312 8.41617 19.0275 8.50722L14.8019 12.7479C14.7112 12.8649 14.5815 12.904 14.4389 12.904Z" fill="#C28565"/>
<path d="M108.156 4.74805L103.27 8.28626L108.156 11.8245L118.733 8.28626L108.156 4.74805Z" fill="#C28565"/>
<path d="M269.482 8.80652H155.532C155.247 8.80652 155.014 8.57237 155.014 8.28619C155.014 8.00001 155.247 7.76587 155.532 7.76587H269.482C269.767 7.76587 270 8.00001 270 8.28619C270 8.57237 269.767 8.80652 269.482 8.80652Z" fill="#C28565"/>
<path d="M269.17 12.904C269.04 12.904 268.911 12.8519 268.807 12.7479L264.581 8.50722C264.478 8.40316 264.426 8.27307 264.426 8.14299C264.426 7.9999 264.478 7.86982 264.581 7.77877L269.118 3.22592C269.325 3.01779 269.65 3.01779 269.844 3.22592C270.051 3.43405 270.051 3.75926 269.844 3.95438L265.67 8.14299L269.533 12.0194C269.74 12.2275 269.74 12.5528 269.533 12.7479C269.442 12.8649 269.312 12.904 269.17 12.904Z" fill="#C28565"/>
<path d="M264.635 12.904C264.505 12.904 264.375 12.8519 264.272 12.7479L260.046 8.50722C259.839 8.29909 259.839 7.97389 260.046 7.77877L264.583 3.22592C264.79 3.01779 265.114 3.01779 265.309 3.22592C265.516 3.43405 265.516 3.75926 265.309 3.95438L261.135 8.14299L264.998 12.0194C265.205 12.2275 265.205 12.5528 264.998 12.7479C264.907 12.8649 264.764 12.904 264.635 12.904Z" fill="#C28565"/>
<path d="M260.098 12.904C259.968 12.904 259.838 12.8519 259.735 12.7479L255.509 8.50722C255.418 8.40316 255.354 8.27307 255.354 8.14299C255.354 7.9999 255.405 7.86982 255.509 7.77877L260.046 3.22592C260.253 3.01779 260.577 3.01779 260.785 3.22592C260.992 3.43405 260.992 3.75926 260.785 3.95438L256.611 8.14299L260.474 12.0194C260.681 12.2275 260.681 12.5528 260.474 12.7479C260.37 12.8649 260.227 12.904 260.098 12.904Z" fill="#C28565"/>
<path d="M255.561 12.904C255.431 12.904 255.301 12.8519 255.198 12.7479L250.972 8.50722C250.765 8.29909 250.765 7.97389 250.972 7.77877L255.509 3.22592C255.716 3.01779 256.04 3.01779 256.248 3.22592C256.455 3.43405 256.455 3.75926 256.248 3.95438L252.074 8.14299L255.936 12.0194C256.144 12.2275 256.144 12.5528 255.936 12.7479C255.833 12.8649 255.69 12.904 255.561 12.904Z" fill="#C28565"/>
<path d="M161.858 4.7478L166.731 8.28602L161.858 11.8242L151.268 8.28602L161.858 4.7478Z" fill="#C28565"/>
<path d="M134.999 16C130.605 16 127.027 12.4098 127.027 8C127.027 3.59024 130.605 0 134.999 0C139.393 0 142.971 3.59024 142.971 8C142.971 12.4098 139.393 16 134.999 16ZM134.999 1.45691C131.409 1.45691 128.479 4.39675 128.479 8C128.479 11.6032 131.396 14.5431 134.999 14.5431C138.59 14.5431 141.519 11.6032 141.519 8C141.519 4.38374 138.59 1.45691 134.999 1.45691Z" fill="#C28565"/>
<path d="M123.49 12.8911C120.794 12.8911 118.604 10.6928 118.604 7.98707C118.604 5.28138 120.794 3.08301 123.49 3.08301C126.186 3.08301 128.377 5.28138 128.377 7.98707C128.377 10.6928 126.186 12.8911 123.49 12.8911ZM123.49 4.55293C121.598 4.55293 120.068 6.10089 120.068 8.00008C120.068 9.89927 121.611 11.4472 123.49 11.4472C125.383 11.4472 126.925 9.89927 126.925 8.00008C126.925 6.10089 125.383 4.55293 123.49 4.55293Z" fill="#C28565"/>
<path d="M125.214 7.98691C125.214 8.93651 124.449 9.717 123.49 9.717C122.543 9.717 121.766 8.93651 121.766 7.98691C121.766 7.03732 122.543 6.25684 123.49 6.25684C124.436 6.25684 125.214 7.03732 125.214 7.98691Z" fill="#C28565"/>
<path d="M146.523 12.8911C143.827 12.8911 141.637 10.6928 141.637 7.98707C141.637 5.28138 143.827 3.08301 146.523 3.08301C149.22 3.08301 151.41 5.28138 151.41 7.98707C151.41 10.6928 149.22 12.8911 146.523 12.8911ZM146.523 4.55293C144.631 4.55293 143.101 6.10089 143.101 8.00008C143.101 9.89927 144.644 11.4472 146.523 11.4472C148.416 11.4472 149.958 9.89927 149.958 8.00008C149.958 6.10089 148.416 4.55293 146.523 4.55293Z" fill="#C28565"/>
<path d="M148.247 7.98691C148.247 8.93651 147.469 9.717 146.523 9.717C145.577 9.717 144.799 8.93651 144.799 7.98691C144.799 7.03732 145.577 6.25684 146.523 6.25684C147.469 6.25684 148.247 7.03732 148.247 7.98691Z" fill="#C28565"/>
<path d="M139.447 7.98718C139.447 10.4457 137.451 12.449 135.001 12.449C132.551 12.449 130.555 10.4457 130.555 7.98718C130.555 5.52864 132.551 3.52539 135.001 3.52539C137.451 3.52539 139.447 5.52864 139.447 7.98718Z" fill="#C28565"/>
</svg>
