<svg width="330" height="20" viewBox="0 0 330 20" fill="none" xmlns="http://www.w3.org/2000/svg">
<path d="M114.468 10.8065H0.518483C0.233317 10.8065 0 10.5724 0 10.2862C0 10 0.233317 9.76587 0.518483 9.76587H114.468C114.753 9.76587 114.987 10 114.987 10.2862C114.987 10.5724 114.753 10.8065 114.468 10.8065Z" fill="#C28565"/>
<path d="M0.829573 14.904C0.699953 14.904 0.557371 14.8519 0.466637 14.7479C0.259244 14.5397 0.259244 14.2145 0.466637 14.0194L4.32933 10.143L0.155545 5.95438C-0.0518483 5.74625 -0.0518483 5.42104 0.155545 5.22592C0.362938 5.01779 0.686992 5.01779 0.894385 5.22592L5.43111 9.77877C5.6385 9.9869 5.6385 10.3121 5.43111 10.5072L1.20547 14.7479C1.10178 14.8649 0.959194 14.904 0.829573 14.904Z" fill="#C28565"/>
<path d="M5.36668 14.904C5.23706 14.904 5.10744 14.8519 5.00375 14.7479C4.79635 14.5397 4.79635 14.2145 5.00375 14.0194L8.86644 10.143L4.69265 5.95438C4.48526 5.74625 4.48526 5.42104 4.69265 5.22592C4.90005 5.01779 5.2241 5.01779 5.41853 5.22592L9.95526 9.77877C10.059 9.86982 10.1108 10.0129 10.1108 10.143C10.1108 10.2861 10.059 10.4162 9.95526 10.5072L5.72962 14.7479C5.63888 14.8649 5.4963 14.904 5.36668 14.904Z" fill="#C28565"/>
<path d="M9.90379 14.904C9.77417 14.904 9.64455 14.8519 9.54086 14.7479C9.33346 14.5397 9.33346 14.2145 9.54086 14.0194L13.4036 10.143L9.22976 5.95438C9.02237 5.74625 9.02237 5.42104 9.22976 5.22592C9.43716 5.01779 9.76121 5.01779 9.9686 5.22592L14.5053 9.77877C14.7127 9.9869 14.7127 10.3121 14.5053 10.5072L10.2797 14.7479C10.176 14.8649 10.0464 14.904 9.90379 14.904Z" fill="#C28565"/>
<path d="M14.4389 14.904C14.3093 14.904 14.1667 14.8519 14.076 14.7479C13.8686 14.5397 13.8686 14.2145 14.076 14.0194L17.9387 10.143L13.7649 5.95438C13.5575 5.74625 13.5575 5.42104 13.7649 5.22592C13.9723 5.01779 14.2964 5.01779 14.4908 5.22592L19.0275 9.77877C19.1312 9.86982 19.1831 10.0129 19.1831 10.143C19.1831 10.2861 19.1312 10.4162 19.0275 10.5072L14.8019 14.7479C14.7112 14.8649 14.5815 14.904 14.4389 14.904Z" fill="#C28565"/>
<path d="M108.156 6.74805L103.27 10.2863L108.156 13.8245L118.733 10.2863L108.156 6.74805Z" fill="#C28565"/>
<path d="M329.482 10.8065H215.532C215.247 10.8065 215.014 10.5724 215.014 10.2862C215.014 10 215.247 9.76587 215.532 9.76587H329.482C329.767 9.76587 330 10 330 10.2862C330 10.5724 329.767 10.8065 329.482 10.8065Z" fill="#C28565"/>
<path d="M329.17 14.904C329.04 14.904 328.911 14.8519 328.807 14.7479L324.581 10.5072C324.478 10.4032 324.426 10.2731 324.426 10.143C324.426 9.9999 324.478 9.86982 324.581 9.77877L329.118 5.22592C329.325 5.01779 329.65 5.01779 329.844 5.22592C330.051 5.43405 330.051 5.75926 329.844 5.95438L325.67 10.143L329.533 14.0194C329.74 14.2275 329.74 14.5528 329.533 14.7479C329.442 14.8649 329.312 14.904 329.17 14.904Z" fill="#C28565"/>
<path d="M324.635 14.904C324.505 14.904 324.375 14.8519 324.272 14.7479L320.046 10.5072C319.839 10.2991 319.839 9.97389 320.046 9.77877L324.583 5.22592C324.79 5.01779 325.114 5.01779 325.309 5.22592C325.516 5.43405 325.516 5.75926 325.309 5.95438L321.135 10.143L324.998 14.0194C325.205 14.2275 325.205 14.5528 324.998 14.7479C324.907 14.8649 324.764 14.904 324.635 14.904Z" fill="#C28565"/>
<path d="M320.098 14.904C319.968 14.904 319.838 14.8519 319.735 14.7479L315.509 10.5072C315.418 10.4032 315.354 10.2731 315.354 10.143C315.354 9.9999 315.405 9.86982 315.509 9.77877L320.046 5.22592C320.253 5.01779 320.577 5.01779 320.785 5.22592C320.992 5.43405 320.992 5.75926 320.785 5.95438L316.611 10.143L320.474 14.0194C320.681 14.2275 320.681 14.5528 320.474 14.7479C320.37 14.8649 320.227 14.904 320.098 14.904Z" fill="#C28565"/>
<path d="M315.561 14.904C315.431 14.904 315.301 14.8519 315.198 14.7479L310.972 10.5072C310.765 10.2991 310.765 9.97389 310.972 9.77877L315.509 5.22592C315.716 5.01779 316.04 5.01779 316.248 5.22592C316.455 5.43405 316.455 5.75926 316.248 5.95438L312.074 10.143L315.936 14.0194C316.144 14.2275 316.144 14.5528 315.936 14.7479C315.833 14.8649 315.69 14.904 315.561 14.904Z" fill="#C28565"/>
<path d="M221.858 6.7478L226.731 10.286L221.858 13.8242L211.268 10.286L221.858 6.7478Z" fill="#C28565"/>
<path d="M190 15C187.241 15 185 12.7586 185 10C185 7.24138 187.241 5 190 5C192.759 5 195 7.24138 195 10C195 12.7586 192.759 15 190 15ZM190 6.49867C188.064 6.49867 186.499 8.07692 186.499 10.0133C186.499 11.9496 188.077 13.5279 190 13.5279C191.936 13.5279 193.515 11.9496 193.515 10.0133C193.515 8.07692 191.936 6.49867 190 6.49867Z" fill="#C28565"/>
<path d="M192 10C192 11.0977 191.098 12 190 12C188.902 12 188 11.0977 188 10C188 8.90225 188.902 8 190 8C191.098 8 192 8.90225 192 10Z" fill="#C28565"/>
<path d="M140 15C137.241 15 135 12.7586 135 10C135 7.24138 137.241 5 140 5C142.759 5 145 7.24138 145 10C145 12.7586 142.759 15 140 15ZM140 6.49867C138.064 6.49867 136.499 8.07692 136.499 10.0133C136.499 11.9496 138.077 13.5279 140 13.5279C141.936 13.5279 143.515 11.9496 143.515 10.0133C143.515 8.07692 141.936 6.49867 140 6.49867Z" fill="#C28565"/>
<path d="M142 10C142 11.0977 141.098 12 140 12C138.902 12 138 11.0977 138 10C138 8.90225 138.902 8 140 8C141.098 8 142 8.90225 142 10Z" fill="#C28565"/>
<path d="M165 20C159.488 20 155 15.5122 155 10C155 4.4878 159.488 0 165 0C170.512 0 175 4.4878 175 10C175 15.5122 170.512 20 165 20ZM165 1.82114C160.496 1.82114 156.821 5.49593 156.821 10C156.821 14.5041 160.48 18.1789 165 18.1789C169.504 18.1789 173.179 14.5041 173.179 10C173.179 5.47967 169.504 1.82114 165 1.82114Z" fill="#C28565"/>
<path d="M170 10C170 12.7551 167.755 15 165 15C162.245 15 160 12.7551 160 10C160 7.2449 162.245 5 165 5C167.755 5 170 7.2449 170 10Z" fill="#C28565"/>
</svg>
