<svg width="100" height="100" viewBox="0 0 100 100" fill="none" xmlns="http://www.w3.org/2000/svg">
<path d="M72.206 48.482C72.1498 47.9696 71.8249 47.5197 71.3562 47.301C70.0128 46.6699 68.057 45.7014 66.7636 45.0516C67.4385 43.7519 68.4695 41.7774 69.1943 40.4527C69.4442 39.9966 69.438 39.4405 69.1818 38.9906C68.9256 38.5407 68.4445 38.2533 67.9259 38.2408L60.8964 38.0533C60.2778 38.0346 59.6279 38.0221 58.9656 38.0283C58.7719 37.3722 58.5532 36.7411 58.3407 36.1413L55.9913 29.3617C55.8164 28.8619 55.3915 28.4932 54.8791 28.387C54.3605 28.2808 53.8231 28.462 53.4732 28.8494C52.486 29.9491 50.9988 31.5237 49.9991 32.5859C48.9993 31.5299 47.5122 29.9491 46.525 28.8494C46.1688 28.4557 45.6377 28.2808 45.1191 28.387C44.6004 28.4932 44.1755 28.8619 44.0068 29.3617L41.6574 36.1413C41.4512 36.7411 41.2325 37.3785 41.0326 38.0283C40.3702 38.0158 39.7204 38.0346 39.1018 38.0533L32.0723 38.2408C31.5537 38.2533 31.0726 38.5407 30.8164 38.9906C30.5602 39.4405 30.5539 39.9966 30.8039 40.4527C31.5349 41.7774 32.5597 43.7519 33.2345 45.0516C31.9411 45.7014 29.9853 46.6699 28.6419 47.301C28.1733 47.5197 27.8484 47.9696 27.7921 48.482C27.7359 48.9943 27.9483 49.5067 28.3545 49.8254L33.9343 54.2055C34.4342 54.5992 34.9591 55.0053 35.509 55.4052C35.284 56.0613 35.0966 56.7112 34.9154 57.336L32.9158 64.2343C32.7721 64.7341 32.8971 65.2778 33.2532 65.6652C33.6094 66.0526 34.1406 66.2213 34.6529 66.115C36.0901 65.8214 38.1958 65.434 39.6204 65.184C39.8266 66.6462 40.1203 68.8394 40.289 70.339C40.3515 70.8639 40.6827 71.3137 41.1575 71.5324C41.3512 71.6199 41.5637 71.6637 41.7699 71.6637C42.0698 71.6637 42.376 71.5699 42.6259 71.395L48.4182 67.321C48.9243 66.9648 49.4555 66.5899 49.9866 66.1838C50.5114 66.5899 51.0488 66.9648 51.5549 67.321L57.3472 71.395C57.6034 71.5762 57.9034 71.6637 58.2033 71.6637C58.4095 71.6637 58.6219 71.6199 58.8156 71.5324C59.2968 71.3137 59.6279 70.8639 59.6842 70.339C59.8529 68.8394 60.1528 66.6462 60.3528 65.184C61.7712 65.4402 63.8831 65.8214 65.3202 66.115C65.8326 66.2213 66.3637 66.0526 66.7199 65.6652C67.076 65.2778 67.201 64.7404 67.0573 64.2343L65.0578 57.336C64.8766 56.7174 64.6891 56.0613 64.4642 55.4052C65.0203 55.0116 65.5389 54.5992 66.0388 54.2055L71.6187 49.8254C72.0561 49.5067 72.2685 49.0006 72.206 48.482ZM44.4817 37.116L46.0126 32.6984C47.4185 34.2105 48.8431 35.6914 48.9243 35.7851C49.2055 36.0788 49.5929 36.2475 50.0053 36.2475C50.4177 36.2475 50.8051 36.0788 51.0863 35.7851C51.1738 35.6976 52.5922 34.2105 53.9981 32.6984L55.5289 37.116C55.6727 37.5284 55.8164 37.9471 55.9476 38.3657C55.7414 38.4157 55.5352 38.4657 55.3352 38.5345C53.1733 39.203 51.2987 40.7276 50.0053 42.8646C48.7181 40.7339 46.8436 39.203 44.6754 38.5345C44.4692 38.472 44.263 38.4157 44.0631 38.3657C44.1943 37.9471 44.338 37.5284 44.4817 37.116ZM56.6287 41.7399C56.6849 44.2643 55.1291 46.6949 52.8859 48.0571C52.4735 48.1195 52.0673 48.207 51.6612 48.3195C51.6424 47.8821 51.5987 47.4447 51.5299 47.0136C52.111 44.4017 53.8981 42.096 56.21 41.39C56.3413 41.3525 56.4725 41.3213 56.6037 41.29C56.6162 41.4337 56.6224 41.5899 56.6287 41.7399ZM50.2553 61.7974C50.174 61.9036 50.0866 62.0098 49.9991 62.116C49.9116 62.0098 49.8241 61.9098 49.7429 61.7974C48.2683 59.8104 48.1433 56.8424 49.193 54.3617C49.4742 54.0743 49.7492 53.7681 49.9991 53.4495C50.249 53.7681 50.5177 54.0743 50.8051 54.3617C51.8549 56.8424 51.7361 59.8104 50.2553 61.7974ZM43.4007 41.2838C43.532 41.315 43.6632 41.3462 43.7944 41.3837C46.1063 42.0961 47.8934 44.3955 48.4745 47.0073C48.4057 47.4385 48.362 47.8759 48.3432 48.3133C47.9371 48.2008 47.5309 48.1133 47.1185 48.0508C44.8691 46.6886 43.3195 44.258 43.3757 41.7336C43.3757 41.5899 43.3882 41.4337 43.4007 41.2838ZM46.1688 50.9313C46.5499 51.1375 46.9436 51.3125 47.3497 51.475C47.0998 51.8624 46.8686 52.2623 46.6687 52.6809C44.7191 54.4242 42.0136 55.174 39.7141 54.3555C39.5704 54.3055 39.433 54.2493 39.2893 54.1868C39.3705 54.0431 39.4579 53.9056 39.5454 53.7744C40.9451 51.7061 43.5819 50.6814 46.1688 50.9313ZM53.3295 52.6747C53.1295 52.256 52.8984 51.8561 52.6484 51.4687C53.0546 51.3125 53.4482 51.1313 53.8294 50.9251C56.4162 50.6752 59.0531 51.7062 60.4465 53.7619C60.5402 53.8931 60.6214 54.0368 60.7027 54.1743C60.5652 54.2368 60.4215 54.293 60.2777 54.343C57.9908 55.1678 55.2852 54.418 53.3295 52.6747ZM35.7776 51.8561L32.0848 48.9568C33.9468 48.0446 35.8214 47.0948 35.9276 47.0386C36.2838 46.8574 36.5524 46.5449 36.6712 46.17C36.7961 45.7951 36.7586 45.3827 36.5774 45.0266C36.5212 44.9141 35.5527 43.0208 34.5654 41.1588L39.1768 41.0338C39.5892 41.0213 40.0016 41.0151 40.4202 41.0088C40.4015 41.2275 40.389 41.4462 40.3827 41.6712C40.3327 44.0581 41.2825 46.3825 42.8509 48.2383C40.514 48.8006 38.4082 50.119 37.0773 52.0811C36.9586 52.2498 36.8524 52.4247 36.7461 52.5997C36.4275 52.3622 36.1026 52.106 35.7776 51.8561ZM42.9571 67.5085C42.6822 65.4277 42.3822 63.347 42.3697 63.222C42.3135 62.8221 42.0948 62.466 41.7699 62.2285C41.5137 62.0411 41.2075 61.9411 40.8951 61.9411C40.8076 61.9411 40.7264 61.9473 40.6389 61.9661C40.5202 61.9848 38.4957 62.341 36.4775 62.7159L37.7959 58.167C37.9146 57.7609 38.0333 57.3485 38.1583 56.9423C38.3395 57.0236 38.527 57.0923 38.7144 57.161C39.6454 57.4922 40.6264 57.6547 41.6137 57.6547C42.9446 57.6547 44.2818 57.3672 45.544 56.8361C45.344 59.3542 45.9751 61.7349 47.3497 63.5782C47.4872 63.7594 47.6309 63.9343 47.7746 64.1093C47.4247 64.3655 47.0686 64.6154 46.7187 64.8654L42.9571 67.5085ZM62.2085 58.167L63.5269 62.7159C61.5087 62.341 59.4905 61.9848 59.3655 61.9661C58.9656 61.8974 58.5594 61.9911 58.2345 62.2285C57.9096 62.466 57.6909 62.8221 57.6347 63.222C57.6159 63.347 57.316 65.4277 57.0473 67.5085L53.2857 64.8654C52.9358 64.6154 52.5797 64.3655 52.2298 64.1093C52.3735 63.9406 52.5172 63.7656 52.6547 63.5844C54.0293 61.7349 54.6604 59.3542 54.4604 56.8424C55.7226 57.3735 57.0661 57.6609 58.3907 57.6609C59.378 57.6609 60.3528 57.5047 61.29 57.1673C61.4775 57.0985 61.6649 57.0236 61.8461 56.9486C61.9711 57.3485 62.0898 57.7609 62.2085 58.167ZM64.2205 51.8561C63.9018 52.106 63.5769 52.3622 63.2457 52.6059C63.1395 52.431 63.0333 52.256 62.9146 52.0873C61.5837 50.1253 59.478 48.8069 57.1411 48.2445C58.7094 46.3887 59.6592 44.0643 59.6092 41.6774C59.6029 41.4525 59.5904 41.2338 59.5717 41.0151C59.9841 41.0151 60.4027 41.0276 60.8151 41.0401L65.4265 41.165C64.4455 43.0271 63.4707 44.9203 63.4145 45.0328C63.2333 45.389 63.202 45.7951 63.3208 46.1763C63.4457 46.5512 63.7144 46.8699 64.0643 47.0448C64.1768 47.1011 66.0451 48.0508 67.9071 48.9631L64.2205 51.8561Z" fill="#6E6E6E"/>
<path d="M12.6465 46.0833L13.0464 43.6464C13.1464 43.0341 13.3775 42.5717 13.7337 42.2655C14.0899 41.9594 14.496 41.8469 14.9584 41.9219C15.6332 42.0343 16.0206 42.4967 16.1206 43.3153C16.2456 42.9279 16.4643 42.6404 16.7892 42.4467C17.1141 42.253 17.464 42.1905 17.8327 42.253C18.3013 42.328 18.6575 42.5717 18.8887 42.9716C19.1199 43.3777 19.1886 43.8839 19.0886 44.49L18.67 47.0643L12.6465 46.0833ZM13.7775 45.0148L15.3396 45.271L15.5208 44.1776C15.5645 43.9089 15.5333 43.6839 15.4208 43.5027C15.3083 43.3215 15.1334 43.2153 14.8834 43.1715C14.6335 43.1341 14.4336 43.1778 14.2648 43.3153C14.1024 43.4527 13.9962 43.6527 13.9524 43.9214L13.7775 45.0148ZM17.9327 45.6959L18.1326 44.4712C18.1764 44.2025 18.1389 43.9714 18.0202 43.7839C17.9014 43.5964 17.714 43.484 17.4515 43.4402C17.1953 43.3965 16.9767 43.4465 16.8017 43.5902C16.6268 43.7339 16.5143 43.9401 16.4705 44.2088L16.2706 45.4272L17.9327 45.6959Z" fill="#272525"/>
<path d="M17.0703 31.9238L17.9201 32.3362L16.9141 34.392L18.3513 35.0918L19.2385 33.2735L20.0883 33.6859L19.201 35.5042L20.7132 36.2415L21.7192 34.1858L22.569 34.5982L21.0256 37.7599L15.5332 35.073L17.0703 31.9238Z" fill="#272525"/>
<path d="M28.1731 27.3751L27.0671 26.8814L25.4425 28.6123L26.0049 29.6807L25.1114 30.6305L22.1309 24.8757L23.1306 23.8135L29.0604 26.4316L28.1731 27.3751ZM24.9739 27.7312L26.1611 26.4628L23.7117 25.3631L24.9739 27.7312Z" fill="#272525"/>
<path d="M31.7542 21.5142L29.9609 18.215L31.0419 17.6277L32.8352 20.9268C33.0352 21.2955 33.2788 21.5205 33.5725 21.6079C33.8599 21.6954 34.1786 21.6454 34.5285 21.458C34.8785 21.2705 35.0909 21.0268 35.1784 20.7331C35.2658 20.4395 35.2096 20.1083 35.0096 19.7396L33.2163 16.4405L34.2911 15.8594L36.0844 19.1585C36.4531 19.8334 36.5218 20.4707 36.2969 21.0643C36.0719 21.6579 35.6533 22.1266 35.0472 22.4577C34.4411 22.7889 33.8287 22.8826 33.2226 22.7451C32.6103 22.6077 32.1229 22.1953 31.7542 21.5142Z" fill="#272525"/>
<path d="M40.7886 14.5468L40.6074 13.6221L45.0376 12.7598L45.2188 13.6845L43.6004 13.9969L44.5814 19.0519L43.3817 19.2831L42.4007 14.2281L40.7886 14.5468Z" fill="#272525"/>
<path d="M53.8431 18.8334L52.6184 18.7084L52.8308 16.6214L51.1875 12.4287L52.5622 12.5724L53.5619 15.5654L55.1428 12.8411L56.5174 12.9848L54.0555 16.7526L53.8431 18.8334Z" fill="#272525"/>
<path d="M15.2145 85.2853C14.8333 85.2853 14.4522 85.1416 14.1585 84.8479C13.5774 84.2668 13.5774 83.317 14.1585 82.7359L27.7926 69.1018C28.3737 68.5207 29.3234 68.5207 29.9046 69.1018C30.4857 69.6829 30.4857 70.6327 29.9046 71.2138L16.2705 84.8479C15.9768 85.1416 15.5956 85.2853 15.2145 85.2853Z" fill="#C28565"/>
<path d="M7.92898 77.8684C5.00471 77.8684 2.17418 75.5752 1.21817 72.176C0.243409 68.7206 2.27415 59.0418 2.50534 57.9483C2.62406 57.4047 3.03021 56.9736 3.56133 56.8236C4.09245 56.6737 4.66731 56.8299 5.04846 57.2298C5.81702 58.0421 12.6028 65.234 13.5776 68.6894C14.7023 72.6759 12.8402 76.6936 9.43484 77.6559C8.93496 77.7996 8.42886 77.8684 7.92898 77.8684ZM4.86723 61.4537C4.2049 65.2028 3.6363 69.7516 4.09243 71.3637C4.76726 73.7631 6.798 75.3002 8.62255 74.7816C10.4471 74.2693 11.3781 71.9011 10.7033 69.5017C10.2472 67.8896 7.38535 64.303 4.86723 61.4537Z" fill="#C28565"/>
<path d="M28.7118 97.4009C27.7496 97.4009 26.9123 97.3259 26.2749 97.1572C24.3941 96.6386 22.782 95.5388 21.7323 94.0642C20.6201 92.4959 20.2639 90.6901 20.7326 88.978C21.2012 87.2722 22.4259 85.8975 24.188 85.1165C25.8438 84.3791 27.7933 84.2604 29.6741 84.7728C33.1357 85.7226 40.3776 92.4584 41.1899 93.2269C41.5961 93.6081 41.7523 94.1767 41.6086 94.7141C41.4649 95.2452 41.0337 95.6576 40.4901 95.7763C39.6028 95.9637 32.9858 97.4009 28.7118 97.4009ZM27.3621 87.4409C26.6686 87.4409 26 87.5721 25.4064 87.8408C24.4816 88.2532 23.8443 88.9342 23.6193 89.7653C23.3944 90.5963 23.5881 91.5086 24.1755 92.3334C24.8253 93.2519 25.8563 93.9392 27.0685 94.2767C28.6868 94.7203 33.2294 94.1267 36.9722 93.4394C34.1042 90.9337 30.5051 88.1032 28.8868 87.6596C28.3744 87.5096 27.862 87.4409 27.3621 87.4409Z" fill="#C28565"/>
<path d="M45.5511 81.2422L48.0817 81.4234C48.719 81.4671 49.2126 81.6608 49.5563 81.9983C49.9 82.3357 50.0562 82.7418 50.0187 83.2167C49.9687 83.9165 49.5313 84.3539 48.7003 84.5351C49.1064 84.6226 49.4251 84.8225 49.65 85.135C49.875 85.4474 49.975 85.7973 49.95 86.1847C49.9125 86.6721 49.7 87.0532 49.3126 87.3282C48.919 87.6031 48.4128 87.7156 47.7817 87.6718L45.1074 87.4781L45.5511 81.2422ZM46.4321 86.6034L47.7005 86.6971C47.9817 86.7158 48.2129 86.6596 48.3941 86.5159C48.5753 86.3784 48.6753 86.1722 48.694 85.9035C48.7128 85.6349 48.6441 85.4161 48.4816 85.2474C48.3191 85.0787 48.1004 84.985 47.8192 84.9663L46.5571 84.8788L46.4321 86.6034ZM46.7445 82.2982L46.6258 83.9165L47.763 83.9978C48.0442 84.0165 48.2691 83.9665 48.4441 83.8353C48.619 83.7041 48.7128 83.5166 48.7315 83.2604C48.7503 83.0043 48.6815 82.7981 48.5316 82.6419C48.3753 82.4856 48.1629 82.3982 47.8817 82.3794L46.7445 82.2982Z" fill="#272525"/>
<path d="M59.4355 86.6031C58.5608 86.828 57.7547 86.7281 57.0049 86.2969C56.2613 85.8658 55.7677 85.2034 55.5365 84.3037C55.3053 83.4039 55.4116 82.5853 55.8615 81.848C56.3113 81.1107 56.9674 80.6296 57.8359 80.4046C58.7045 80.1797 59.5168 80.2797 60.2603 80.7108C61.0039 81.142 61.4975 81.8043 61.7287 82.7041C61.9599 83.6038 61.8537 84.4224 61.41 85.1597C60.9726 85.897 60.3103 86.3781 59.4355 86.6031ZM60.3416 84.5973C60.5915 84.1474 60.6352 83.6226 60.479 83.0227C60.3228 82.4229 60.0291 81.9855 59.598 81.7168C59.1669 81.4481 58.6732 81.3794 58.1234 81.5231C57.5735 81.6668 57.1736 81.9605 56.9237 82.4104C56.6737 82.8603 56.6237 83.3851 56.78 83.985C56.9362 84.5848 57.2298 85.0222 57.6672 85.2909C58.1046 85.5658 58.5982 85.6283 59.1481 85.4846C59.698 85.3471 60.0979 85.0472 60.3416 84.5973Z" fill="#272525"/>
<path d="M67.3331 80.8858L65.2148 77.6679L66.2708 76.9743L68.3891 80.1922C68.6265 80.5484 68.8952 80.7608 69.2013 80.8296C69.5075 80.8921 69.8262 80.8171 70.1636 80.5921C70.501 80.3672 70.701 80.1047 70.7635 79.7986C70.8259 79.4924 70.7385 79.1612 70.501 78.7988L68.3828 75.5809L69.4325 74.8936L71.5508 78.1115C71.9819 78.7676 72.1131 79.4112 71.9319 80.0423C71.7507 80.6734 71.3696 81.1795 70.776 81.5731C70.1824 81.9668 69.57 82.1167 68.9389 82.023C68.3078 81.9293 67.7705 81.5544 67.3331 80.8858Z" fill="#272525"/>
<path d="M73.6815 72.3064L72.9316 71.694L75.8622 68.1074L76.612 68.7198L75.5373 70.032L79.63 73.3811L78.8364 74.3496L74.7437 71.0005L73.6815 72.3064Z" fill="#272525"/>
<path d="M83.9408 66.5147L78.2734 63.8778L78.8045 62.7344L84.4719 65.3712L83.9408 66.5147Z" fill="#272525"/>
<path d="M87.3028 56.0479C87.1591 56.9414 86.7467 57.6412 86.0531 58.1536C85.3595 58.666 84.5597 58.8534 83.6412 58.7097C82.7227 58.566 82.0166 58.1411 81.5168 57.435C81.0169 56.729 80.8357 55.9354 80.9794 55.0481C81.1168 54.1609 81.5355 53.461 82.2291 52.9486C82.9226 52.4363 83.7225 52.2488 84.641 52.3925C85.1846 52.48 85.6595 52.6675 86.0719 52.9674C86.4843 53.2673 86.803 53.636 87.0216 54.0859L88.8337 52.9674L88.59 54.5045L87.3403 55.2418C87.3528 55.5168 87.3465 55.7854 87.3028 56.0479ZM82.1166 55.2293C82.0291 55.7917 82.1416 56.2728 82.454 56.6852C82.7665 57.0914 83.2288 57.3475 83.8412 57.4413C84.4535 57.535 84.9721 57.4413 85.3908 57.1476C85.8157 56.8539 86.0719 56.429 86.1594 55.8667C86.2468 55.3043 86.1343 54.8232 85.8219 54.417C85.5095 54.0109 85.0471 53.761 84.4285 53.661C83.8162 53.561 83.2976 53.661 82.8789 53.9484C82.4603 54.2421 82.2041 54.667 82.1166 55.2293Z" fill="#272525"/>
<path d="M85.2527 46.5132L81.4537 47.1631L81.2413 45.9196L85.0403 45.2698C85.4652 45.1948 85.7651 45.0324 85.9463 44.7824C86.1275 44.5325 86.1838 44.2013 86.115 43.8014C86.0463 43.4015 85.8838 43.1078 85.6276 42.9329C85.3715 42.7517 85.034 42.6955 84.6091 42.7704L80.8101 43.4203L80.5977 42.1831L84.3967 41.5332C85.1715 41.402 85.8151 41.5395 86.3212 41.9581C86.8274 42.3768 87.1398 42.9329 87.2585 43.6327C87.3772 44.3325 87.271 44.9574 86.9336 45.4947C86.5962 46.0384 86.0401 46.3758 85.2527 46.5132Z" fill="#272525"/>
<path d="M77.2363 34.16L78.0986 33.7226L79.1609 35.8159L80.623 35.0723L79.6795 33.2165L80.5418 32.7791L81.4853 34.6349L83.0286 33.8539L81.9664 31.7606L82.8287 31.3232L84.4658 34.5412L78.8734 37.378L77.2363 34.16Z" fill="#272525"/>
<path d="M70.2321 30.2667C69.8509 30.2667 69.4697 30.123 69.1761 29.8293C68.595 29.2482 68.595 28.2985 69.1761 27.7174L82.8101 14.0833C83.3912 13.5022 84.341 13.5022 84.9221 14.0833C85.5032 14.6644 85.5032 15.6142 84.9221 16.1953L71.288 29.8293C70.9944 30.123 70.6132 30.2667 70.2321 30.2667Z" fill="#C28565"/>
<path d="M50 100C49.1752 100 48.5066 99.3314 48.5066 98.5066C48.5066 97.6818 49.1752 97.0133 50 97.0133C62.5594 97.0133 74.3626 92.1207 83.2417 83.2417C92.1207 74.3627 97.0133 62.5594 97.0133 50C97.0133 37.4406 92.1207 25.6373 83.2417 16.7583C74.3626 7.87928 62.5594 2.98675 50 2.98675C37.4407 2.98675 25.6373 7.87928 16.7583 16.7583C7.87928 25.6373 2.98673 37.4406 2.98673 50C2.98673 50.8248 2.31818 51.4934 1.49339 51.4934C0.668592 51.4934 0 50.8248 0 50C0 36.6471 5.1987 24.0877 14.6463 14.6463C24.0877 5.20495 36.6471 0 50 0C63.3529 0 75.9123 5.1987 85.3536 14.6463C94.795 24.0877 100 36.6471 100 50C100 63.3529 94.8013 75.9123 85.3536 85.3537C75.9123 94.8013 63.3592 100 50 100Z" fill="#C28565"/>
</svg>
