<svg width="112" height="100" viewBox="0 0 112 100" fill="none" xmlns="http://www.w3.org/2000/svg">
<path d="M78.5154 43.7471C77.8814 43.7471 77.2703 43.4101 76.9342 42.8068L56.0031 5.61824L35.0721 42.8068C34.568 43.7 33.4527 44.0056 32.5818 43.4885C31.711 42.9713 31.413 41.8273 31.9172 40.934L54.4295 0.932458C54.758 0.352611 55.3615 0 56.0108 0C56.6601 0 57.2636 0.360447 57.5921 0.932458L80.1044 40.934C80.6085 41.8273 80.3106 42.9713 79.4398 43.4885C79.1418 43.6687 78.8286 43.7471 78.5154 43.7471Z" fill="#E4B5B1"/>
<path d="M110.18 99.9992H1.82765C1.17833 99.9992 0.574839 99.6388 0.24636 99.0668C-0.0821199 98.4869 -0.0821199 97.7738 0.24636 97.194L14.8599 71.2341C15.3641 70.3409 16.4794 70.0353 17.3502 70.5524C18.2211 71.0696 18.519 72.2136 18.0148 73.1069L4.99021 96.2537H107.017L93.9928 73.1069C93.4887 72.2136 93.7866 71.0696 94.6574 70.5524C95.5283 70.0353 96.6436 70.3409 97.1478 71.2341L111.754 97.1862C112.082 97.766 112.082 98.4791 111.754 99.0589C111.433 99.6388 110.829 99.9992 110.18 99.9992Z" fill="#E4B5B1"/>
<path d="M6.60938 47.8457H13.1255C14.9818 47.8457 16.4179 48.308 17.4339 49.2326C18.4499 50.1572 18.9617 51.3483 18.9617 52.8057C18.9617 54.89 17.7929 56.2691 15.463 56.9273C16.6395 57.1232 17.5791 57.6639 18.3048 58.5415C19.0228 59.4191 19.3819 60.4378 19.3819 61.5896C19.3819 63.0079 18.8395 64.1833 17.7624 65.1236C16.6853 66.056 15.2415 66.5262 13.4387 66.5262H6.60938V47.8457ZM9.00038 49.8125V55.9557H13.0185C14.1186 55.9557 14.9818 55.6815 15.6082 55.133C16.2269 54.5844 16.5401 53.8401 16.5401 52.8919C16.5401 51.9516 16.2269 51.1994 15.6082 50.6431C14.9894 50.0867 14.1262 49.8046 13.0185 49.8046H9.00038V49.8125ZM9.00038 64.5907H13.3088C14.4623 64.5907 15.3714 64.293 16.0283 63.6974C16.6853 63.1019 17.0138 62.2948 17.0138 61.2605C17.0138 60.2262 16.6624 59.4113 15.9519 58.8236C15.2415 58.2281 14.3019 57.9303 13.1255 57.9303H9.00038V64.5907Z" fill="#272525"/>
<path d="M33.652 47.8457V49.789H26.3949V56.1516H32.8576V58.0635H26.3949V64.5907H33.652V66.534H24.0039V47.8535H33.652V47.8457Z" fill="#272525"/>
<path d="M51.1533 66.5262L49.7325 62.428H41.6351L40.2142 66.5262H37.7773L44.4004 47.8457H47.0282L53.6284 66.5262H51.1533ZM42.3226 60.4926H49.0526L45.6914 50.839L42.3226 60.4926Z" fill="#272525"/>
<path d="M58.043 59.9755V47.8457H60.4646V59.9755C60.4646 61.5191 60.8618 62.6788 61.6639 63.4389C62.4583 64.2068 63.5584 64.5829 64.964 64.5829C66.3619 64.5829 67.4696 64.1989 68.2717 63.4389C69.0738 62.6788 69.4786 61.5191 69.4786 59.9755V47.8457H71.8697V59.9755C71.8697 62.1695 71.2203 63.8385 69.9141 64.9903C68.6078 66.1422 66.9501 66.7142 64.9487 66.7142C62.9396 66.7142 61.2896 66.1422 59.9909 64.9903C58.6923 63.8385 58.043 62.1695 58.043 59.9755Z" fill="#272525"/>
<path d="M76.2539 49.8125V47.8457H88.2625V49.8125H83.4499V66.5262H81.0589V49.8125H76.2539Z" fill="#272525"/>
<path d="M99.4846 66.5262H97.0936V59.4661L91.1504 47.8457H93.7782L98.27 57.2016L102.739 47.8457H105.39L99.477 59.4661V66.5262H99.4846Z" fill="#272525"/>
<path d="M42.2616 80.8102C42.2616 81.1393 42.3533 81.4135 42.529 81.6251C42.7047 81.8445 42.9338 82.0012 43.2088 82.1031C43.4839 82.2049 43.7971 82.299 44.1408 82.3773C44.4846 82.4557 44.8207 82.5419 45.1645 82.6437C45.5082 82.7456 45.8138 82.871 46.0964 83.0277C46.3714 83.1844 46.6006 83.4195 46.7763 83.7251C46.952 84.0385 47.0437 84.4224 47.0437 84.8769C47.0437 85.5743 46.7839 86.1855 46.2568 86.7027C45.7374 87.2198 45.0269 87.4784 44.1408 87.4784C43.2547 87.4784 42.529 87.2668 41.9713 86.8515C41.4137 86.4362 41.1387 85.8642 41.1387 85.1433H42.3609C42.3915 85.5508 42.5519 85.8799 42.8345 86.1306C43.1172 86.3814 43.5373 86.5068 44.095 86.5068C44.6526 86.5068 45.0957 86.3579 45.4242 86.068C45.7527 85.778 45.9207 85.4333 45.9207 85.0336C45.9207 84.6418 45.8291 84.3362 45.6534 84.1247C45.4777 83.9131 45.2485 83.7564 44.9735 83.6545C44.6985 83.5527 44.3853 83.4586 44.0415 83.3881C43.6978 83.3176 43.3616 83.2236 43.0179 83.1217C42.6741 83.0198 42.3686 82.8866 42.0859 82.7299C41.8109 82.5732 41.5817 82.3303 41.406 82.0169C41.2303 81.7034 41.1387 81.3116 41.1387 80.8415C41.1387 80.0814 41.3984 79.4702 41.9255 79.0079C42.4526 78.5456 43.1401 78.3105 43.988 78.3105C44.836 78.3105 45.5082 78.5143 46.0124 78.9139C46.5166 79.3135 46.7992 79.8699 46.8756 80.5829H45.5999C45.5693 80.2303 45.4013 79.9247 45.111 79.674C44.8207 79.4232 44.4311 79.2979 43.9346 79.2979C43.438 79.2979 43.0408 79.4232 42.7276 79.6818C42.4144 79.9404 42.2616 80.3165 42.2616 80.8102Z" fill="#BFA674"/>
<path d="M57.64 79.1487C58.1594 79.6423 58.4192 80.2692 58.4192 81.0449C58.4192 81.8128 58.1671 82.4475 57.6706 82.9412C57.1664 83.4349 56.4101 83.6856 55.3865 83.6856H53.6906V87.3919H52.5371V78.4043H55.3788C56.3719 78.4121 57.1282 78.655 57.64 79.1487ZM53.6906 82.7531H55.3865C56.0205 82.7531 56.4865 82.6043 56.7997 82.3065C57.1053 82.0087 57.258 81.5934 57.258 81.0528C57.258 79.9166 56.6316 79.3524 55.3865 79.3524H53.6906V82.7531Z" fill="#BFA674"/>
<path d="M69.686 87.3997L69.0061 85.4251H65.1102L64.4303 87.3997H63.2539L66.4394 78.4121H67.7075L70.8777 87.3997H69.686ZM65.4387 84.4927H68.6776L67.0581 79.8461L65.4387 84.4927Z" fill="#BFA674"/>
</svg>
