<svg width="125" height="100" viewBox="0 0 125 100" fill="none" xmlns="http://www.w3.org/2000/svg">
<path d="M50.2417 68.7406C49.4853 68.7406 48.6945 68.6798 47.8865 68.5669C44.4224 68.0633 41.0012 66.4568 38.9468 64.3814C37.8638 63.2873 36.05 60.6735 32.7578 50.6265C31.0129 45.2861 29.6634 40.3104 29.6462 40.2583C29.4227 39.442 29.6548 38.565 30.2479 37.9658C30.841 37.3667 31.7092 37.1322 32.5172 37.358C32.5688 37.3753 37.4942 38.73 42.7806 40.5014C52.7259 43.8273 55.3132 45.6595 56.3963 46.7537C58.4507 48.829 60.0409 52.2938 60.5394 55.7846C61.1412 59.9528 60.1956 63.5391 57.8834 65.875C56.0181 67.7507 53.3534 68.7406 50.2417 68.7406ZM35.2936 43.0631C37.7004 51.2605 40.6574 59.4318 42.2476 61.0382C43.6058 62.4102 46.0813 63.5304 48.5569 63.8865C51.1528 64.2685 53.3448 63.7736 54.5654 62.5318C55.7946 61.2901 56.2846 59.0757 55.9064 56.4619C55.5453 53.9611 54.4365 51.4602 53.0869 50.0882C51.4967 48.4817 43.408 45.4945 35.2936 43.0631Z" fill="#C28565"/>
<path d="M56.2237 66.5696C55.622 66.5696 55.0288 66.3352 54.5733 65.8749L44.4216 55.6196C43.5105 54.6991 43.5105 53.2055 44.4216 52.2851C45.3328 51.3646 46.8113 51.3646 47.7225 52.2851L57.8741 62.5404C58.7852 63.4609 58.7852 64.9545 57.8741 65.8749C57.4185 66.3352 56.8168 66.5696 56.2237 66.5696Z" fill="#C28565"/>
<path d="M74.7492 68.7406C71.6376 68.7406 68.9729 67.7593 67.1162 65.875C64.8039 63.5391 63.8583 59.9528 64.46 55.7846C64.9586 52.2851 66.5488 48.829 68.6032 46.7537C69.6863 45.6595 72.2736 43.8273 82.219 40.5014C87.5054 38.7387 92.4308 37.3753 92.4823 37.358C93.2904 37.1322 94.1585 37.3667 94.7516 37.9658C95.3448 38.565 95.5768 39.442 95.3533 40.2583C95.3361 40.3104 93.9952 45.2861 92.2416 50.6265C88.9495 60.6735 87.1357 63.2873 86.0527 64.3814C83.9983 66.4568 80.5686 68.0633 77.1131 68.5669C76.2965 68.6798 75.5057 68.7406 74.7492 68.7406ZM89.6973 43.0631C81.5829 45.4945 73.4943 48.4817 71.904 50.0882C70.5459 51.4602 69.437 53.9611 69.0846 56.4619C68.7064 59.0844 69.1963 61.2987 70.4255 62.5318C71.6547 63.7736 73.8467 64.2685 76.434 63.8865C78.9096 63.5217 81.3852 62.4016 82.7433 61.0382C84.3335 59.4318 87.2991 51.2605 89.6973 43.0631Z" fill="#C28565"/>
<path d="M68.7673 66.5696C68.1656 66.5696 67.5725 66.3352 67.117 65.8749C66.2058 64.9545 66.2058 63.4609 67.117 62.5404L77.2686 52.2851C78.1797 51.3646 79.6582 51.3646 80.5694 52.2851C81.4805 53.2055 81.4805 54.6991 80.5694 55.6196L70.4178 65.8749C69.9708 66.3352 69.369 66.5696 68.7673 66.5696Z" fill="#C28565"/>
<path d="M62.4994 43.2618C56.5683 43.2618 51.7461 38.3903 51.7461 32.3986C51.7461 26.4069 56.5683 21.5354 62.4994 21.5354C68.4305 21.5354 73.2528 26.4069 73.2528 32.3986C73.2442 38.3903 68.4219 43.2618 62.4994 43.2618ZM62.4994 26.2593C59.1471 26.2593 56.4222 29.012 56.4222 32.3986C56.4222 35.7852 59.1471 38.5379 62.4994 38.5379C65.8518 38.5379 68.5767 35.7852 68.5767 32.3986C68.5767 29.012 65.8518 26.2593 62.4994 26.2593Z" fill="#C28565"/>
<path d="M10.1345 84.239H12.6616V99.8435H10.1345L2.52716 88.2074V99.8435H0V84.239H2.52716L10.1345 95.849V84.239Z" fill="#272525"/>
<path d="M39.5312 86.2528V84.2556H50.2932V86.2528H46.1844V99.834H43.6573V86.2528H39.5312Z" fill="#272525"/>
<path d="M57.2656 94.1473V84.2654H59.7928V94.1473C59.7928 95.3283 60.1022 96.214 60.7125 96.8132C61.3228 97.4124 62.1824 97.7076 63.2827 97.7076C64.3829 97.7076 65.2425 97.4124 65.8528 96.8132C66.4631 96.214 66.7726 95.3283 66.7726 94.1473V84.2654H69.2997V94.1473C69.2997 96.0317 68.7152 97.4732 67.5548 98.4891C66.3944 99.4964 64.9503 100 63.2311 100C61.5119 100 60.0765 99.4964 58.9504 98.4978C57.833 97.4992 57.2656 96.049 57.2656 94.1473Z" fill="#272525"/>
<path d="M115.406 84.2654H117.933V97.8987H124.999V99.8525H115.406V84.2654Z" fill="#272525"/>
<path d="M27.9712 84.239H25.0486L19.5215 99.8435H22.1604L23.0371 97.3165L23.9569 94.6594L26.5099 87.3304L28.59 93.3481L29.9568 97.3165L30.8335 99.8435H33.4982L27.9712 84.239Z" fill="#272525"/>
<path d="M103.046 84.2388H100.115L94.5879 99.8432H97.2268L98.1121 97.3163L99.0319 94.6591L101.576 87.3301L103.656 93.3479L105.023 97.3163L105.909 99.8432H108.573L103.046 84.2388Z" fill="#272525"/>
<path d="M83.9806 93.3659C85.2785 93.1141 86.2499 92.567 86.8773 91.7334C87.5048 90.8998 87.8229 89.9533 87.8229 88.9112C87.8229 87.5653 87.3501 86.4538 86.4046 85.5854C85.4591 84.7084 84.1095 84.2742 82.3646 84.2742H77.0352V99.8526H79.5623V94.4861V93.5309V91.5337V89.2065V86.2627H82.356C83.3187 86.2627 84.0321 86.4972 84.5049 86.9574C84.9777 87.4176 85.2184 88.0689 85.2184 88.8939C85.2184 89.7188 84.9777 90.3701 84.5049 90.8303C84.0321 91.2906 83.3101 91.525 82.356 91.525H81.1096V93.5222L84.9691 99.8439H88.055L83.9806 93.3659Z" fill="#272525"/>
<path d="M24.0769 14.5099C24.67 14.041 25.3147 13.85 26.011 13.9542C26.7072 14.0497 27.3089 14.4231 27.8161 15.0831C28.3232 15.743 28.5468 16.429 28.4866 17.1671C28.4264 17.8965 28.0998 18.4957 27.5066 18.9559C27.1198 19.2599 26.7158 19.4249 26.2775 19.4683C25.8391 19.503 25.4351 19.4336 25.0655 19.2425L25.7961 20.1803L25.2546 20.6059L20.7676 14.7965L21.3091 14.371L23.2088 16.8285C23.1142 16.4203 23.1486 16.0035 23.2861 15.5867C23.4237 15.1699 23.6901 14.8139 24.0769 14.5099ZM27.0511 18.5478C27.4895 18.2092 27.7301 17.7489 27.7817 17.1671C27.8333 16.594 27.6528 16.0383 27.2488 15.5172C26.8448 14.9875 26.3634 14.6923 25.8219 14.6228C25.2804 14.5534 24.7904 14.6923 24.352 15.0396C23.9136 15.387 23.6644 15.8385 23.6128 16.403C23.5526 16.9674 23.7331 17.5058 24.1371 18.0355C24.5411 18.5565 25.0225 18.8604 25.5726 18.9386C26.1227 19.0254 26.6213 18.8865 27.0511 18.5478Z" fill="#6E6E6E"/>
<path d="M33.8936 14.6057C33.2317 14.9965 32.5613 15.092 31.8908 14.8836C31.2203 14.6839 30.6702 14.215 30.249 13.4855C29.8278 12.7561 29.6988 12.0441 29.8708 11.3494C30.0341 10.6547 30.4553 10.1076 31.1258 9.71685C31.7962 9.31741 32.4581 9.21319 33.0942 9.40423C33.7303 9.58659 34.2288 9.99473 34.5898 10.6113C34.6844 10.7763 34.7618 10.9412 34.8219 11.0975L30.9882 13.3553C31.3234 13.885 31.7275 14.2063 32.2088 14.3452C32.6902 14.4755 33.1543 14.406 33.6185 14.1368C33.9795 13.9284 34.2374 13.6679 34.3921 13.3466C34.5469 13.034 34.5984 12.7127 34.5383 12.3827L35.1744 12.0093C35.2518 12.5043 35.1916 12.9819 34.9939 13.4421C34.8048 13.8937 34.4351 14.2844 33.8936 14.6057ZM33.971 10.9586C33.6701 10.4463 33.2833 10.125 32.7933 9.99474C32.3034 9.87317 31.8392 9.94264 31.375 10.2118C30.9194 10.481 30.6272 10.8544 30.4983 11.332C30.3693 11.8096 30.4381 12.3219 30.7132 12.869L33.971 10.9586Z" fill="#6E6E6E"/>
<path d="M38.758 11.1145C38.0961 10.8105 37.6147 10.2722 37.2967 9.49933C36.9787 8.72649 36.9528 8.01443 37.2193 7.35448C37.4772 6.69452 37.9586 6.22559 38.6549 5.93035C39.1018 5.73931 39.5402 5.68721 39.9786 5.76536C40.4084 5.84351 40.778 6.02589 41.0874 6.30376L40.6405 5.20962L41.2766 4.94043L43.331 9.96826L42.6949 10.2374L42.2393 9.13461C42.2221 9.55142 42.0846 9.94219 41.8353 10.3069C41.586 10.6716 41.2336 10.9495 40.7866 11.1405C40.0903 11.4271 39.4113 11.4184 38.758 11.1145ZM41.7236 9.43854C41.9299 8.90884 41.9126 8.33572 41.6548 7.72787C41.4055 7.11133 41.0187 6.6945 40.5029 6.46873C39.9872 6.24296 39.4714 6.23428 38.9643 6.45137C38.4571 6.65978 38.0961 7.02449 37.8812 7.53682C37.6749 8.04916 37.6921 8.6136 37.9414 9.23014C38.1907 9.84668 38.5775 10.2722 39.1018 10.5153C39.6175 10.7584 40.1333 10.7671 40.6405 10.5587C41.1562 10.333 41.5173 9.96824 41.7236 9.43854Z" fill="#6E6E6E"/>
<path d="M48.7466 2.71763L49.417 2.54395L50.7752 7.80622L50.1047 7.9799L49.8812 7.12021C49.6921 7.84963 49.2021 8.31857 48.4027 8.52697C47.8268 8.68328 47.2939 8.61381 46.8039 8.33593C46.314 8.05806 45.9788 7.5544 45.7982 6.83366L44.9902 3.69888L45.6521 3.5252L46.4257 6.52973C46.5718 7.11153 46.8297 7.51099 47.1822 7.73676C47.5346 7.96254 47.9558 8.01463 48.4372 7.89306C48.9185 7.76281 49.2537 7.51967 49.4515 7.13759C49.6492 6.76419 49.6749 6.2866 49.5288 5.7048L48.7466 2.71763Z" fill="#6E6E6E"/>
<path d="M55.6499 2.04022L54.18 2.25731L54.6958 5.82626C54.7387 6.09546 54.8161 6.27782 54.9365 6.37334C55.0568 6.46886 55.2459 6.4949 55.5124 6.45149L56.2688 6.33859L56.3461 6.87698L55.4436 7.00725C54.6098 7.12882 54.1371 6.76411 54.0081 5.9218L53.4924 2.35281L52.7531 2.46571L52.6758 1.92733L53.415 1.81443L53.2173 0.468484L53.8964 0.364258L54.0941 1.71024L55.564 1.49314L55.6499 2.04022Z" fill="#6E6E6E"/>
<path d="M60.617 6.45114L58.2617 1.18887L59.0009 1.15413L60.9608 5.69567L62.5424 1.00652L63.2387 0.980469L60.3762 9.07359L59.68 9.09966L60.617 6.45114Z" fill="#6E6E6E"/>
<path d="M73.7787 6.98102C73.3832 7.22416 72.9276 7.3023 72.4119 7.21547C71.8962 7.12863 71.4836 6.8768 71.1741 6.4513C70.8647 6.02581 70.7615 5.53084 70.8561 4.95772C70.9506 4.3846 71.2171 3.94173 71.6469 3.64648C72.0767 3.35124 72.5666 3.24706 73.1082 3.34258C73.1683 3.35126 73.2199 3.36861 73.2715 3.37729L73.0652 2.98655C72.6956 2.31791 72.5494 1.76215 72.6268 1.31928C72.7042 0.876415 72.9191 0.529086 73.2715 0.277261C73.6239 0.0254363 74.0623 -0.0527152 74.5695 0.034121C75.0852 0.120957 75.4634 0.33803 75.7213 0.694058C75.9792 1.05009 76.0651 1.43217 75.9964 1.8403C75.9706 1.97924 75.9362 2.10951 75.876 2.23108L75.1712 2.10949C75.2227 1.98792 75.2657 1.849 75.2829 1.71875C75.3259 1.44087 75.2743 1.19772 75.1282 0.980633C74.9821 0.763542 74.7586 0.633269 74.4749 0.581167C74.1913 0.529065 73.942 0.589871 73.7271 0.737492C73.5122 0.893798 73.3832 1.12824 73.3317 1.43217C73.2801 1.7361 73.3918 2.14423 73.6583 2.65657L76.3746 7.80595L75.5236 7.65834L74.621 5.93897C74.4577 6.39052 74.1741 6.73788 73.7787 6.98102ZM71.7242 6.11266C71.922 6.42527 72.197 6.60761 72.5495 6.6684C72.9019 6.72918 73.2199 6.64234 73.5122 6.41656C73.8044 6.19079 73.985 5.8782 74.0537 5.48743C74.1225 5.09667 74.0451 4.74062 73.8474 4.4367C73.6411 4.13277 73.366 3.94175 73.0136 3.88965C72.6612 3.82887 72.3432 3.9157 72.0595 4.13279C71.7758 4.34988 71.5953 4.66249 71.5266 5.05325C71.4664 5.44402 71.5265 5.80005 71.7242 6.11266Z" fill="#6E6E6E"/>
<path d="M84.8411 6.25142C85.0044 5.8346 85.3138 5.54806 85.7694 5.40044C86.225 5.25282 86.7149 5.27885 87.2479 5.49595C87.7808 5.71304 88.1418 6.01696 88.3223 6.41641C88.5115 6.81585 88.5201 7.2674 88.3568 7.77105L87.6949 7.51055C87.8066 7.19794 87.798 6.90271 87.6863 6.62483C87.5659 6.34696 87.3338 6.13855 86.99 5.99961C86.6462 5.86067 86.3367 5.83461 86.0703 5.93013C85.8038 6.02565 85.6233 6.19065 85.5287 6.43379C85.4342 6.67693 85.4342 6.9027 85.5201 7.10242C85.6147 7.30214 85.7608 7.47581 85.9585 7.61475C86.1648 7.75369 86.3797 7.91 86.6118 8.08367C86.8439 8.25735 87.0588 8.42232 87.2479 8.58731C87.437 8.7523 87.5745 8.96941 87.6347 9.22992C87.7035 9.49043 87.6777 9.77698 87.5488 10.0896C87.3854 10.4977 87.0931 10.7582 86.6548 10.8885C86.2164 11.0101 85.7264 10.9666 85.1763 10.7496C84.6262 10.5325 84.2566 10.2199 84.0503 9.80304C83.844 9.39491 83.8182 8.93467 83.9815 8.43971L84.6434 8.7002C84.5316 9.0215 84.5402 9.31675 84.6691 9.60331C84.7981 9.88118 85.0473 10.0983 85.4084 10.2459C85.7694 10.3935 86.0875 10.4282 86.3453 10.3501C86.6118 10.2719 86.7923 10.1156 86.8869 9.86381C86.9814 9.62067 86.99 9.3949 86.8955 9.19518C86.8009 8.99545 86.6548 8.82178 86.4571 8.68285C86.2508 8.54391 86.0359 8.3876 85.8038 8.21392C85.5717 8.04025 85.3568 7.87527 85.1677 7.71029C84.97 7.5453 84.841 7.33687 84.7723 7.09373C84.7035 6.81585 84.7293 6.54666 84.8411 6.25142Z" fill="#6E6E6E"/>
<path d="M94.9574 9.20413C95.6193 9.57753 96.0404 10.0985 96.221 10.7845C96.4015 11.4705 96.2983 12.1739 95.8943 12.9033C95.4903 13.6328 94.9488 14.1104 94.2611 14.3362C93.5735 14.5619 92.903 14.4924 92.2497 14.1277C91.8285 13.8933 91.5105 13.572 91.3042 13.1812C91.0979 12.7905 91.0119 12.3823 91.0377 11.9655L89.2326 15.2566L88.6309 14.9179L92.4732 7.91895L93.0749 8.25762L92.5076 9.29095C92.8428 9.0478 93.2296 8.90889 93.668 8.88284C94.0978 8.85679 94.5276 8.96099 94.9574 9.20413ZM92.4388 13.5546C92.9202 13.8238 93.4359 13.8759 93.9775 13.6935C94.519 13.5199 94.9574 13.1378 95.2754 12.556C95.5935 11.9742 95.6794 11.4184 95.5333 10.8801C95.3786 10.3504 95.0605 9.94222 94.5792 9.67303C94.0978 9.40384 93.582 9.35174 93.0491 9.51673C92.5162 9.68172 92.0864 10.0551 91.7683 10.6369C91.4503 11.2187 91.3643 11.7831 91.5019 12.3302C91.648 12.8686 91.9575 13.2767 92.4388 13.5546Z" fill="#6E6E6E"/>
<path d="M97.7004 16.5933C97.6316 15.8639 97.8379 15.1692 98.3364 14.5006C98.835 13.8319 99.4281 13.4499 100.124 13.3457C100.821 13.2415 101.465 13.4151 102.067 13.8754C102.454 14.1706 102.729 14.5266 102.875 14.9434C103.03 15.3603 103.064 15.7684 102.978 16.1765L103.683 15.23L104.233 15.6468L100.993 19.9886L100.442 19.5718L101.156 18.6166C100.786 18.8077 100.382 18.8945 99.9525 18.8598C99.5141 18.825 99.1015 18.6687 98.7147 18.3735C98.113 17.9132 97.7777 17.3227 97.7004 16.5933ZM100.64 18.3214C101.199 18.2345 101.672 17.9219 102.067 17.3922C102.462 16.8625 102.626 16.3154 102.557 15.751C102.488 15.1866 102.23 14.735 101.792 14.4051C101.354 14.0664 100.864 13.9361 100.313 14.0143C99.7719 14.0924 99.2991 14.3964 98.9037 14.9261C98.5083 15.4558 98.3364 16.0115 98.3966 16.5847C98.4568 17.1578 98.7061 17.6093 99.1444 17.948C99.5828 18.2866 100.081 18.4082 100.64 18.3214Z" fill="#6E6E6E"/>
</svg>
