<svg width="100" height="100" viewBox="0 0 100 100" fill="none" xmlns="http://www.w3.org/2000/svg">
<path d="M11.7912 33.2136C11.6319 33.2136 11.5281 33.2677 11.4865 33.3759C11.4588 33.4503 11.4588 33.5653 11.4934 33.7208C11.5904 34.0928 11.6527 34.4242 11.6943 34.7218C11.7289 35.0193 11.7289 35.3372 11.6943 35.6889C11.6527 36.0338 11.5558 36.4058 11.4034 36.8048C11.0364 37.7381 10.5032 38.4686 9.79686 39.0096C9.09053 39.5507 8.25263 39.855 7.28316 39.9362C6.31368 40.0105 5.2611 39.8415 4.13235 39.4154C3.02437 39.0028 2.12415 38.4347 1.43167 37.7178C0.739182 37.0009 0.295988 36.2029 0.102093 35.3169C-0.0918027 34.4309 -0.00870039 33.5382 0.344466 32.6387C0.572986 32.0571 0.8569 31.5904 1.18929 31.2387C1.52168 30.887 1.92333 30.576 2.38036 30.2987C2.51194 30.2243 2.58811 30.1499 2.62273 30.0619C2.69891 29.8591 2.44962 29.6224 1.87485 29.3518L2.00642 29.0137C2.64351 29.2977 3.78611 29.7441 5.44115 30.3663L5.30957 30.7045C4.83176 30.6098 4.45781 30.5422 4.18082 30.5083C3.91075 30.4745 3.66839 30.4677 3.46064 30.4813C3.2529 30.4948 3.0313 30.5421 2.78893 30.6098C2.28342 30.7586 1.84023 31.0223 1.46629 31.4011C1.09235 31.7798 0.801506 32.2329 0.593761 32.7604C0.344467 33.3962 0.337539 34.0319 0.579908 34.6744C0.822277 35.3101 1.29317 35.9121 1.98565 36.4734C2.67813 37.0348 3.56451 37.5149 4.63094 37.9207C5.72506 38.3265 6.71531 38.5362 7.60861 38.5429C8.50192 38.5497 9.2498 38.3806 9.85919 38.0289C10.4616 37.6773 10.891 37.1903 11.1403 36.5546C11.3342 36.0676 11.4242 35.5536 11.4173 35.0193C11.4103 34.4851 11.2649 34.0184 10.981 33.6126C10.7871 33.3083 10.5447 33.0513 10.2608 32.8484C9.97691 32.6455 9.51294 32.3749 8.87586 32.0435L9.00743 31.7054C10.7317 32.3546 11.9436 32.7875 12.6361 33.0039L12.5045 33.3421C12.1929 33.2609 11.9505 33.2136 11.7912 33.2136Z" fill="#272525"/>
<path d="M11.4181 16.6709C12.2629 16.3869 13.1631 16.3666 14.1049 16.6033C15.0467 16.84 15.9815 17.3405 16.9025 18.1047C17.8097 18.8486 18.4675 19.6738 18.883 20.5733C19.2985 21.4728 19.4509 22.3722 19.3331 23.265C19.2154 24.1577 18.8415 24.976 18.1975 25.7132C17.5396 26.4775 16.7848 26.9982 15.94 27.2823C15.0952 27.5663 14.1949 27.5866 13.2531 27.3499C12.3114 27.1132 11.3765 26.6127 10.4555 25.8485C9.54835 25.1046 8.89049 24.2794 8.475 23.3799C8.05951 22.4804 7.90716 21.581 8.02489 20.6882C8.14261 19.7955 8.51655 18.9771 9.16056 18.24C9.81842 17.4757 10.5732 16.9482 11.4181 16.6709ZM8.71737 20.2757C8.74507 20.9655 8.99437 21.6892 9.46525 22.4399C9.93614 23.1906 10.594 23.9142 11.4388 24.6108C12.2906 25.3142 13.1423 25.8147 13.9941 26.119C14.8458 26.4166 15.6214 26.5113 16.3208 26.3963C17.0202 26.2813 17.5881 25.977 18.0105 25.49C18.4537 24.976 18.6614 24.3741 18.6337 23.6843C18.606 22.9944 18.3567 22.2708 17.8789 21.5201C17.408 20.7694 16.7502 20.0457 15.9054 19.3491C15.0536 18.6458 14.2018 18.1453 13.3501 17.8409C12.4983 17.5433 11.7228 17.4487 11.0233 17.5569C10.3239 17.6719 9.76302 17.9695 9.33368 18.4632C8.89742 18.9772 8.68967 19.5791 8.71737 20.2757Z" fill="#272525"/>
<path d="M25.197 17.645C25.9448 17.9629 26.7273 17.8682 27.5375 17.3677C27.8492 17.1784 28.0985 16.9349 28.2854 16.6441C28.4724 16.3533 28.5624 16.0218 28.5555 15.6566C28.5486 15.2914 28.417 14.9059 28.1608 14.5069C27.9392 14.162 27.6553 13.9117 27.309 13.7494C26.9628 13.5871 26.575 13.4789 26.1318 13.4316C25.6955 13.3842 25.1416 13.3707 24.4698 13.3842C23.722 13.4045 23.1056 13.3842 22.6209 13.3369C22.1292 13.2895 21.6653 13.1543 21.2359 12.9378C20.7997 12.7214 20.4327 12.3765 20.128 11.9031C19.8025 11.4026 19.6432 10.9089 19.6571 10.4152C19.664 9.92826 19.8094 9.47514 20.0864 9.06935C20.3634 8.6568 20.7374 8.31189 21.2013 8.02784C21.4783 7.85876 21.7345 7.73022 21.9631 7.64906C22.1916 7.56791 22.3993 7.52059 22.5724 7.50706C22.7456 7.49354 22.9533 7.48676 23.1749 7.49352C23.4588 7.49352 23.6527 7.45973 23.7635 7.3921C23.8466 7.338 23.8812 7.25684 23.8674 7.1351C23.8535 7.01336 23.7912 6.84428 23.6873 6.62786L23.999 6.43848C24.2898 6.98629 24.8507 7.90608 25.6886 9.19108L25.377 9.38047C25.0446 8.94763 24.6776 8.58916 24.2621 8.30511C23.8466 8.02106 23.4034 7.85872 22.9256 7.81814C22.4478 7.77756 21.97 7.89934 21.4922 8.19692C21.1736 8.39305 20.9312 8.63648 20.7581 8.92054C20.5919 9.20459 20.5088 9.50895 20.5158 9.82682C20.5227 10.1447 20.6266 10.4626 20.8204 10.7601C21.1321 11.2403 21.5268 11.5379 22.0185 11.6461C22.5032 11.7543 23.0225 11.8084 23.5696 11.8016C24.1167 11.7949 24.4906 11.7881 24.6776 11.7881C25.4739 11.7881 26.1249 11.8084 26.6235 11.8625C27.1221 11.9166 27.5791 12.0519 28.0015 12.2683C28.417 12.4847 28.7771 12.8161 29.0679 13.2693C29.4211 13.8171 29.5873 14.3581 29.5804 14.8924C29.5665 15.4267 29.4072 15.9272 29.0887 16.3871C28.7771 16.847 28.3478 17.2392 27.8076 17.5774C27.3714 17.8479 26.9905 18.0237 26.6512 18.1049C26.3118 18.186 25.9725 18.2334 25.6263 18.2334C25.3424 18.2334 25.1485 18.2672 25.0377 18.3349C24.9546 18.389 24.92 18.4701 24.9338 18.5919C24.9477 18.7136 25.01 18.8827 25.1139 19.0991L24.8022 19.2884C24.5252 18.7812 23.8535 17.7059 22.794 16.0692L23.1056 15.8798C23.7566 16.7387 24.4491 17.3271 25.197 17.645Z" fill="#272525"/>
<path d="M42.9468 0.696482C42.7944 0.797929 42.7044 0.946735 42.6836 1.1361C42.6628 1.32547 42.6975 1.60949 42.7875 1.99499L44.6087 9.59002C44.6987 9.97552 44.8026 10.246 44.9065 10.4016C45.0103 10.5639 45.1558 10.6518 45.3427 10.6789C45.5297 10.7059 45.8136 10.6789 46.1945 10.6112L46.2707 10.9156C45.7721 10.9967 45.1073 11.132 44.2694 11.3281C43.3692 11.531 42.7044 11.7001 42.275 11.8286L42.1989 11.5243C42.5728 11.4228 42.836 11.3214 42.9883 11.2199C43.1407 11.1185 43.2307 10.9697 43.2514 10.7803C43.2722 10.5909 43.2376 10.3069 43.1476 9.92141L41.1809 1.73122L39.7821 12.4779L39.5328 12.5387L33.2035 3.50993L35.1425 11.5851C35.2394 11.9774 35.3433 12.2682 35.461 12.4508C35.5787 12.6334 35.7519 12.7484 35.9665 12.789C36.1812 12.8296 36.4997 12.8093 36.9152 12.7349L36.9914 13.0392C36.6105 13.0933 36.0773 13.2015 35.3848 13.3571C34.7616 13.4991 34.2838 13.6276 33.9445 13.7358L33.8683 13.4315C34.2284 13.3368 34.4846 13.2218 34.637 13.0933C34.7893 12.9648 34.8793 12.7957 34.9001 12.5793C34.9209 12.3629 34.8793 12.0585 34.7893 11.6663L33.0096 4.23359C32.9196 3.84809 32.8157 3.57756 32.7118 3.422C32.608 3.25969 32.4626 3.17179 32.2756 3.14473C32.0886 3.11768 31.8047 3.14472 31.4238 3.21235L31.3477 2.90804C31.6939 2.8607 32.1856 2.76602 32.8088 2.61723C33.3628 2.48873 33.799 2.37375 34.1384 2.26553L39.7059 10.3542L40.9524 0.750599L41.6934 0.58152C42.5313 0.392152 43.1891 0.223081 43.6739 0.0810547L43.75 0.385363C43.3692 0.493573 43.106 0.595035 42.9468 0.696482Z" fill="#272525"/>
<path d="M58.4226 9.96213C58.3533 10.5505 58.3118 11.2201 58.3048 11.9708C57.5847 11.8626 56.3659 11.7138 54.6485 11.5244C52.6057 11.3012 51.0545 11.1457 50.002 11.0578L50.0366 10.7466C50.4244 10.7737 50.7083 10.7669 50.8883 10.7196C51.0684 10.6723 51.2069 10.5641 51.29 10.395C51.3731 10.2259 51.4423 9.94185 51.4839 9.54959L52.3772 1.79902C52.4257 1.40676 52.4257 1.12268 52.3772 0.933316C52.3356 0.750712 52.2248 0.615465 52.0586 0.527545C51.8924 0.439624 51.6154 0.371987 51.2346 0.311119L51.2692 0C52.3148 0.148789 53.8591 0.331399 55.9019 0.554582C57.4669 0.730424 58.5818 0.831899 59.2466 0.879241C59.0943 1.55555 58.9904 2.16421 58.9211 2.71202C58.8727 3.11781 58.8519 3.44245 58.8588 3.68592L58.4918 3.64534C58.4918 2.96226 58.4503 2.44829 58.3741 2.10337C58.2979 1.75845 58.1248 1.49466 57.8616 1.31882C57.5985 1.13622 57.1899 1.01449 56.629 0.953626L55.2995 0.804815C54.9117 0.764236 54.6277 0.764236 54.4477 0.804815C54.2677 0.845394 54.1361 0.953626 54.0461 1.1227C53.963 1.29178 53.8937 1.56906 53.8522 1.96133L53.4298 5.64724L54.4893 5.76221C55.0225 5.82307 55.4033 5.70132 55.6111 5.41051C55.8257 5.1197 55.9712 4.8086 56.0473 4.49073C56.1235 4.17287 56.1789 3.96322 56.2066 3.86854L56.5736 3.90911C56.4767 4.41635 56.4005 4.91005 56.352 5.3767L56.2759 6.1274C56.2135 6.65493 56.1581 7.3989 56.1166 8.35927L55.7496 8.31869C55.7496 8.2443 55.7496 7.99406 55.7496 7.55445C55.7496 7.11485 55.6457 6.77668 55.431 6.52644C55.2164 6.27621 54.8909 6.13417 54.4615 6.08682L53.4021 5.97186L52.9658 9.7254C52.9173 10.1177 52.9173 10.4017 52.9658 10.5843C53.0073 10.7669 53.1181 10.8954 53.2843 10.9766C53.4505 11.0578 53.7275 11.1186 54.1153 11.1592L55.2856 11.2877C55.9504 11.3621 56.4698 11.3283 56.8368 11.193C57.2038 11.0578 57.4877 10.8075 57.6816 10.4423C57.8824 10.0771 58.0625 9.52927 58.2287 8.80562L58.5957 8.8462C58.5334 9.11672 58.478 9.48871 58.4226 9.96213Z" fill="#272525"/>
<path d="M65.7213 4.53827C65.9706 3.97693 66.2129 3.34797 66.4345 2.65137C67.2378 3.0301 68.6159 3.63202 70.5756 4.47065C72.5215 5.30252 73.9064 5.87738 74.7374 6.19524C74.3635 6.85127 74.0588 7.45317 73.8095 7.99422C73.5948 8.4744 73.4286 8.88021 73.3247 9.19131L72.9854 9.04927C73.2416 8.27151 73.394 7.67635 73.4355 7.27056C73.4771 6.86477 73.3871 6.51309 73.1655 6.21551C72.9439 5.9247 72.5284 5.64742 71.919 5.38366L71.1226 5.0455L67.4594 13.2357C67.2794 13.6347 67.1893 13.939 67.1824 14.1622C67.1755 14.3786 67.2586 14.568 67.4317 14.7236C67.6048 14.8791 67.9026 15.0617 68.3319 15.2578L68.2004 15.5487C67.6948 15.2984 66.9816 14.9738 66.0537 14.5815C65.0703 14.1622 64.3363 13.8646 63.8516 13.6955L63.9831 13.4047C64.4263 13.5738 64.7656 13.6685 64.9942 13.6888C65.2296 13.7023 65.4235 13.6347 65.5828 13.4859C65.742 13.3303 65.9082 13.0598 66.0883 12.6608L69.7515 4.47065L68.9552 4.1325C68.3458 3.8755 67.8541 3.76053 67.4871 3.80111C67.1201 3.84169 66.7946 4.0175 66.5176 4.32184C66.2406 4.63295 65.8944 5.14019 65.4858 5.85032L65.1465 5.70828C65.3127 5.40394 65.4997 5.01845 65.7213 4.53827Z" fill="#272525"/>
<path d="M82.4934 12.0114C82.3134 11.9573 82.1402 11.9843 81.974 12.0858C81.8079 12.1872 81.607 12.3969 81.3577 12.708L76.455 18.8624C76.2057 19.1735 76.0533 19.417 75.991 19.5996C75.9287 19.7822 75.9494 19.9513 76.0464 20.1069C76.1433 20.2624 76.3372 20.4653 76.635 20.7088L76.4342 20.959C76.0672 20.6411 75.534 20.2218 74.8484 19.6943C74.1213 19.1397 73.5673 18.7407 73.1934 18.4972L73.3942 18.247C73.7127 18.4702 73.9551 18.6054 74.1351 18.6595C74.3152 18.7136 74.4883 18.6866 74.6545 18.5851C74.8207 18.4837 75.0215 18.274 75.2708 17.9629L80.1736 11.8085C80.4229 11.4974 80.5752 11.2539 80.6376 11.0713C80.6999 10.8887 80.6791 10.7196 80.5822 10.5641C80.4852 10.4085 80.2913 10.2056 79.9936 9.96215L80.1944 9.71191C80.5268 10.0027 81.06 10.4288 81.7871 10.9834C82.4726 11.5041 83.0197 11.9031 83.4283 12.1737L83.2275 12.4239C82.9228 12.2008 82.6735 12.0655 82.4934 12.0114Z" fill="#272525"/>
<path d="M85.3046 29.7577C85.3877 29.6224 85.3947 29.5075 85.3254 29.4195C85.2769 29.3519 85.1731 29.2978 85.0207 29.2437C84.6468 29.1288 84.3213 29.007 84.0443 28.8853C83.7673 28.7635 83.4834 28.5944 83.1995 28.378C82.9156 28.1616 82.6455 27.8911 82.3824 27.5529C81.7591 26.7617 81.399 25.9298 81.3021 25.0641C81.2051 24.1984 81.3713 23.3395 81.8145 22.4873C82.2577 21.6419 82.9571 20.8574 83.9197 20.1405C84.8615 19.4372 85.824 18.984 86.8143 18.7811C87.8045 18.5782 88.7324 18.6256 89.605 18.9299C90.4775 19.2343 91.2115 19.7686 91.814 20.5396C92.2018 21.0333 92.458 21.5135 92.5896 21.9734C92.7211 22.4332 92.7835 22.927 92.7835 23.4545C92.7765 23.5965 92.8042 23.7115 92.8596 23.7791C92.9912 23.9482 93.3305 23.867 93.8707 23.5289L94.0923 23.8129C93.5106 24.1916 92.5203 24.9085 91.1146 25.9568L90.893 25.6728C91.2254 25.3278 91.4816 25.0506 91.6547 24.8409C91.8278 24.6313 91.9594 24.4351 92.0564 24.2593C92.1533 24.0767 92.2295 23.8738 92.2987 23.6371C92.4372 23.1366 92.4372 22.6294 92.2987 22.1221C92.1602 21.6149 91.9179 21.1347 91.5716 20.6883C91.1492 20.1473 90.5952 19.8091 89.9097 19.6806C89.2241 19.5454 88.4554 19.6198 87.6037 19.9038C86.7519 20.1879 85.8656 20.668 84.9584 21.3511C84.0305 22.041 83.3311 22.7646 82.8533 23.5018C82.3754 24.2457 82.1331 24.9559 82.1261 25.639C82.1123 26.322 82.32 26.9375 82.7425 27.4785C83.0679 27.8911 83.4626 28.236 83.9335 28.5133C84.4044 28.7838 84.8892 28.9123 85.3877 28.8853C85.7548 28.8785 86.101 28.8176 86.4334 28.6824C86.7658 28.5539 87.2436 28.3104 87.8668 27.9519L88.0884 28.236C86.6204 29.3316 85.6093 30.1162 85.0554 30.576L84.8338 30.292C85.0623 30.0688 85.2285 29.893 85.3046 29.7577Z" fill="#272525"/>
<path d="M88.5183 35.2558C88.0474 35.905 87.9782 36.6693 88.3106 37.5485C88.4352 37.8866 88.6291 38.1707 88.8784 38.4074C89.1277 38.6441 89.4393 38.7997 89.8133 38.8741C90.1803 38.9417 90.5958 38.9011 91.0459 38.732C91.4337 38.59 91.7453 38.3736 91.9807 38.076C92.2162 37.7785 92.4031 37.4268 92.5416 37.021C92.6801 36.6152 92.8048 36.0877 92.9294 35.4384C93.0679 34.7215 93.2064 34.1399 93.3588 33.68C93.5111 33.2201 93.7396 32.8075 94.0513 32.4356C94.3629 32.0636 94.7853 31.7795 95.3185 31.5902C95.8863 31.3873 96.4195 31.3332 96.9043 31.4481C97.3959 31.5563 97.8114 31.7863 98.1646 32.138C98.5178 32.4897 98.7878 32.9158 98.9817 33.4162C99.0995 33.7206 99.1687 33.9911 99.2033 34.2278C99.231 34.4645 99.2379 34.6674 99.2172 34.8432C99.1964 35.0123 99.1618 35.2084 99.1064 35.4249C99.051 35.6954 99.0371 35.8915 99.0856 36.0065C99.1202 36.0944 99.1964 36.1485 99.3211 36.1553C99.4457 36.162 99.6257 36.1418 99.8681 36.0877L99.9997 36.4258C99.3903 36.5881 98.3585 36.9398 96.8904 37.4673L96.7658 37.1292C97.2644 36.906 97.7006 36.6219 98.0746 36.2838C98.4416 35.9456 98.6978 35.5534 98.8363 35.107C98.9748 34.6606 98.9471 34.1804 98.7532 33.6597C98.6217 33.3148 98.4347 33.0307 98.1784 32.8143C97.9292 32.5911 97.6383 32.4559 97.3198 32.395C96.9943 32.3341 96.6619 32.3679 96.3157 32.4964C95.7686 32.6926 95.3947 33.0104 95.18 33.4568C94.9653 33.8964 94.8061 34.3834 94.7022 34.9109C94.5983 35.4384 94.5291 35.7901 94.4875 35.9727C94.3213 36.7369 94.1621 37.3524 94.0097 37.8123C93.8504 38.2789 93.6219 38.6847 93.3172 39.0432C93.0125 39.4016 92.604 39.6654 92.0985 39.8547C91.4821 40.0779 90.9005 40.132 90.3672 40.0035C89.834 39.8818 89.3631 39.6248 88.9684 39.2257C88.5737 38.8335 88.2621 38.3398 88.0405 37.7581C87.8605 37.2847 87.7635 36.8857 87.7497 36.5476C87.7358 36.2094 87.7635 35.8712 87.8328 35.5466C87.8882 35.2761 87.902 35.0799 87.8535 34.965C87.8189 34.877 87.7427 34.823 87.6181 34.8162C87.4934 34.8094 87.3134 34.8297 87.071 34.8838L86.9395 34.5457C87.5073 34.3833 88.7191 33.9708 90.5819 33.2945L90.7135 33.6326C89.7232 34.0587 88.9892 34.6065 88.5183 35.2558Z" fill="#272525"/>
<path d="M6.32785 63.5669L5.57304 63.8036C6.23783 63.9321 6.68102 64.3447 6.90954 65.048C7.07573 65.5553 7.04111 66.0287 6.81952 66.4683C6.591 66.9146 6.16166 67.2325 5.52457 67.4286L2.75464 68.2943L2.56767 67.7194L5.2268 66.8876C5.73924 66.7253 6.08548 66.4886 6.27245 66.1639C6.45943 65.8393 6.48713 65.4673 6.34863 65.048C6.21013 64.6287 5.96776 64.3379 5.62152 64.1823C5.27528 64.0268 4.84594 64.0268 4.3335 64.1823L1.67436 65.0142L1.48047 64.4326L6.12703 62.9785L6.32785 63.5669Z" fill="#6E6E6E"/>
<path d="M6.16183 74.1982C6.3488 73.5828 6.77121 73.0891 7.41522 72.7171C8.05923 72.3451 8.68939 72.2369 9.31263 72.3857C9.92894 72.5345 10.4137 72.8997 10.7599 73.4746C10.9815 73.8466 11.0854 74.2253 11.0715 74.6108C11.0577 74.9963 10.94 75.3412 10.7322 75.6456L11.6463 75.118L11.9648 75.6456L7.75454 78.06L7.43599 77.5325L8.36393 76.9982C7.98999 77.032 7.62297 76.9576 7.2698 76.7885C6.90971 76.6127 6.62579 76.3422 6.39727 75.9702C6.05103 75.4088 5.97486 74.8137 6.16183 74.1982ZM8.02461 76.5992C8.5232 76.7141 9.02179 76.6262 9.54115 76.3354C10.0536 76.0378 10.3791 75.6523 10.5176 75.1721C10.6561 74.692 10.5937 74.2388 10.3444 73.8195C10.0882 73.4002 9.72119 73.1229 9.24338 73.0012C8.75864 72.8794 8.26006 72.9674 7.74762 73.2649C7.22826 73.5625 6.90279 73.9548 6.75044 74.4349C6.60502 74.9219 6.65349 75.375 6.90971 75.7943C7.159 76.2137 7.53295 76.4774 8.02461 76.5992Z" fill="#6E6E6E"/>
<path d="M16.4451 81.9022L15.5518 80.9148L13.1281 83.0114C12.9481 83.1669 12.8511 83.3157 12.8373 83.4509C12.8303 83.5862 12.8996 83.7417 13.0658 83.9176L13.5297 84.4248L13.1627 84.7427L12.6087 84.134C12.1032 83.5794 12.1379 83.0519 12.7126 82.5514L15.1363 80.4549L14.6862 79.9612L15.0532 79.6433L15.5033 80.137L16.4174 79.3457L16.8329 79.8056L15.9188 80.5969L16.8121 81.5843L16.4451 81.9022Z" fill="#6E6E6E"/>
<path d="M23.2737 87.1297L23.7723 87.5017L20.7877 91.2755L20.2891 90.9035L20.7738 90.2881C20.1506 90.5518 19.5481 90.4572 18.9526 90.004C18.5232 89.6794 18.274 89.2736 18.2047 88.7799C18.1355 88.2862 18.3017 87.7857 18.7102 87.2717L20.483 85.0264L20.9746 85.3916L19.2711 87.549C18.9457 87.9616 18.8002 88.3538 18.8279 88.7258C18.8626 89.0978 19.0565 89.4157 19.4166 89.6862C19.7697 89.9567 20.1367 90.0581 20.5176 89.9973C20.8915 89.9364 21.2447 89.6997 21.5702 89.2804L23.2737 87.1297Z" fill="#6E6E6E"/>
<path d="M29.132 90.6063L28.7719 91.3097C29.2774 90.9106 29.866 90.8701 30.5239 91.1947L30.233 91.7628L30.0738 91.6816C29.6929 91.4923 29.3466 91.4517 29.035 91.5532C28.7234 91.6546 28.4464 91.9522 28.1902 92.4459L26.9437 94.8603L26.3828 94.583L28.578 90.3223L29.132 90.6063Z" fill="#6E6E6E"/>
<path d="M34.6029 97.3158C34.2982 96.7477 34.2497 96.1052 34.4436 95.4019C34.6444 94.6985 35.0184 94.1913 35.5654 93.8734C36.1125 93.5623 36.7219 93.4879 37.3797 93.6705C37.8021 93.7855 38.1484 93.9884 38.4115 94.2724C38.6747 94.5632 38.8409 94.8879 38.9032 95.2463L39.1871 94.2454L39.7896 94.4077L38.4946 99.0066L37.8922 98.8443L38.1761 97.8366C37.9337 98.1139 37.6152 98.31 37.2412 98.4318C36.8604 98.5467 36.4587 98.5535 36.0363 98.4385C35.3784 98.2559 34.9006 97.8839 34.6029 97.3158ZM37.6498 97.769C38.0861 97.5187 38.3908 97.1062 38.5431 96.5448C38.7024 95.9835 38.6608 95.483 38.4115 95.0502C38.1692 94.6106 37.8021 94.3265 37.3174 94.198C36.8327 94.0695 36.3756 94.1236 35.9463 94.3603C35.5169 94.5971 35.2192 95.0029 35.0599 95.5642C34.9006 96.1255 34.9422 96.6328 35.1846 97.0859C35.4269 97.5323 35.787 97.8231 36.2648 97.9516C36.7496 98.0801 37.2066 98.0192 37.6498 97.769Z" fill="#6E6E6E"/>
<path d="M44.9336 99.9463L45.4945 93.5078L46.1177 93.5619L45.5568 100L44.9336 99.9463Z" fill="#6E6E6E"/>
<path d="M60.9585 93.8731C61.6233 93.704 62.2257 93.7851 62.7728 94.1098C63.3129 94.4344 63.68 94.9484 63.8669 95.6585C64.0539 96.3686 63.9916 97.0044 63.673 97.5657C63.3614 98.1338 62.8767 98.499 62.2188 98.6613C61.7895 98.7696 61.3878 98.7628 61.0139 98.6343C60.633 98.5126 60.3283 98.3029 60.086 98.0256L60.356 99.0401L59.7467 99.1889L58.1055 92.933L58.7148 92.7842L59.4073 95.4286C59.4766 95.0701 59.6497 94.7455 59.9198 94.4615C60.176 94.1707 60.5292 93.9745 60.9585 93.8731ZM61.9834 98.1744C62.4681 98.0527 62.8351 97.7686 63.0844 97.329C63.3337 96.8827 63.3822 96.3822 63.2368 95.8141C63.0844 95.246 62.8005 94.8402 62.3712 94.5967C61.9418 94.3465 61.4848 94.2856 61 94.4073C60.5153 94.5291 60.1414 94.8064 59.8921 95.2392C59.6428 95.672 59.5943 96.1725 59.7397 96.7339C59.8852 97.2952 60.176 97.7078 60.6123 97.9715C61.0416 98.2218 61.4986 98.2962 61.9834 98.1744Z" fill="#6E6E6E"/>
<path d="M72.2515 94.9075C71.6283 95.2186 71.0189 95.2659 70.4234 95.0563C69.8209 94.8466 69.35 94.407 69.0038 93.751C68.6576 93.0882 68.5745 92.4592 68.7614 91.8641C68.9484 91.2621 69.35 90.809 69.9802 90.4912C70.6104 90.1733 71.2059 90.1124 71.7807 90.3085C72.3485 90.4979 72.7848 90.8766 73.0756 91.438C73.1518 91.5868 73.2141 91.7356 73.2626 91.8708L69.6824 93.6631C69.9594 94.1365 70.3126 94.4476 70.7419 94.5829C71.1713 94.7249 71.6006 94.6843 72.03 94.4679C72.3624 94.2988 72.6116 94.0824 72.764 93.8118C72.9233 93.5413 72.9787 93.264 72.944 92.9732L73.5396 92.6756C73.588 93.1085 73.5119 93.5278 73.311 93.9201C73.1102 94.3326 72.7571 94.6572 72.2515 94.9075ZM72.4939 91.7153C72.2516 91.2486 71.9122 90.951 71.476 90.8158C71.0397 90.6805 70.6104 90.7211 70.181 90.9375C69.7517 91.1539 69.4678 91.465 69.3293 91.8776C69.1908 92.2901 69.2323 92.7433 69.4539 93.2302L72.4939 91.7153Z" fill="#6E6E6E"/>
<path d="M79.4606 89.6658C78.8096 89.5847 78.2418 89.26 77.764 88.6987C77.2862 88.1374 77.0715 87.549 77.12 86.9268C77.1685 86.3046 77.4593 85.7838 77.9856 85.3577C78.3249 85.0804 78.6919 84.9181 79.0866 84.8708C79.4813 84.8234 79.8484 84.8775 80.1877 85.0331L79.509 84.235L79.9869 83.8428L83.11 87.5084L82.6322 87.9007L81.9466 87.0958C82.0435 87.4543 82.0297 87.8127 81.912 88.1847C81.7942 88.5567 81.5657 88.8813 81.2264 89.1586C80.7001 89.5779 80.1115 89.747 79.4606 89.6658ZM81.5796 87.4813C81.6211 86.9876 81.448 86.5142 81.0671 86.0678C80.6863 85.6215 80.2431 85.3712 79.7376 85.3171C79.2321 85.263 78.7819 85.3915 78.4011 85.7026C78.0133 86.0137 77.7986 86.4128 77.7571 86.8997C77.7086 87.3867 77.8817 87.8533 78.2626 88.2997C78.6434 88.7528 79.0936 89.003 79.606 89.0707C80.1184 89.1315 80.5685 89.0098 80.9494 88.6987C81.3303 88.3808 81.545 87.9818 81.5796 87.4813Z" fill="#6E6E6E"/>
<path d="M85.9778 77.2086L86.3587 76.7217L90.2228 79.6366L89.8419 80.1236L89.2117 79.6501C89.4818 80.2588 89.3849 80.8472 88.9209 81.4288C88.5885 81.8482 88.173 82.0916 87.6675 82.1593C87.162 82.2269 86.6495 82.0646 86.1233 81.6655L83.8242 79.9342L84.1982 79.4608L86.4072 81.1245C86.8296 81.4424 87.2312 81.5912 87.6121 81.5573C87.993 81.5235 88.3184 81.3341 88.5954 80.9892C88.8724 80.6443 88.9763 80.2859 88.914 79.9139C88.8516 79.5487 88.6093 79.2038 88.1799 78.8791L85.9778 77.2086Z" fill="#6E6E6E"/>
<path d="M90.6796 70.3501L90.0702 71.5269L92.9578 72.954C93.1794 73.0622 93.3525 73.096 93.4841 73.0554C93.6157 73.0148 93.7334 72.8863 93.8442 72.6767L94.1558 72.068L94.5921 72.2844L94.2181 73.0081C93.8719 73.6708 93.3595 73.8332 92.6739 73.495L89.7863 72.068L89.4816 72.6631L89.0453 72.4467L89.35 71.8516L88.2559 71.3105L88.5398 70.7627L89.6339 71.3038L90.2433 70.127L90.6796 70.3501Z" fill="#6E6E6E"/>
<path d="M97.1688 65.4949L92.0098 65.9954L92.1967 65.3664L96.6286 64.9945L93.097 62.35L93.277 61.7549L99.3293 66.4282L99.1493 67.0234L97.1688 65.4949Z" fill="#6E6E6E"/>
<path d="M75.2156 49.851C75.1533 49.2897 74.7863 48.7959 74.26 48.566C72.6881 47.8626 70.3959 46.7738 68.9002 46.0569C69.6827 44.6163 70.8807 42.4183 71.7255 40.9507C72.0094 40.457 72.0094 39.8551 71.7255 39.3614C71.4416 38.8677 70.9084 38.5566 70.3267 38.5431L62.1762 38.3334C61.4421 38.3131 60.6666 38.2928 59.8771 38.3131C59.6486 37.5759 59.3924 36.859 59.1431 36.1827L56.4216 28.6756C56.2277 28.1413 55.7638 27.7423 55.1959 27.6341C54.6281 27.5191 54.0395 27.7085 53.6448 28.121C52.4745 29.3655 50.7086 31.1577 49.5453 32.3277C48.3819 31.1577 46.6161 29.3655 45.4458 28.121C45.051 27.7017 44.4624 27.5191 43.8946 27.6341C43.3268 27.7491 42.8628 28.1413 42.6689 28.6756L39.9474 36.1827C39.6981 36.859 39.4419 37.5759 39.2134 38.3131C38.424 38.2996 37.6484 38.3199 36.9144 38.3334L28.7638 38.5431C28.1821 38.5566 27.6559 38.8677 27.365 39.3614C27.0811 39.8551 27.0811 40.457 27.365 40.9507C28.2098 42.4251 29.4148 44.6163 30.1903 46.0569C28.6877 46.7738 26.4025 47.8626 24.8305 48.566C24.3042 48.8027 23.9372 49.2897 23.8749 49.851C23.8126 50.4123 24.0549 50.9669 24.512 51.3119L30.9798 56.161C31.5615 56.6006 32.1778 57.0605 32.8287 57.5001C32.5725 58.2305 32.3509 58.9542 32.1432 59.644L29.8233 67.2796C29.6571 67.8207 29.7956 68.409 30.1903 68.8284C30.5851 69.2477 31.1667 69.437 31.7415 69.3221C33.4381 68.9907 35.9449 68.5511 37.593 68.2738C37.8284 69.8902 38.1816 72.352 38.3755 74.0292C38.4448 74.5906 38.8048 75.0775 39.3381 75.3142C39.5596 75.4089 39.7882 75.4562 40.0236 75.4562C40.356 75.4562 40.6815 75.3616 40.9585 75.1722L47.6756 70.6612C48.2849 70.2554 48.922 69.8225 49.5522 69.3626C50.1824 69.8293 50.8194 70.2554 51.4288 70.6612L58.1459 75.1722C58.4229 75.3616 58.7553 75.4562 59.0808 75.4562C59.3162 75.4562 59.5447 75.4089 59.7663 75.3142C60.2926 75.0775 60.6596 74.5906 60.7289 74.0292C60.9297 72.352 61.2759 69.8902 61.5114 68.2738C63.1595 68.5511 65.6663 68.9907 67.3629 69.3221C67.9307 69.437 68.5193 69.2477 68.914 68.8284C69.3088 68.409 69.4472 67.8207 69.2811 67.2796L66.9612 59.644C66.7535 58.9542 66.5319 58.2305 66.2757 57.5001C66.9266 57.0605 67.536 56.6006 68.1246 56.161L74.5924 51.3119C75.0356 50.9737 75.278 50.4191 75.2156 49.851ZM43.0636 37.258L44.8779 32.2533C46.5399 33.9576 48.2572 35.6755 48.3611 35.7769C48.6727 36.088 49.1021 36.2639 49.5453 36.2639C49.9885 36.2639 50.4178 36.088 50.7294 35.7769C50.8264 35.6755 52.5437 33.9644 54.2126 32.2533L56.0269 37.258C56.1931 37.7247 56.3662 38.1914 56.5255 38.6648C56.2693 38.7189 56.0131 38.7865 55.7568 38.8609C53.1531 39.6251 50.9787 41.4579 49.5453 43.7912C48.1118 41.4579 45.9374 39.6251 43.3337 38.8609C43.0775 38.7865 42.8213 38.7189 42.565 38.6648C42.7243 38.1914 42.8974 37.7247 43.0636 37.258ZM57.3011 42.3777C57.3634 45.1844 55.5491 47.8897 52.9177 49.4047C52.3983 49.479 51.8859 49.5872 51.3803 49.7225C51.3596 49.2085 51.3042 48.7013 51.2141 48.194C51.8789 45.2791 53.9564 42.7565 56.7055 41.9517C56.8925 41.8976 57.0795 41.8502 57.2665 41.8096C57.2872 42.0058 57.3011 42.1884 57.3011 42.3777ZM49.9123 64.6014C49.7946 64.7502 49.6699 64.8922 49.5453 65.0343C49.4206 64.8922 49.296 64.7502 49.1783 64.6014C47.4401 62.3696 47.2808 59.13 48.4927 56.3977C48.8666 56.0393 49.2198 55.6605 49.5453 55.2547C49.8707 55.6538 50.2239 56.0393 50.5978 56.3977C51.8097 59.13 51.6504 62.3628 49.9123 64.6014ZM41.8171 41.8164C42.0041 41.857 42.198 41.9043 42.3781 41.9584C45.1272 42.77 47.2047 45.2926 47.8694 48.2008C47.7794 48.7013 47.724 49.2153 47.7033 49.7293C47.1977 49.594 46.6853 49.4858 46.1659 49.4114C43.5345 47.8964 41.7202 45.1845 41.7825 42.3845C41.7825 42.1884 41.7964 42.0058 41.8171 41.8164ZM45.1272 52.5157C45.5912 52.7524 46.069 52.962 46.5607 53.1379C46.2698 53.564 46.0067 54.0103 45.7782 54.4702C43.493 56.4451 40.2937 57.2972 37.5792 56.3707C37.3991 56.3098 37.219 56.2422 37.039 56.161C37.136 55.9987 37.2398 55.8364 37.3506 55.6808C38.9918 53.3814 42.0872 52.2316 45.1272 52.5157ZM52.516 53.1446C53.0077 52.962 53.4855 52.7592 53.9495 52.5225C56.9895 52.2384 60.0918 53.3881 61.7261 55.6944C61.8369 55.8499 61.9407 56.0122 62.0377 56.1745C61.8576 56.2489 61.6776 56.3166 61.4975 56.3842C58.783 57.3108 55.5837 56.4586 53.2985 54.4837C53.07 54.0171 52.8069 53.5707 52.516 53.1446ZM32.988 53.5978L28.6738 50.365C30.8482 49.3438 33.0503 48.282 33.175 48.2211C33.5766 48.025 33.8744 47.6868 34.0129 47.2742C34.1514 46.8617 34.1098 46.4086 33.9021 46.0231C33.8328 45.9013 32.6971 43.7777 31.5476 41.7014L36.9836 41.5662C37.4891 41.5526 38.0016 41.5391 38.5071 41.5391C38.4863 41.7961 38.4655 42.0531 38.4586 42.3101C38.4032 44.9612 39.5112 47.5515 41.3393 49.6008C38.6248 50.2095 36.1665 51.6635 34.6222 53.848C34.4699 54.0577 34.3314 54.2809 34.1929 54.4973C33.7982 54.2065 33.3896 53.9021 32.988 53.5978ZM41.3116 71.0128C40.9931 68.6728 40.633 66.3057 40.6122 66.1637C40.5499 65.7308 40.3075 65.3454 39.9474 65.0884C39.6635 64.8855 39.3242 64.7773 38.978 64.7773C38.8879 64.7773 38.791 64.784 38.701 64.7975C38.5625 64.8178 36.1388 65.2236 33.7636 65.6497L35.3078 60.5571C35.4532 60.0836 35.5986 59.6102 35.751 59.1368C35.9934 59.2382 36.2357 59.3329 36.485 59.4209C37.5584 59.7861 38.6733 59.9551 39.8089 59.9551C41.3878 59.9551 42.9805 59.617 44.4763 58.9948C44.2339 61.7068 44.8918 64.4323 46.533 66.5492C46.6922 66.7521 46.8584 66.955 47.0315 67.1444C46.6161 67.4352 46.2006 67.7192 45.7851 67.9965L41.3116 71.0128ZM63.7758 60.5706L65.32 65.6632C62.9448 65.2371 60.5281 64.8381 60.3826 64.8111C59.9464 64.7367 59.4963 64.8381 59.1362 65.0951C58.7761 65.3521 58.5337 65.7376 58.4714 66.1705C58.4506 66.3057 58.0905 68.6796 57.772 71.0196L53.2916 68.01C52.8761 67.7327 52.4537 67.4487 52.0451 67.1579C52.2183 66.9618 52.3844 66.7656 52.5437 66.5627C54.1849 64.4526 54.8428 61.7203 54.6004 59.0083C56.0962 59.6305 57.6889 59.9687 59.2677 59.9687C60.3965 59.9687 61.5183 59.7928 62.5917 59.4344C62.841 59.3464 63.0902 59.2518 63.3257 59.1503C63.485 59.617 63.6304 60.0971 63.7758 60.5706ZM66.0956 53.5978C65.694 53.8953 65.2923 54.1997 64.8769 54.4973C64.7453 54.2741 64.5999 54.0577 64.4475 53.848C62.8963 51.6703 60.445 50.2162 57.7304 49.6008C59.5586 47.5448 60.6735 44.9612 60.6112 42.3101C60.6042 42.0531 60.5904 41.7961 60.5627 41.5391C61.0682 41.5391 61.5806 41.5526 62.0861 41.5662L67.5221 41.7014C66.3726 43.7777 65.2369 45.9013 65.1677 46.0231C64.96 46.4086 64.9253 46.8617 65.0569 47.2742C65.1954 47.6868 65.5001 48.0317 65.8948 48.2211C66.0195 48.282 68.2215 49.3505 70.396 50.365L66.0956 53.5978Z" fill="#C28565"/>
</svg>
