<svg width="116" height="100" viewBox="0 0 116 100" fill="none" xmlns="http://www.w3.org/2000/svg">
<path d="M82.7345 81.9676H34.204C33.1701 81.9676 32.332 81.1319 32.332 80.101C32.332 79.0701 33.1701 78.2344 34.204 78.2344H82.7345C83.7683 78.2344 84.6064 79.0701 84.6064 80.101C84.6064 81.1319 83.7683 81.9676 82.7345 81.9676Z" fill="#F4E4DC"/>
<path d="M0 65.9566L1.56651 65.6989V53.3121L0 53.0778V52.7029H5.20864C6.43835 52.7029 7.41742 52.82 8.14585 53.0465C8.87428 53.273 9.39905 53.6167 9.73585 54.0775C10.0648 54.5382 10.2293 55.1396 10.2293 55.8894C10.2293 57.5217 9.19541 58.5683 7.11979 59.0212V59.1071C8.38083 59.279 9.36772 59.6539 10.0648 60.2318C10.7619 60.8097 11.1144 61.6142 11.1144 62.6451C11.1144 63.8947 10.6601 64.8163 9.74368 65.4177C8.82728 66.0191 7.58974 66.3159 6.03106 66.3159H0.00783422V65.9566H0ZM5.34963 58.9666C6.25821 58.9666 6.96313 58.7088 7.44875 58.2012C7.93437 57.6935 8.18501 56.9672 8.18501 56.0222V55.9206C8.18501 54.0618 7.19811 53.1324 5.21648 53.1324H3.46198V58.9666H5.34963ZM6.03106 65.9097C6.99447 65.9097 7.74639 65.6286 8.28683 65.0662C8.81945 64.5039 9.08575 63.6995 9.08575 62.6607V62.4733C9.08575 61.4424 8.81945 60.6692 8.29467 60.1615C7.76206 59.6539 7.01013 59.3961 6.03106 59.3961H3.45416V65.9175H6.03106V65.9097Z" fill="#272525"/>
<path d="M21.25 66.3159V65.9566L22.8165 65.6989V53.3121L21.25 53.0778V52.7029H31.5263V56.6001H31.0642L29.7483 53.1246H24.6963V59.2477H26.9129L27.9233 56.7797H28.3698V62.1609H27.9233L26.8973 59.6617H24.6963V65.9097H30.0538L31.4558 62.1687H31.9023V66.3237H21.25V66.3159Z" fill="#272525"/>
<path d="M40.9336 66.3157V65.9565L42.6098 65.277L47.5443 52.3591H47.8106L52.4709 65.6988L54.0374 65.9565V66.3157H49.0168V65.9565L50.4188 65.7378L48.9698 61.7078H44.4269L43.0484 65.2848L44.5836 65.9643V66.3236H40.9336V66.3157ZM44.5679 61.3485H48.8523L46.808 55.3582L44.5679 61.3485Z" fill="#272525"/>
<path d="M64.7199 65.5427C63.9444 64.8007 63.5606 63.8166 63.5606 62.5905V53.3121L61.9941 53.0778V52.7029H67.0148V53.0778L65.4483 53.3121V62.5905C65.4483 63.6995 65.7616 64.5586 66.3882 65.1522C67.0148 65.7457 67.9625 66.0425 69.2392 66.0425C71.6517 66.0425 72.8579 64.8944 72.8579 62.5905V53.7416L71.2679 53.0778V52.7029H74.9022V53.0778L73.2652 53.7416V62.5905C73.2652 63.9494 72.8814 64.9725 72.1216 65.6442C71.3619 66.3159 70.1165 66.6595 68.4012 66.6595C66.7172 66.6517 65.4953 66.2846 64.7199 65.5427Z" fill="#272525"/>
<path d="M87.3398 66.3149V65.9556L88.9063 65.6979V53.1236H86.0866L84.7864 56.4898H84.293V52.6941H95.4074V56.4898H94.8982L93.6215 53.1236H90.7861V65.6979L92.3527 65.9556V66.3149H87.3398Z" fill="#272525"/>
<path d="M107.698 66.3149V65.9556L109.288 65.6979V60.5276L105.136 53.3111L103.789 53.0768V52.7019H108.927V53.0768L107.337 53.3111L110.924 59.4889L114.222 53.889L112.178 53.069V52.6941H116V53.069L114.684 53.9046L111.136 59.9653V65.6979L112.726 65.9556V66.3149H107.698Z" fill="#272525"/>
<path d="M82.9862 16.2999C82.1482 15.4642 80.8088 14.9253 73.8065 17.5261C71.2609 18.4711 67.9321 19.8847 65.2377 21.353C64.8617 20.408 64.5328 19.627 64.3291 19.1428C60.4912 10.2314 58.9403 10.2314 58.0083 10.2314C57.084 10.2314 55.5253 10.2314 51.6874 19.1428C51.4759 19.627 51.1469 20.408 50.7788 21.353C48.0844 19.8925 44.7556 18.4789 42.21 17.5261C35.2077 14.9253 33.8684 15.4564 33.0303 16.2999C32.3723 16.9559 31.2758 18.0493 34.8788 27.0544C35.662 28.9991 38.3877 35.5439 40.7532 37.9026C42.6565 39.8004 45.1942 40.7611 47.7398 40.7611C49.5178 40.7611 51.3036 40.2847 52.8701 39.3318C54.3661 40.2456 56.1284 40.7767 58.0161 40.7767C59.9037 40.7767 61.6582 40.2456 63.1621 39.3318C64.7286 40.2847 66.5144 40.7611 68.2924 40.7611C70.838 40.7611 73.3757 39.8004 75.2712 37.9026C77.6444 35.5361 80.3702 28.9991 81.1456 27.0544C84.7407 18.0493 83.6363 16.9481 82.9862 16.2999ZM43.3927 35.2628C41.1369 33.0135 37.1815 23.4227 36.2573 19.5333C39.1945 20.2362 45.5075 22.6573 49.4708 24.891C48.7423 27.0778 48.1392 29.3662 48.1392 30.9438C48.1392 33.0525 48.8128 35.005 49.9486 36.6061C47.7476 37.473 45.1394 37.0044 43.3927 35.2628ZM51.8832 30.9516C51.8832 27.7651 55.8935 18.1821 58.0004 14.7925C60.1074 18.1821 64.1176 27.7651 64.1176 30.9516C64.1176 34.3099 61.3762 37.0513 58.0004 37.0513C54.6246 37.0513 51.8832 34.3177 51.8832 30.9516ZM72.6081 35.2628C70.8615 37.0044 68.2532 37.473 66.0444 36.6139C67.1802 35.0128 67.8538 33.0603 67.8538 30.9516C67.8538 29.374 67.2507 27.0778 66.5222 24.8988C70.4855 22.6651 76.8064 20.244 79.7357 19.5411C78.8193 23.4227 74.8717 33.0135 72.6081 35.2628Z" fill="#C28565"/>
<path d="M57.9998 5.95128C59.6525 5.95128 60.984 4.61576 60.984 2.97564C60.984 1.32771 59.6447 0 57.9998 0C56.3472 0 55.0156 1.33552 55.0156 2.97564C55.0156 4.61576 56.3472 5.95128 57.9998 5.95128Z" fill="#C28565"/>
<path d="M71.3787 14.5734C73.0269 14.5734 74.3629 13.2411 74.3629 11.5977C74.3629 9.95431 73.0269 8.62207 71.3787 8.62207C69.7306 8.62207 68.3945 9.95431 68.3945 11.5977C68.3945 13.2411 69.7306 14.5734 71.3787 14.5734Z" fill="#C28565"/>
<path d="M44.6229 14.5734C46.2755 14.5734 47.6071 13.2378 47.6071 11.5977C47.6071 9.95759 46.2677 8.62207 44.6229 8.62207C42.9702 8.62207 41.6387 9.95759 41.6387 11.5977C41.6387 13.2378 42.9702 14.5734 44.6229 14.5734Z" fill="#C28565"/>
<path d="M22.8164 95.7751C22.8164 95.4783 22.9417 95.2284 23.1924 95.0253C23.443 94.8222 23.7641 94.7207 24.1558 94.7207C24.5474 94.7207 24.8607 94.8222 25.0879 95.0175C25.315 95.2205 25.4325 95.4939 25.456 95.8375H24.845C24.8372 95.6423 24.7667 95.4783 24.6414 95.3611C24.5161 95.244 24.3438 95.1815 24.1166 95.1815C23.8973 95.1815 23.7172 95.2362 23.5918 95.3377C23.4665 95.447 23.4038 95.5798 23.4038 95.7438C23.4038 95.9078 23.4743 96.0406 23.6232 96.1265C23.772 96.2124 23.9443 96.2827 24.1479 96.3218C24.3516 96.3608 24.5552 96.4077 24.7667 96.4623C24.9704 96.517 25.1505 96.6185 25.2915 96.7669C25.4325 96.9153 25.5108 97.1262 25.5108 97.3996C25.5108 97.6729 25.3855 97.9072 25.1348 98.0947C24.8842 98.2821 24.5631 98.3758 24.1636 98.3758C23.7641 98.3758 23.4508 98.2743 23.208 98.079C22.9652 97.8838 22.8399 97.6104 22.8164 97.259H23.4273C23.4352 97.4542 23.5057 97.6182 23.6388 97.7354C23.772 97.8525 23.9521 97.915 24.1793 97.915C24.4064 97.915 24.5944 97.8682 24.7275 97.7666C24.8607 97.6651 24.9234 97.5401 24.9234 97.3917C24.9234 97.2355 24.8685 97.1184 24.7667 97.0247C24.6649 96.931 24.5317 96.8685 24.3751 96.8372C24.2184 96.806 24.0461 96.7591 23.866 96.7123C23.6858 96.6654 23.5135 96.6107 23.3569 96.5639C23.2002 96.5092 23.0749 96.4155 22.9652 96.2827C22.8634 96.1499 22.8164 95.9781 22.8164 95.7751Z" fill="#6E6E6E"/>
<path d="M30.8447 94.7129C31.3303 94.7129 31.7376 94.8769 32.0588 95.2127C32.3799 95.5486 32.5444 95.9859 32.5444 96.5248C32.5444 97.0637 32.3799 97.5089 32.0588 97.8526C31.7376 98.1962 31.3303 98.3758 30.8447 98.3758C30.5392 98.3758 30.2808 98.3055 30.0536 98.1571C29.8265 98.0166 29.6542 97.8213 29.5288 97.5948V100H28.9414V94.7754H29.5288V95.4861C29.6463 95.2596 29.8265 95.0722 30.0536 94.9316C30.2808 94.791 30.5471 94.7129 30.8447 94.7129ZM30.7351 97.876C31.064 97.876 31.346 97.751 31.581 97.5011C31.8159 97.2512 31.9334 96.931 31.9334 96.5248C31.9334 96.1187 31.8159 95.8063 31.581 95.572C31.346 95.3377 31.064 95.2206 30.7351 95.2206C30.4061 95.2206 30.1241 95.3377 29.8891 95.5798C29.6542 95.8219 29.5367 96.1421 29.5367 96.5405C29.5367 96.9388 29.6542 97.259 29.8891 97.5011C30.1241 97.751 30.4061 97.876 30.7351 97.876Z" fill="#6E6E6E"/>
<path d="M36.1321 97.8603C35.811 97.5167 35.6465 97.0715 35.6465 96.5326C35.6465 95.9937 35.811 95.5564 36.1321 95.2205C36.4532 94.8847 36.8605 94.7207 37.3461 94.7207C37.6516 94.7207 37.9101 94.791 38.1372 94.9316C38.3644 95.0721 38.5367 95.2596 38.6542 95.4861V94.7754H39.2495V98.3211H38.6542V97.5948C38.5367 97.8291 38.3644 98.0166 38.1372 98.1571C37.9101 98.2977 37.6438 98.3758 37.3461 98.3758C36.8605 98.3836 36.4532 98.204 36.1321 97.8603ZM38.2939 97.5167C38.5289 97.2746 38.6464 96.9544 38.6464 96.5561C38.6464 96.1578 38.5289 95.8375 38.2939 95.5954C38.0589 95.3533 37.7769 95.2362 37.448 95.2362C37.119 95.2362 36.837 95.3533 36.6021 95.5876C36.3671 95.8219 36.2496 96.1343 36.2496 96.5405C36.2496 96.9388 36.3671 97.2668 36.6099 97.5167C36.8449 97.7666 37.1268 97.8916 37.4558 97.8916C37.7848 97.8916 38.0589 97.7588 38.2939 97.5167Z" fill="#6E6E6E"/>
<path d="M49.2281 98.1021C48.9931 98.2817 48.7111 98.3676 48.3743 98.3676C48.0375 98.3676 47.7399 98.2427 47.4893 97.9928C47.2308 97.7428 47.1055 97.4304 47.1055 97.0477C47.1055 96.665 47.2308 96.3526 47.4814 96.1027C47.7321 95.8606 48.0297 95.7356 48.39 95.7356C48.437 95.7356 48.4918 95.7513 48.5623 95.7903L48.3038 95.5951C48.0062 95.2046 47.8574 94.8687 47.8574 94.5798C47.8574 94.2908 47.9592 94.0409 48.1707 93.8378C48.3822 93.6347 48.6641 93.5332 49.0166 93.5332C49.3691 93.5332 49.6589 93.6347 49.8704 93.83C50.0818 94.0331 50.1915 94.2673 50.1915 94.5407C50.1915 94.6344 50.1758 94.7281 50.1445 94.8375H49.5492C49.5727 94.7594 49.5884 94.6579 49.5884 94.5251C49.5884 94.3923 49.5336 94.2752 49.4317 94.1658C49.3221 94.0565 49.1889 94.0018 49.0244 94.0018C48.86 94.0018 48.719 94.0565 48.6171 94.1658C48.5153 94.2752 48.4605 94.4157 48.4605 94.5954C48.4605 94.775 48.5623 94.9937 48.7581 95.2514L51.1001 98.2973H50.3795L49.698 97.3914C49.6119 97.696 49.4552 97.9225 49.2281 98.1021ZM47.8731 97.6491C48.0219 97.8131 48.2099 97.8912 48.4213 97.8912C48.6406 97.8912 48.8208 97.8131 48.9774 97.6491C49.1341 97.4851 49.2124 97.2899 49.2124 97.0477C49.2124 96.8134 49.1341 96.6104 48.9853 96.4464C48.8286 96.2823 48.6485 96.2043 48.4292 96.2043C48.2098 96.2043 48.0297 96.2823 47.8731 96.4464C47.7242 96.6104 47.6459 96.8056 47.6459 97.0477C47.6459 97.282 47.7242 97.4851 47.8731 97.6491Z" fill="#6E6E6E"/>
<path d="M60.7021 94.7125C61.1878 94.7125 61.595 94.8765 61.9162 95.2124C62.2373 95.5482 62.4018 95.9856 62.4018 96.5245C62.4018 97.0634 62.2373 97.5086 61.9162 97.8522C61.595 98.1958 61.1878 98.3755 60.7021 98.3755C60.3967 98.3755 60.1382 98.3052 59.911 98.1568C59.6839 98.0162 59.5116 97.8209 59.3863 97.5945V98.3208H58.7988V93.541H59.3863V95.4857C59.5038 95.2592 59.6839 95.0718 59.911 94.9312C60.1382 94.7906 60.4045 94.7125 60.7021 94.7125ZM60.5925 97.8756C60.9215 97.8756 61.2034 97.7507 61.4384 97.5007C61.6734 97.2508 61.7909 96.9306 61.7909 96.5245C61.7909 96.1183 61.6734 95.8059 61.4384 95.5716C61.2034 95.3373 60.9215 95.2202 60.5925 95.2202C60.2635 95.2202 59.9815 95.3373 59.7466 95.5794C59.5116 95.8216 59.3941 96.1418 59.3941 96.5401C59.3941 96.9384 59.5116 97.2586 59.7466 97.5007C59.9815 97.7507 60.2635 97.8756 60.5925 97.8756Z" fill="#6E6E6E"/>
<path d="M67.2271 98.3836C66.7179 98.3836 66.3028 98.2118 65.9817 97.876C65.6606 97.5402 65.5039 97.095 65.5039 96.5483C65.5039 95.9937 65.6684 95.5564 65.9895 95.2205C66.3107 94.8847 66.7336 94.7207 67.2506 94.7207C67.7675 94.7207 68.1826 94.8769 68.4959 95.1971C68.8092 95.5173 68.9659 95.9156 68.9659 96.4077C68.9659 96.5326 68.9581 96.6498 68.9424 96.7591H66.107C66.1227 97.1106 66.2323 97.3917 66.4438 97.5948C66.6475 97.7979 66.9138 97.8994 67.2349 97.8994C67.4777 97.8994 67.6814 97.8447 67.8458 97.7354C68.0103 97.626 68.1356 97.4855 68.214 97.3058H68.8484C68.7388 97.6182 68.5429 97.876 68.2688 98.0712C67.9868 98.2821 67.6422 98.3836 67.2271 98.3836ZM68.0182 95.5095C67.8067 95.3065 67.5404 95.2049 67.2271 95.2049C66.9138 95.2049 66.6553 95.3065 66.4438 95.5017C66.2402 95.7048 66.1227 95.9781 66.0992 96.3218H68.3315C68.3393 95.9859 68.2296 95.7126 68.0182 95.5095Z" fill="#6E6E6E"/>
<path d="M72.5384 97.8603C72.2172 97.5167 72.0527 97.0715 72.0527 96.5326C72.0527 95.9937 72.2172 95.5564 72.5384 95.2205C72.8595 94.8847 73.2668 94.7207 73.7524 94.7207C74.0579 94.7207 74.3163 94.791 74.5435 94.9316C74.7706 95.0721 74.9429 95.2596 75.0604 95.4861V94.7754H75.6557V98.3211H75.0604V97.5948C74.9429 97.8291 74.7706 98.0166 74.5435 98.1571C74.3163 98.2977 74.05 98.3758 73.7524 98.3758C73.2668 98.3836 72.8595 98.204 72.5384 97.8603ZM74.708 97.5167C74.9429 97.2746 75.0604 96.9544 75.0604 96.5561C75.0604 96.1578 74.9429 95.8375 74.708 95.5954C74.473 95.3533 74.191 95.2362 73.8621 95.2362C73.5331 95.2362 73.2511 95.3533 73.0161 95.5876C72.7812 95.8219 72.6637 96.1343 72.6637 96.5405C72.6637 96.9388 72.7812 97.2668 73.024 97.5167C73.259 97.7666 73.5409 97.8916 73.8699 97.8916C74.1989 97.8916 74.473 97.7588 74.708 97.5167Z" fill="#6E6E6E"/>
<path d="M81.7252 94.7754H82.3127V98.3212H81.7252V97.751C81.4903 98.1728 81.0986 98.3758 80.566 98.3758C80.1744 98.3758 79.8454 98.2431 79.5791 97.9853C79.3128 97.7276 79.1875 97.3527 79.1875 96.8763V94.7676H79.7671V96.7748C79.7671 97.1262 79.8533 97.3996 80.0334 97.587C80.2057 97.7744 80.4485 97.8682 80.7462 97.8682C81.0517 97.8682 81.2866 97.7744 81.4589 97.587C81.6313 97.3996 81.7252 97.1262 81.7252 96.7748V94.7754Z" fill="#6E6E6E"/>
<path d="M87.0429 97.8445H87.5285V98.3209H86.9332C86.3145 98.3209 86.009 98.0163 86.009 97.4071V95.2515H85.5469V94.7751H86.009V93.8926H86.6043V94.7751H87.5207V95.2515H86.6043V97.4071C86.6043 97.5633 86.6356 97.6805 86.6983 97.7429C86.7688 97.8132 86.8784 97.8445 87.0429 97.8445Z" fill="#6E6E6E"/>
<path d="M91.7653 98.2665L90.3555 94.7754H91.0056L92.0943 97.6417L93.1987 94.7754H93.8096L91.6635 99.9847H91.0526L91.7653 98.2665Z" fill="#6E6E6E"/>
</svg>
