<svg width="125" height="100" viewBox="0 0 125 100" fill="none" xmlns="http://www.w3.org/2000/svg">
<path d="M37.562 17.0141C36.364 16.6692 35.3693 16.1893 34.5781 15.5594L35.7838 12.8674C37.4415 14.0222 39.2876 14.5996 41.3371 14.5996C42.4297 14.5996 43.2737 14.4271 43.8614 14.0822C44.4491 13.7373 44.743 13.2574 44.743 12.6275C44.743 12.0801 44.4718 11.6527 43.9368 11.3452C43.3942 11.0303 42.4523 10.7304 41.1036 10.4454C39.589 10.138 38.3909 9.77054 37.4943 9.32813C36.6051 8.88572 35.9495 8.35336 35.5426 7.71598C35.1357 7.08611 34.9248 6.29875 34.9248 5.35394C34.9248 4.32664 35.2111 3.41183 35.7838 2.5945C36.3564 1.77716 37.1552 1.1398 38.1875 0.682389C39.2198 0.224981 40.4103 0 41.7591 0C42.9798 0 44.1553 0.179973 45.2855 0.524904C46.4083 0.877333 47.3125 1.35727 47.9907 1.96465L46.785 4.65658C45.2705 3.50181 43.6052 2.92443 41.7892 2.92443C40.8247 2.92443 40.0486 3.11941 39.476 3.50183C38.8957 3.88425 38.6094 4.40912 38.6094 5.06149C38.6094 5.44391 38.7149 5.76637 38.9334 6.02132C39.152 6.27626 39.5137 6.5087 40.0336 6.70366C40.546 6.90612 41.2769 7.1011 42.2263 7.28856C44.4265 7.76847 46.0165 8.39084 46.996 9.16319C47.9681 9.92803 48.4578 10.9778 48.4578 12.3126C48.4578 13.9172 47.8324 15.1845 46.5741 16.1218C45.3157 17.0591 43.5751 17.524 41.3371 17.524C40.011 17.5315 38.7601 17.359 37.562 17.0141Z" fill="#272525"/>
<path d="M55.9863 0.216797H63.7776C65.6765 0.216797 67.1533 0.674218 68.2083 1.58903C69.2632 2.50385 69.7907 3.74107 69.7907 5.30826C69.7907 6.86045 69.2632 8.09771 68.2008 9.02003C67.1383 9.94234 65.6689 10.3998 63.7852 10.3998H59.7539V17.3134H55.9863V0.216797ZM63.3029 7.5428C65.2621 7.5428 66.2492 6.80798 66.2492 5.33078C66.2492 3.83858 65.2696 3.09619 63.3029 3.09619H59.7539V7.53534H63.3029V7.5428Z" fill="#272525"/>
<path d="M88.3931 17.3134L86.7504 13.5191H78.7179L77.0753 17.3134H73.2852L81.1744 0.216797H84.2186L92.1079 17.3134H88.3931ZM79.9763 10.6622H85.5297L82.7568 4.25099L79.9763 10.6622Z" fill="#272525"/>
<path d="M10.3007 90.6041C10.15 90.6641 10.0445 90.7691 9.99175 90.9265C9.93147 91.084 9.90883 91.339 9.90883 91.6839V98.53C9.90883 98.875 9.93901 99.1299 9.99175 99.2874C10.0445 99.4449 10.15 99.5498 10.3007 99.6098C10.4514 99.6698 10.6925 99.7073 11.0316 99.7148V99.9922C10.6473 99.9622 10.0595 99.9548 9.26082 99.9548C8.52238 99.9548 7.93462 99.9697 7.49759 99.9922V99.7148C7.82913 99.6998 8.07781 99.6623 8.22852 99.6098C8.37922 99.5498 8.48469 99.4449 8.53743 99.2874C8.59772 99.1299 8.62036 98.8825 8.62036 98.53V95.2157H4.11433V98.53C4.11433 98.875 4.1445 99.1299 4.19725 99.2874C4.25753 99.4449 4.35546 99.5498 4.50617 99.6098C4.65687 99.6698 4.89797 99.7073 5.23705 99.7148V99.9922C4.81508 99.9622 4.22737 99.9548 3.47386 99.9548C2.68267 99.9548 2.08742 99.9697 1.70312 99.9922V99.7148C2.03467 99.6998 2.28331 99.6623 2.43401 99.6098C2.58471 99.5498 2.69018 99.4449 2.74293 99.2874C2.80321 99.1299 2.82585 98.8825 2.82585 98.53V91.6839C2.82585 91.339 2.79567 91.084 2.74293 90.9265C2.68265 90.7691 2.58471 90.6641 2.43401 90.6041C2.28331 90.5441 2.04221 90.5066 1.70312 90.4991V90.2217C2.08742 90.2517 2.67514 90.2592 3.47386 90.2592C4.21984 90.2592 4.80755 90.2442 5.23705 90.2217V90.4991C4.90551 90.5141 4.65687 90.5516 4.50617 90.6041C4.35546 90.6641 4.24999 90.7691 4.19725 90.9265C4.1445 91.084 4.11433 91.339 4.11433 91.6839V94.9383H8.62036V91.6839C8.62036 91.339 8.59018 91.084 8.53743 90.9265C8.48469 90.7691 8.37922 90.6641 8.22852 90.6041C8.07781 90.5441 7.83667 90.5066 7.49759 90.4991V90.2217C7.93462 90.2517 8.51485 90.2592 9.26082 90.2592C10.052 90.2592 10.6473 90.2442 11.0316 90.2217V90.4991C10.6925 90.5066 10.4514 90.5441 10.3007 90.6041Z" fill="#6E6E6E"/>
<path d="M22.0629 98.2223C22.0629 98.7397 22.0931 99.3321 22.1609 99.9844C21.5355 99.9544 20.473 99.9469 18.9886 99.9469C17.2178 99.9469 15.8766 99.9619 14.9648 99.9844V99.707C15.2964 99.692 15.545 99.6545 15.6957 99.602C15.8464 99.542 15.9519 99.437 16.0047 99.2796C16.065 99.1221 16.0876 98.8746 16.0876 98.5222V91.6761C16.0876 91.3312 16.0574 91.0762 16.0047 90.9187C15.9444 90.7613 15.8464 90.6563 15.6957 90.5963C15.545 90.5363 15.3039 90.4989 14.9648 90.4914V90.2139C15.8691 90.2439 17.2103 90.2514 18.9886 90.2514C20.3449 90.2514 21.3094 90.2364 21.8821 90.2139C21.8218 90.8137 21.7841 91.3612 21.7841 91.8411C21.7841 92.201 21.7992 92.486 21.8218 92.6959H21.5053C21.4375 92.096 21.3546 91.6536 21.2491 91.3612C21.1511 91.0687 20.9778 90.8588 20.7367 90.7238C20.4956 90.5888 20.1339 90.5288 19.6442 90.5288H18.4913C18.1597 90.5288 17.9111 90.5588 17.7604 90.6113C17.6097 90.6638 17.5042 90.7688 17.4514 90.9262C17.3987 91.0837 17.3685 91.3312 17.3685 91.6761V94.9305H18.2878C18.755 94.9305 19.064 94.7955 19.2147 94.518C19.3654 94.2406 19.4633 93.9632 19.501 93.6707C19.5387 93.3858 19.5613 93.1983 19.5763 93.1083H19.8928C19.8627 93.5582 19.8476 93.9931 19.8476 94.4055L19.8551 95.0654C19.8551 95.5303 19.8853 96.1827 19.938 97.0225H19.6215C19.614 96.9625 19.5839 96.7376 19.5462 96.3551C19.501 95.9727 19.3804 95.6878 19.1695 95.4928C18.9585 95.2979 18.6721 95.2004 18.2954 95.2004H17.3761V98.5147C17.3761 98.8596 17.4062 99.1146 17.459 99.2646C17.5117 99.422 17.6172 99.527 17.7679 99.5795C17.9186 99.632 18.1597 99.662 18.4988 99.662H19.516C20.0962 99.662 20.5333 99.587 20.8347 99.4296C21.1361 99.2796 21.3546 99.0321 21.4827 98.6947C21.6184 98.3573 21.7163 97.8623 21.7917 97.21H22.1081C22.078 97.4724 22.0629 97.8024 22.0629 98.2223Z" fill="#6E6E6E"/>
<path d="M34.4277 99.7074V99.9848C34.051 99.9548 33.5536 99.9473 32.9357 99.9473C32.1446 99.9473 31.5568 99.9623 31.165 99.9848V99.7074C31.5192 99.6924 31.7678 99.6549 31.9185 99.5799C32.0692 99.5049 32.1446 99.3774 32.1446 99.1975C32.1446 99.04 32.0918 98.8226 31.9788 98.5526L31.1273 96.2881H27.7817L27.2166 97.7503C27.0282 98.2152 26.9378 98.5976 26.9378 98.8826C26.9378 99.175 27.0357 99.3849 27.2317 99.5124C27.4276 99.6399 27.729 99.7074 28.1434 99.7149V99.9923C27.616 99.9623 27.081 99.9548 26.546 99.9548C26.1315 99.9548 25.7849 99.9698 25.5137 99.9923V99.7149C25.9733 99.6099 26.335 99.2125 26.6063 98.5151L29.8689 90.1543H30.095L33.4708 98.8301C33.6893 99.4 34.0058 99.6924 34.4277 99.7074ZM29.4772 91.894L27.8873 96.0106H31.0294L29.4772 91.894Z" fill="#6E6E6E"/>
<path d="M40.2155 90.6034C40.0648 90.6634 39.9592 90.7684 39.9065 90.9259C39.8462 91.0833 39.8236 91.3383 39.8236 91.6832V98.5294C39.8236 98.8743 39.8538 99.1292 39.9065 99.2792C39.9592 99.4367 40.0648 99.5416 40.2155 99.5941C40.3662 99.6466 40.6073 99.6767 40.9464 99.6767H41.9636C42.5438 99.6767 42.9809 99.5942 43.2823 99.4367C43.5837 99.2717 43.8022 99.0168 43.9303 98.6643C44.0659 98.3119 44.1638 97.787 44.2392 97.1046H44.5557C44.5256 97.3896 44.518 97.772 44.518 98.2369C44.518 98.7543 44.5481 99.3467 44.6159 99.9991C43.9905 99.9691 42.9281 99.9616 41.4437 99.9616C39.6729 99.9616 38.3317 99.9766 37.4199 99.9991V99.7216C37.7515 99.7066 37.9926 99.6691 38.1509 99.6166C38.3016 99.5567 38.407 99.4517 38.4598 99.2942C38.5201 99.1368 38.5426 98.8893 38.5426 98.5369V91.6907C38.5426 91.3458 38.5125 91.0908 38.4598 90.9334C38.407 90.7759 38.3016 90.6709 38.1509 90.6109C38.0001 90.551 37.759 90.5135 37.4199 90.506V90.2285C37.8042 90.2585 38.392 90.266 39.1907 90.266C39.9367 90.266 40.5244 90.251 40.9539 90.2285V90.506C40.6073 90.506 40.3662 90.5435 40.2155 90.6034Z" fill="#6E6E6E"/>
<path d="M47.2835 91.9839C47.2835 91.444 47.2458 90.8591 47.1855 90.2217C47.9541 90.2517 49.2577 90.2592 51.0963 90.2592C52.9273 90.2592 54.2233 90.2442 54.9919 90.2217C54.9316 90.874 54.894 91.4665 54.894 91.9839C54.894 92.4488 54.909 92.8237 54.9316 93.1161H54.6152C54.5398 92.4038 54.4494 91.8713 54.3439 91.5264C54.2309 91.1815 54.0425 90.9341 53.7637 90.7691C53.4849 90.6116 53.0629 90.5291 52.4903 90.5291H51.7367V98.38C51.7367 98.7625 51.7744 99.0399 51.8422 99.2199C51.9176 99.3998 52.0457 99.5198 52.2341 99.5873C52.4225 99.6548 52.7239 99.6923 53.1308 99.7073V99.9847C52.641 99.9547 51.9628 99.9473 51.0963 99.9473C50.1695 99.9473 49.4913 99.9622 49.0467 99.9847V99.7073C49.4536 99.6923 49.755 99.6548 49.9434 99.5873C50.1318 99.5198 50.2674 99.3998 50.3352 99.2199C50.4106 99.0399 50.4407 98.7625 50.4407 98.38V90.5366H49.6872C49.1145 90.5366 48.685 90.6191 48.4138 90.7766C48.135 90.934 47.939 91.189 47.8336 91.5339C47.7205 91.8788 47.6301 92.4037 47.5623 93.1236H47.2458C47.2684 92.8237 47.2835 92.4488 47.2835 91.9839Z" fill="#6E6E6E"/>
<path d="M67.3417 90.6041C67.191 90.6641 67.0855 90.7691 67.0328 90.9265C66.9725 91.084 66.9499 91.339 66.9499 91.6839V98.53C66.9499 98.875 66.98 99.1299 67.0328 99.2874C67.0855 99.4449 67.191 99.5498 67.3417 99.6098C67.4924 99.6698 67.7335 99.7073 68.0726 99.7148V99.9922C67.6883 99.9622 67.1006 99.9548 66.3019 99.9548C65.5634 99.9548 64.9757 99.9697 64.5386 99.9922V99.7148C64.8702 99.6998 65.1113 99.6623 65.2696 99.6098C65.4203 99.5498 65.5258 99.4449 65.5785 99.2874C65.6388 99.1299 65.6614 98.8825 65.6614 98.53V95.2157H61.1554V98.53C61.1554 98.875 61.1855 99.1299 61.2383 99.2874C61.2985 99.4449 61.3965 99.5498 61.5472 99.6098C61.6979 99.6698 61.939 99.7073 62.2781 99.7148V99.9922C61.8561 99.9622 61.2684 99.9548 60.5149 99.9548C59.7237 99.9548 59.1284 99.9697 58.7441 99.9922V99.7148C59.0757 99.6998 59.3244 99.6623 59.4751 99.6098C59.6258 99.5498 59.7312 99.4449 59.784 99.2874C59.8443 99.1299 59.8669 98.8825 59.8669 98.53V91.6839C59.8669 91.339 59.8367 91.084 59.784 90.9265C59.7237 90.7691 59.6258 90.6641 59.4751 90.6041C59.3244 90.5441 59.0832 90.5066 58.7441 90.4991V90.2217C59.1284 90.2517 59.7162 90.2592 60.5149 90.2592C61.2609 90.2592 61.8486 90.2442 62.2781 90.2217V90.4991C61.9466 90.5141 61.6979 90.5516 61.5472 90.6041C61.3965 90.6641 61.291 90.7691 61.2383 90.9265C61.1855 91.084 61.1554 91.339 61.1554 91.6839V94.9383H65.6614V91.6839C65.6614 91.339 65.6312 91.084 65.5785 90.9265C65.5258 90.7691 65.4203 90.6641 65.2696 90.6041C65.1189 90.5441 64.8777 90.5066 64.5386 90.4991V90.2217C64.9757 90.2517 65.5559 90.2592 66.3019 90.2592C67.0931 90.2592 67.6883 90.2442 68.0726 90.2217V90.4991C67.7411 90.5066 67.4924 90.5441 67.3417 90.6041Z" fill="#6E6E6E"/>
<path d="M78.547 90.2585C78.9615 90.2585 79.3081 90.2435 79.5793 90.221V90.4985C79.391 90.536 79.2101 90.6559 79.0368 90.8434C78.8635 91.0309 78.6751 91.3308 78.4717 91.7207L76.3016 96.0099V98.5219C76.3016 98.8668 76.3317 99.1218 76.3845 99.2792C76.4447 99.4367 76.5427 99.5417 76.6934 99.6016C76.8441 99.6616 77.0852 99.6991 77.4243 99.7066V99.9841C76.9948 99.9541 76.407 99.9466 75.6611 99.9466C74.8699 99.9466 74.2746 99.9616 73.8828 99.9841V99.7066C74.2143 99.6916 74.4554 99.6541 74.6137 99.6016C74.7644 99.5417 74.8699 99.4367 74.9226 99.2792C74.9754 99.1218 75.0055 98.8743 75.0055 98.5219V96.4373L72.1949 91.2783C72.0216 90.9709 71.8784 90.7609 71.7503 90.6559C71.6298 90.551 71.5017 90.4985 71.3887 90.4985V90.2061C71.7504 90.236 72.1572 90.2435 72.6094 90.2435C73.506 90.2435 74.1541 90.2286 74.5534 90.2061V90.4985C73.9054 90.4985 73.5814 90.6784 73.5814 91.0309C73.5814 91.1658 73.6266 91.3233 73.7245 91.5108L76.0303 95.9124L77.7935 92.4106C78.0497 91.9007 78.1703 91.5108 78.1703 91.2258C78.1703 90.9634 78.0723 90.7834 77.8689 90.671C77.6654 90.5585 77.3565 90.4985 76.9496 90.491V90.2135C77.477 90.2435 78.012 90.2585 78.547 90.2585Z" fill="#6E6E6E"/>
<path d="M91.5592 90.6034C91.4085 90.6634 91.303 90.7684 91.2503 90.9259C91.1975 91.0833 91.1674 91.3383 91.1674 91.6832V98.5294C91.1674 98.8743 91.1975 99.1292 91.2503 99.2792C91.3105 99.4367 91.4085 99.5416 91.5592 99.5941C91.7099 99.6466 91.951 99.6767 92.2901 99.6767H93.3073C93.8875 99.6767 94.3246 99.5942 94.626 99.4367C94.9274 99.2717 95.1459 99.0168 95.274 98.6643C95.4097 98.3119 95.5076 97.787 95.5829 97.1046H95.8994C95.8693 97.3896 95.8617 97.772 95.8617 98.2369C95.8617 98.7543 95.8919 99.3467 95.9597 99.9991C95.3343 99.9691 94.2718 99.9616 92.7874 99.9616C91.0166 99.9616 89.6754 99.9766 88.7637 99.9991V99.7216C89.0952 99.7066 89.3439 99.6691 89.4946 99.6166C89.6453 99.5567 89.7508 99.4517 89.8035 99.2942C89.8638 99.1368 89.8864 98.8893 89.8864 98.5369V91.6907C89.8864 91.3458 89.8563 91.0908 89.8035 90.9334C89.7432 90.7759 89.6453 90.6709 89.4946 90.6109C89.3439 90.551 89.1028 90.5135 88.7637 90.506V90.2285C89.148 90.2585 89.7357 90.266 90.5344 90.266C91.2804 90.266 91.8681 90.251 92.2976 90.2285V90.506C91.951 90.506 91.7099 90.5435 91.5592 90.6034Z" fill="#6E6E6E"/>
<path d="M102.477 90.6041C102.326 90.6641 102.221 90.7691 102.168 90.9265C102.115 91.084 102.085 91.339 102.085 91.6839V98.53C102.085 98.875 102.115 99.1299 102.168 99.2874C102.228 99.4449 102.326 99.5498 102.477 99.6098C102.628 99.6698 102.869 99.7073 103.208 99.7148V99.9922C102.786 99.9622 102.198 99.9548 101.445 99.9548C100.653 99.9548 100.058 99.9697 99.6738 99.9922V99.7148C100.005 99.6998 100.254 99.6623 100.405 99.6098C100.555 99.5498 100.661 99.4449 100.714 99.2874C100.774 99.1299 100.797 98.8825 100.797 98.53V91.6839C100.797 91.339 100.766 91.084 100.714 90.9265C100.661 90.7691 100.555 90.6641 100.405 90.6041C100.254 90.5441 100.013 90.5066 99.6738 90.4991V90.2217C100.058 90.2517 100.646 90.2592 101.445 90.2592C102.191 90.2592 102.778 90.2442 103.208 90.2217V90.4991C102.869 90.5066 102.628 90.5441 102.477 90.6041Z" fill="#6E6E6E"/>
<path d="M111.167 90.2592C112.523 90.2592 113.487 90.2442 114.06 90.2217C114 90.8741 113.962 91.4665 113.962 91.9839C113.962 92.4488 113.977 92.8237 114 93.1161H113.683C113.608 92.4038 113.518 91.8714 113.405 91.5264C113.292 91.1815 113.096 90.9341 112.817 90.7691C112.538 90.6116 112.116 90.5292 111.543 90.5292H110.669C110.338 90.5292 110.089 90.5591 109.938 90.6116C109.788 90.6641 109.682 90.7691 109.629 90.9266C109.577 91.084 109.547 91.3315 109.547 91.6764V95.0732H110.564C111.031 95.0732 111.34 94.9383 111.491 94.6608C111.641 94.3834 111.739 94.1059 111.777 93.8135C111.815 93.5211 111.837 93.3411 111.852 93.2511H112.169C112.139 93.701 112.124 94.1359 112.124 94.5483L112.131 95.2007C112.131 95.6881 112.161 96.3405 112.222 97.1578H111.898C111.89 97.0978 111.86 96.8729 111.822 96.4905C111.777 96.108 111.656 95.8231 111.445 95.6281C111.234 95.4332 110.948 95.3357 110.571 95.3357H109.554V98.5076C109.554 98.8525 109.592 99.1074 109.66 99.2649C109.735 99.4223 109.863 99.5273 110.051 99.5873C110.24 99.6473 110.541 99.6848 110.956 99.6923V99.9697C110.473 99.9397 109.795 99.9323 108.921 99.9323C108.13 99.9323 107.535 99.9472 107.15 99.9697V99.6923C107.482 99.6773 107.731 99.6398 107.881 99.5873C108.032 99.5273 108.137 99.4223 108.19 99.2649C108.251 99.1074 108.273 98.86 108.273 98.5076V91.6614C108.273 91.3165 108.243 91.0615 108.19 90.9041C108.137 90.7466 108.032 90.6416 107.881 90.5816C107.731 90.5217 107.489 90.4842 107.15 90.4767V90.1992C108.055 90.2442 109.396 90.2592 111.167 90.2592Z" fill="#6E6E6E"/>
<path d="M124.903 98.2223C124.903 98.7397 124.933 99.3321 125.001 99.9844C124.375 99.9544 123.313 99.9469 121.828 99.9469C120.058 99.9469 118.716 99.9619 117.805 99.9844V99.707C118.136 99.692 118.385 99.6545 118.536 99.602C118.686 99.542 118.792 99.437 118.845 99.2796C118.905 99.1221 118.927 98.8746 118.927 98.5222V91.6761C118.927 91.3312 118.897 91.0762 118.845 90.9187C118.792 90.7613 118.686 90.6563 118.536 90.5963C118.385 90.5363 118.144 90.4989 117.805 90.4914V90.2139C118.709 90.2439 120.05 90.2514 121.828 90.2514C123.185 90.2514 124.149 90.2364 124.722 90.2139C124.662 90.8137 124.624 91.3612 124.624 91.8411C124.624 92.201 124.639 92.486 124.662 92.6959H124.345C124.277 92.096 124.194 91.6536 124.089 91.3612C123.991 91.0687 123.818 90.8588 123.577 90.7238C123.335 90.5888 122.974 90.5288 122.484 90.5288H121.331C121 90.5288 120.751 90.5588 120.6 90.6113C120.45 90.6638 120.344 90.7688 120.291 90.9262C120.231 91.0837 120.208 91.3312 120.208 91.6761V94.9305H121.128C121.595 94.9305 121.904 94.7955 122.055 94.518C122.205 94.2406 122.303 93.9632 122.341 93.6707C122.379 93.3858 122.401 93.1983 122.416 93.1083H122.733C122.703 93.5582 122.687 93.9931 122.687 94.4055L122.695 95.0654C122.695 95.5303 122.725 96.1827 122.778 97.0225H122.461C122.454 96.9625 122.424 96.7376 122.386 96.3551C122.341 95.9727 122.22 95.6878 122.009 95.4928C121.798 95.2979 121.512 95.2004 121.135 95.2004H120.216V98.5147C120.216 98.8596 120.246 99.1146 120.299 99.2646C120.352 99.422 120.457 99.527 120.608 99.5795C120.758 99.632 121 99.662 121.339 99.662H122.356C122.936 99.662 123.373 99.587 123.675 99.4296C123.976 99.2796 124.194 99.0321 124.323 98.6947C124.458 98.3573 124.556 97.8623 124.632 97.21H124.948C124.918 97.4724 124.903 97.8024 124.903 98.2223Z" fill="#6E6E6E"/>
<path d="M36.2898 77.8336C35.785 77.8336 35.2952 77.6086 34.9712 77.2112C34.5793 76.7313 34.4814 76.0714 34.7225 75.5015C35.363 73.9643 41.0445 60.3996 44.4579 56.6353C44.8271 56.2304 45.2114 55.8555 45.6183 55.5181C45.2114 55.1806 44.8196 54.8057 44.4579 54.4008C41.0445 50.6366 35.363 37.0642 34.7225 35.5346C34.4814 34.9572 34.5794 34.2973 34.9787 33.8174C35.3781 33.3375 36.011 33.105 36.6214 33.2325C37.3523 33.375 43.7496 34.6347 44.5634 34.8222C48.5118 35.752 53.4322 36.9068 56.8079 40.3636C56.936 40.4911 57.0566 40.6186 57.1772 40.7535C59.7693 43.603 61.4119 47.4647 61.7962 51.6263C62.3689 57.7376 61.3592 64.0664 59.0986 68.558C56.6799 73.372 52.3396 74.3768 48.1425 75.3516C47.5397 75.4941 46.9219 75.6365 46.3115 75.7865C43.1317 76.5888 36.87 77.7586 36.6063 77.8111C36.4933 77.8261 36.3878 77.8336 36.2898 77.8336ZM39.1155 37.1692C41.2931 42.1407 44.9024 49.8492 46.9746 52.1287C47.7055 52.9386 48.5495 53.5535 49.4838 53.9659C50.1017 54.2358 50.4935 54.8432 50.4935 55.5106C50.4935 56.1779 50.0942 56.7853 49.4838 57.0553C48.557 57.4677 47.713 58.0826 46.9746 58.8924C44.9024 61.1794 41.2856 68.8954 39.1079 73.8669C41.1801 73.4545 43.8023 72.9146 45.4676 72.4947C46.1081 72.3297 46.7486 72.1872 47.3664 72.0372C51.2696 71.1299 54.3439 70.4176 56.0544 67.0282C58.0437 63.0765 58.9178 57.4302 58.4054 51.9263C58.0889 48.5369 56.7175 45.2901 54.6529 43.0181C54.5549 42.9131 54.4645 42.8081 54.3666 42.7106C51.6841 39.9587 47.487 38.9764 43.7797 38.1065C43.3804 38.0166 41.1801 37.5741 39.1155 37.1692Z" fill="#C28565"/>
<path d="M90.4139 77.8345C90.3084 77.8345 90.2029 77.827 90.0974 77.8045C89.8337 77.752 83.572 76.5897 80.3922 75.7799C79.7894 75.6299 79.1639 75.4799 78.5611 75.345C74.3641 74.3702 70.0238 73.3654 67.605 68.5513C65.3445 64.0597 64.3348 57.731 64.9075 51.6197C65.2993 47.458 66.9344 43.5963 69.5265 40.7469C69.6471 40.6119 69.7677 40.4844 69.8957 40.357C73.2715 36.8927 78.1844 35.7454 82.1403 34.8156C82.9466 34.6281 89.3514 33.3683 90.0748 33.2259C90.6926 33.1059 91.3256 33.3309 91.7174 33.8108C92.1168 34.2907 92.2148 34.9505 91.9736 35.5279C91.3331 37.0651 85.6516 50.6374 82.2382 54.3942C81.869 54.7991 81.4847 55.174 81.0778 55.5114C81.4847 55.8489 81.8765 56.2238 82.2382 56.6287C85.6516 60.393 91.3331 73.9653 91.9736 75.4949C92.2148 76.0723 92.1168 76.7247 91.725 77.2046C91.4085 77.6095 90.9187 77.8345 90.4139 77.8345ZM72.0508 43.0264C69.9786 45.2985 68.6147 48.5453 68.2983 51.9346C67.7859 57.4385 68.6675 63.0849 70.6493 67.0366C72.3522 70.4259 75.434 71.1458 79.3372 72.0456C79.9551 72.1881 80.5956 72.338 81.2361 72.503C82.9014 72.9229 85.5311 73.4628 87.5957 73.8752C85.4181 68.9037 81.8012 61.1878 79.7291 58.9008C78.9982 58.0909 78.1542 57.476 77.2199 57.0636C76.602 56.7937 76.2101 56.1863 76.2101 55.5189C76.2101 54.8516 76.6095 54.2442 77.2199 53.9743C78.1467 53.5618 78.9906 52.947 79.7291 52.1371C81.8012 49.8501 85.4105 42.1491 87.5882 37.1776C85.516 37.59 83.3233 38.0249 82.9239 38.1224C79.2167 38.9922 75.0196 39.9746 72.3371 42.7265C72.2467 42.8165 72.1487 42.9214 72.0508 43.0264Z" fill="#C28565"/>
<path d="M63.3492 39.5472C59.5967 39.5472 56.5449 36.5103 56.5449 32.776C56.5449 29.0418 59.5967 26.0049 63.3492 26.0049C67.1016 26.0049 70.1533 29.0418 70.1533 32.776C70.1609 36.5103 67.1016 39.5472 63.3492 39.5472ZM63.3492 29.3867C61.4729 29.3867 59.9433 30.9089 59.9433 32.776C59.9433 34.6431 61.4729 36.1653 63.3492 36.1653C65.2254 36.1653 66.755 34.6431 66.755 32.776C66.755 30.9089 65.2254 29.3867 63.3492 29.3867Z" fill="#C28565"/>
<path d="M29.4547 57.2057H1.70294C0.761054 57.2057 0 56.4484 0 55.5111C0 54.5738 0.761054 53.8164 1.70294 53.8164H29.4547C30.3966 53.8164 31.1577 54.5738 31.1577 55.5111C31.1577 56.4484 30.3966 57.2057 29.4547 57.2057Z" fill="#F4E4DC"/>
<path d="M123.297 57.2057H95.5447C94.6029 57.2057 93.8418 56.4484 93.8418 55.5111C93.8418 54.5738 94.6029 53.8164 95.5447 53.8164H123.297C124.238 53.8164 124.999 54.5738 124.999 55.5111C124.999 56.4484 124.238 57.2057 123.297 57.2057Z" fill="#F4E4DC"/>
</svg>
