<svg width="90" height="100" viewBox="0 0 90 100" fill="none" xmlns="http://www.w3.org/2000/svg">
<path d="M45 99.9993C32.9824 99.9993 21.6789 95.2022 13.1817 86.4845C4.68442 77.7726 0 66.1836 0 53.8623C0 41.541 4.6788 29.952 13.1817 21.24C13.7047 20.7038 14.5595 20.7038 15.0825 21.24C15.6054 21.7763 15.6054 22.6526 15.0825 23.1889C7.09132 31.3819 2.68806 42.2733 2.68806 53.8623C2.68806 65.4513 7.09132 76.3427 15.0825 84.5357C23.0736 92.7288 33.6966 97.2433 45 97.2433C56.3034 97.2433 66.9264 92.7288 74.9175 84.5357C82.9086 76.3427 87.3119 65.4513 87.3119 53.8623C87.3119 42.2733 82.9086 31.3819 74.9175 23.1889C74.3945 22.6526 74.3945 21.7763 74.9175 21.24C75.4405 20.7038 76.2953 20.7038 76.8183 21.24C85.3155 29.952 90 41.541 90 53.8623C90 66.1836 85.3212 77.7726 76.8183 86.4845C68.321 95.2022 57.0176 99.9993 45 99.9993Z" fill="#E4B5B1"/>
<path d="M38.8539 15.0312C36.4526 12.5692 25.2448 9.34616 23.0235 8.72923C22.5567 8.59662 22.0619 8.73503 21.7188 9.08674C21.3758 9.43844 21.2465 9.94579 21.3702 10.4243C21.9775 12.7018 25.1155 24.1928 27.5168 26.6548C28.8552 28.027 31.0933 29.0879 33.3596 29.428C33.8883 29.5088 34.4 29.5434 34.9005 29.5434C36.9194 29.5434 38.6402 28.8976 39.838 27.6695C41.3339 26.1359 41.9413 23.7777 41.5532 21.0274C41.2271 18.6981 40.1923 16.4034 38.8539 15.0312ZM33.7533 26.6951C32.0606 26.4414 30.3623 25.6631 29.4288 24.7002C28.7146 23.9679 26.8475 19.9204 24.6206 12.0503C32.3024 14.3335 36.2502 16.2535 36.9588 16.98C38.4603 18.5194 39.5456 22.1633 38.6796 24.5157L33.0785 18.7731C32.5555 18.2369 31.7007 18.2369 31.1777 18.7731C30.6547 19.3093 30.6547 20.1857 31.1777 20.7219L36.7732 26.4587C35.9409 26.7816 34.9005 26.8623 33.7533 26.6951Z" fill="#BFA674"/>
<path d="M68.2766 9.08626C67.9335 8.73455 67.4387 8.60191 66.9719 8.72875C64.7506 9.35145 53.5427 12.5687 51.1415 15.0307C49.803 16.4029 48.7683 18.6976 48.4365 21.0212C48.0485 23.7714 48.6559 26.1296 50.1517 27.6633C51.3496 28.8914 53.0704 29.5371 55.0892 29.5371C55.5841 29.5371 56.1015 29.4968 56.6301 29.4218C58.8964 29.0874 61.1346 28.0265 62.473 26.6485C64.8743 24.1866 68.0179 12.6956 68.6196 10.4181C68.749 9.94534 68.6196 9.4322 68.2766 9.08626ZM60.5722 24.6997C59.6387 25.6568 57.9404 26.441 56.2477 26.6946C55.0949 26.8676 54.0545 26.7811 53.2278 26.464L58.8233 20.7272C59.3463 20.191 59.3463 19.3146 58.8233 18.7784C58.3003 18.2422 57.4455 18.2422 56.9225 18.7784L51.3214 24.521C50.4554 22.1686 51.5407 18.5189 53.0422 16.9852C53.7564 16.253 57.7042 14.3388 65.3804 12.0556C63.1591 19.92 61.2864 23.9732 60.5722 24.6997Z" fill="#BFA674"/>
<path d="M51.9577 7.13215C51.9577 3.19995 48.8366 0 45.0013 0C41.166 0 38.0449 3.19995 38.0449 7.13215C38.0449 11.0643 41.166 14.2643 45.0013 14.2643C48.8366 14.2643 51.9577 11.0643 51.9577 7.13215ZM45.0013 11.5083C42.645 11.5083 40.733 9.54797 40.733 7.13215C40.733 4.71633 42.6506 2.75598 45.0013 2.75598C47.3576 2.75598 49.2696 4.72209 49.2696 7.13215C49.2696 9.5422 47.352 11.5083 45.0013 11.5083Z" fill="#BFA674"/>
<path d="M16.0158 71.9848C15.4928 71.4197 15.2285 70.6702 15.2285 69.7419C15.2285 68.8136 15.4928 68.0699 16.0158 67.4991C16.5388 66.9341 17.2193 66.6458 18.0572 66.6458C18.7601 66.6458 19.3337 66.813 19.7724 67.1474C20.2167 67.4818 20.526 67.9603 20.7003 68.5773H19.6599C19.5474 68.2256 19.3506 67.9546 19.0751 67.7585C18.7995 67.5625 18.4565 67.4645 18.0516 67.4645C17.5005 67.4645 17.0562 67.6605 16.7188 68.0584C16.3814 68.4562 16.2126 69.0155 16.2126 69.7362C16.2126 70.4569 16.3814 71.0219 16.7188 71.414C17.0562 71.8118 17.5005 72.0078 18.0516 72.0078C18.8782 72.0078 19.4181 71.6388 19.6599 70.8951H20.7003C20.5203 71.4832 20.211 71.9502 19.7611 72.3019C19.3112 72.6536 18.7433 72.8266 18.0572 72.8266C17.2193 72.8381 16.5388 72.5498 16.0158 71.9848Z" fill="#BFA674"/>
<path d="M29.7545 72.8391C28.9166 72.8391 28.2361 72.5566 27.7131 71.9858C27.1901 71.4207 26.9258 70.6712 26.9258 69.7372C26.9258 68.8089 27.1901 68.0593 27.7244 67.4943C28.2586 66.9293 28.9447 66.6467 29.7938 66.6467C30.643 66.6467 31.3235 66.912 31.8352 67.4482C32.347 67.9844 32.6056 68.6647 32.6056 69.495C32.6056 69.7083 32.5888 69.9044 32.5606 70.0831H27.9155C27.9437 70.677 28.1236 71.1497 28.461 71.4957C28.7985 71.8416 29.2258 72.0146 29.7545 72.0146C30.1537 72.0146 30.4855 71.9223 30.7611 71.7436C31.031 71.5649 31.2335 71.3227 31.3628 71.0229H32.4032C32.2176 71.5476 31.9027 71.98 31.4528 72.3202C31.0029 72.6661 30.4349 72.8391 29.7545 72.8391ZM31.0648 67.9901C30.7161 67.6442 30.2887 67.4712 29.7713 67.4712C29.2596 67.4712 28.8322 67.6384 28.4892 67.9786C28.1461 68.3188 27.9605 68.78 27.9268 69.3681H31.5934C31.5878 68.7973 31.4078 68.3361 31.0648 67.9901Z" fill="#BFA674"/>
<path d="M40.0901 66.7496V67.7183C40.4893 67.0033 41.1192 66.6516 41.9965 66.6516C42.6432 66.6516 43.183 66.8707 43.6104 67.3089C44.0435 67.7471 44.2571 68.3756 44.2571 69.1885V72.7344H43.3011V69.3557C43.3011 68.7503 43.1605 68.2948 42.8737 67.9835C42.5926 67.6721 42.1989 67.5165 41.6984 67.5165C41.1979 67.5165 40.8043 67.6721 40.5175 67.9835C40.2307 68.2948 40.0844 68.7561 40.0844 69.3557V72.7344H39.1172V66.7496H40.0901Z" fill="#BFA674"/>
<path d="M53.03 71.933H53.8286V72.7401H52.8501C51.8378 72.7401 51.3317 72.227 51.3317 71.2007V67.5568H50.5781V66.7496H51.3317V65.2678H52.3102V66.7496H53.823V67.5568H52.3102V71.2007C52.3102 71.4717 52.3608 71.6562 52.4677 71.7657C52.5745 71.8753 52.7657 71.933 53.03 71.933Z" fill="#BFA674"/>
<path d="M62.6588 72.8391C61.8208 72.8391 61.1404 72.5566 60.6174 71.9858C60.0944 71.4207 59.8301 70.6712 59.8301 69.7372C59.8301 68.8089 60.0944 68.0593 60.6287 67.4943C61.1629 66.9293 61.849 66.6467 62.6981 66.6467C63.5473 66.6467 64.2278 66.912 64.7395 67.4482C65.2512 67.9844 65.5099 68.6647 65.5099 69.495C65.5099 69.7083 65.493 69.9044 65.4649 70.0831H60.8198C60.848 70.677 61.0279 71.1497 61.3653 71.4957C61.7028 71.8416 62.1301 72.0146 62.6588 72.0146C63.058 72.0146 63.3898 71.9223 63.6654 71.7436C63.9409 71.5649 64.1378 71.3227 64.2671 71.0229H65.3075C65.1219 71.5476 64.807 71.98 64.3571 72.3202C63.9016 72.6661 63.3392 72.8391 62.6588 72.8391ZM63.9634 67.9901C63.6148 67.6442 63.1874 67.4712 62.67 67.4712C62.1582 67.4712 61.7309 67.6384 61.3878 67.9786C61.0504 68.3188 60.8592 68.78 60.8255 69.3681H64.4921C64.4921 68.7973 64.3121 68.3361 63.9634 67.9901Z" fill="#BFA674"/>
<path d="M72.9949 66.7496V67.7644C73.3435 67.0206 73.934 66.6516 74.7719 66.6516V67.6894H74.5188C74.0239 67.6894 73.6472 67.822 73.3885 68.0873C73.1298 68.3525 73.0005 68.8137 73.0005 69.4653V72.7344H72.0332V66.7496H72.9949Z" fill="#BFA674"/>
<path d="M21.5776 43.9289C20.8409 43.9289 20.2391 44.1249 19.7724 44.5112C19.3056 44.8975 19.0751 45.4337 19.0751 46.1198C19.0751 46.806 19.2438 47.3422 19.5868 47.7285C19.9298 48.1148 20.3797 48.4146 20.9421 48.6221C21.5045 48.8297 22.1174 49.0142 22.7866 49.1756C23.4558 49.3371 24.1194 49.5331 24.7886 49.7695C25.4578 50.0059 26.0708 50.2942 26.6332 50.6344C27.1955 50.9746 27.6454 51.4762 27.9885 52.1334C28.3315 52.7907 28.5002 53.5864 28.5002 54.5204C28.5002 56.0714 27.8985 57.4033 26.695 58.5161C25.4916 59.6346 23.8945 60.1881 21.9037 60.1881C19.913 60.1881 18.299 59.7096 17.0731 58.7409C15.8415 57.7781 15.2285 56.4231 15.2285 54.6761H19.1763C19.3169 56.3308 20.2391 57.1611 21.9431 57.1611C22.7866 57.1611 23.4502 56.9362 23.9451 56.4865C24.4343 56.0368 24.6818 55.4372 24.6818 54.6934C24.6818 53.9439 24.3556 53.3558 23.7089 52.9233C23.0566 52.4909 22.2749 52.168 21.3526 51.9489C20.4303 51.7356 19.5025 51.4704 18.5746 51.1648C17.641 50.8592 16.8537 50.323 16.207 49.5562C15.5547 48.7894 15.2341 47.7804 15.2341 46.5177C15.2341 44.8053 15.8415 43.4388 17.0506 42.4125C18.2596 41.3862 19.8174 40.873 21.7238 40.873C23.6302 40.873 25.1598 41.317 26.3183 42.2107C27.4767 43.1044 28.1066 44.4536 28.2134 46.2755H24.1588C24.0857 45.5548 23.827 44.984 23.3715 44.5631C22.9104 44.1364 22.3143 43.9289 21.5776 43.9289Z" fill="#272525"/>
<path d="M49.3306 50.5426C48.8582 51.1365 48.1665 51.6093 47.2611 51.961C46.3557 52.3127 45.2985 52.4856 44.0894 52.4856H41.0358V59.9925H37.3242V41.1445H44.0894C46.2151 41.1445 47.8516 41.6865 48.9988 42.7762C50.146 43.8659 50.7252 45.1459 50.7252 46.6219C50.7252 48.1037 50.2641 49.4067 49.3306 50.5426ZM41.0358 49.5682H44.0894C45.0173 49.5682 45.7315 49.3203 46.2207 48.8244C46.71 48.3286 46.9574 47.6598 46.9574 46.8122C46.9574 45.9647 46.71 45.2958 46.2207 44.8C45.7315 44.3041 45.0173 44.0562 44.0894 44.0562H41.0358V49.5682Z" fill="#272525"/>
<path d="M70.8457 59.9917L69.6591 56.4574H62.4946L61.3081 59.9917H57.3828L63.8893 41.0918H68.287L74.7653 59.9917H70.8457ZM63.4732 53.5399H68.7143L66.0825 45.6813L63.4732 53.5399Z" fill="#272525"/>
</svg>
