<svg width="46" height="46" viewBox="0 0 46 46" fill="none" xmlns="http://www.w3.org/2000/svg">
<rect x="0.5" y="0.5" width="44" height="45" rx="22" fill="white" stroke="#E0E0E0"/>
<path d="M16.5 15C16.75 15.0208 16.9167 15.1458 17 15.375L17.125 16H30.9375C31.2708 16.0208 31.5312 16.1562 31.7188 16.4062C31.9062 16.6562 31.9688 16.9479 31.9062 17.2812L30.2188 23.2812C30.0521 23.7396 29.7292 23.9792 29.25 24H18.9375L19.4062 26H29.5C29.8125 26.0208 29.9792 26.1875 30 26.5C29.9792 26.8125 29.8125 26.9792 29.5 27H19C18.75 26.9792 18.5833 26.8542 18.5 26.625L16.0938 16H14.5C14.1875 15.9792 14.0208 15.8125 14 15.5C14.0208 15.1875 14.1875 15.0208 14.5 15H16.5ZM17.3438 17L18.6875 23H29.25L30.9375 17H17.3438ZM18 29.25C18.0208 28.75 18.1875 28.3333 18.5 28C18.8333 27.6875 19.25 27.5208 19.75 27.5C20.25 27.5208 20.6667 27.6875 21 28C21.3125 28.3333 21.4792 28.75 21.5 29.25C21.4792 29.75 21.3125 30.1667 21 30.5C20.6667 30.8125 20.25 30.9792 19.75 31C19.25 30.9792 18.8333 30.8125 18.5 30.5C18.1875 30.1667 18.0208 29.75 18 29.25ZM19.75 30C20.2083 29.9583 20.4583 29.7083 20.5 29.25C20.4583 28.7917 20.2083 28.5417 19.75 28.5C19.2917 28.5417 19.0417 28.7917 19 29.25C19.0417 29.7083 19.2917 29.9583 19.75 30ZM30 29.25C29.9792 29.75 29.8125 30.1667 29.5 30.5C29.1667 30.8125 28.75 30.9792 28.25 31C27.75 30.9792 27.3333 30.8125 27 30.5C26.6875 30.1667 26.5208 29.75 26.5 29.25C26.5208 28.75 26.6875 28.3333 27 28C27.3333 27.6875 27.75 27.5208 28.25 27.5C28.75 27.5208 29.1667 27.6875 29.5 28C29.8125 28.3333 29.9792 28.75 30 29.25ZM28.25 28.5C27.7917 28.5417 27.5417 28.7917 27.5 29.25C27.5417 29.7083 27.7917 29.9583 28.25 30C28.7083 29.9583 28.9583 29.7083 29 29.25C28.9583 28.7917 28.7083 28.5417 28.25 28.5Z" fill="#6E6E6E"/>
<rect x="29" width="17" height="17" rx="8.5" fill="#C28565"/>
<path d="M37.212 13.144C36.452 13.144 35.796 12.964 35.244 12.604C34.7 12.236 34.28 11.728 33.984 11.08C33.696 10.424 33.552 9.664 33.552 8.8C33.552 7.936 33.696 7.18 33.984 6.532C34.28 5.876 34.7 5.368 35.244 5.008C35.796 4.64 36.452 4.456 37.212 4.456C37.972 4.456 38.624 4.64 39.168 5.008C39.712 5.368 40.128 5.876 40.416 6.532C40.712 7.18 40.86 7.936 40.86 8.8C40.86 9.664 40.712 10.424 40.416 11.08C40.128 11.728 39.712 12.236 39.168 12.604C38.624 12.964 37.972 13.144 37.212 13.144ZM37.212 12.004C37.668 12.004 38.072 11.876 38.424 11.62C38.784 11.364 39.064 10.996 39.264 10.516C39.464 10.036 39.564 9.464 39.564 8.8C39.564 8.136 39.464 7.564 39.264 7.084C39.064 6.604 38.784 6.236 38.424 5.98C38.072 5.724 37.668 5.596 37.212 5.596C36.748 5.596 36.34 5.724 35.988 5.98C35.636 6.236 35.36 6.604 35.16 7.084C34.96 7.564 34.86 8.136 34.86 8.8C34.86 9.464 34.96 10.036 35.16 10.516C35.36 10.996 35.636 11.364 35.988 11.62C36.34 11.876 36.748 12.004 37.212 12.004Z" fill="white"/>
</svg>
