<svg width="70" height="70" viewBox="0 0 70 70" fill="none" xmlns="http://www.w3.org/2000/svg">
<path d="M28.5882 14.2702L27.4271 21.0385C27.3947 21.2279 27.416 21.4226 27.4884 21.6007C27.5609 21.7787 27.6817 21.9328 27.8372 22.0458C27.9928 22.1587 28.1768 22.2259 28.3685 22.2398C28.5602 22.2536 28.7519 22.2136 28.922 22.1242L35.0002 18.9288L41.0778 22.1242C41.2479 22.2136 41.4397 22.2536 41.6314 22.2398C41.8231 22.2259 42.0071 22.1587 42.1626 22.0458C42.3181 21.9328 42.4389 21.7787 42.5114 21.6007C42.5839 21.4226 42.6051 21.2279 42.5727 21.0385L41.4122 14.2702L46.3299 9.47741C46.4675 9.34313 46.5648 9.17303 46.6109 8.98634C46.6569 8.79965 46.6499 8.6038 46.5905 8.42092C46.5311 8.23803 46.4217 8.07541 46.2747 7.95142C46.1277 7.82743 45.949 7.74701 45.7587 7.71926L38.9628 6.73243L35.924 0.574777C35.8391 0.402274 35.7075 0.257006 35.5442 0.155423C35.381 0.0538398 35.1925 0 35.0002 0C34.8079 0 34.6195 0.0538398 34.4562 0.155423C34.2929 0.257006 34.1614 0.402274 34.0764 0.574777L31.037 6.73243L24.2417 7.71926C24.0514 7.74689 23.8727 7.82721 23.7256 7.95114C23.5786 8.07506 23.4692 8.23765 23.4098 8.42051C23.3504 8.60338 23.3433 8.79922 23.3894 8.98589C23.4355 9.17256 23.5329 9.34261 23.6706 9.47682L28.5882 14.2702ZM31.8696 8.69372C32.0348 8.66956 32.1916 8.60566 32.3267 8.50752C32.4618 8.40937 32.571 8.2799 32.645 8.13024L35.0002 3.36097L37.3554 8.13024C37.4294 8.2799 37.5386 8.40937 37.6737 8.50752C37.8088 8.60566 37.9656 8.66956 38.1309 8.69372L43.3971 9.45916L39.5864 13.1727C39.467 13.2895 39.3779 13.4335 39.3266 13.5924C39.2753 13.7513 39.2634 13.9203 39.292 14.0848L40.1911 19.3286L35.4807 16.8556C35.3328 16.7779 35.1682 16.7373 35.0011 16.7373C34.834 16.7373 34.6694 16.7779 34.5215 16.8556L29.8111 19.3286L30.7108 14.0848C30.7392 13.9203 30.7272 13.7513 30.676 13.5925C30.6247 13.4336 30.5356 13.2896 30.4164 13.1727L26.6063 9.45916L31.8696 8.69372Z" fill="#AB6A49"/>
<path d="M69.949 10.8C69.8896 10.6172 69.7803 10.4547 69.6334 10.3308C69.4864 10.2069 69.3078 10.1265 69.1177 10.0987L63.7207 9.31443L61.3067 4.42741C61.2214 4.25511 61.0898 4.11007 60.9265 4.00866C60.7632 3.90725 60.5748 3.85352 60.3825 3.85352C60.1903 3.85352 60.0019 3.90725 59.8386 4.00866C59.6753 4.11007 59.5436 4.25511 59.4584 4.42741L57.0444 9.31738L51.6474 10.1017C51.4572 10.1294 51.2785 10.2098 51.1316 10.3337C50.9846 10.4577 50.8753 10.6203 50.816 10.8031C50.7566 10.986 50.7496 11.1818 50.7957 11.3684C50.8418 11.555 50.9392 11.7251 51.0769 11.8592L54.9818 15.6658L54.0603 21.0409C54.0279 21.2304 54.0492 21.4251 54.1217 21.6031C54.1942 21.7811 54.315 21.9353 54.4705 22.0483C54.626 22.1612 54.81 22.2284 55.0017 22.2423C55.1934 22.2561 55.3851 22.2161 55.5553 22.1267L60.3834 19.589L65.2116 22.1267C65.3817 22.2161 65.5735 22.2561 65.7652 22.2423C65.9569 22.2284 66.1409 22.1612 66.2964 22.0483C66.4519 21.9353 66.5727 21.7811 66.6452 21.6031C66.7177 21.4251 66.7389 21.2304 66.7065 21.0409L65.7845 15.6658L69.69 11.8592C69.828 11.7246 69.9254 11.554 69.9712 11.3667C70.017 11.1794 70.0093 10.9831 69.949 10.8ZM63.9574 14.5683C63.8381 14.6851 63.749 14.8291 63.6977 14.988C63.6464 15.1469 63.6345 15.3158 63.663 15.4803L64.3231 19.3311L60.8633 17.5123C60.7154 17.4346 60.5508 17.3939 60.3837 17.3939C60.2166 17.3939 60.0521 17.4346 59.9041 17.5123L56.4455 19.3305L57.1062 15.4797C57.1347 15.3152 57.1228 15.1463 57.0715 14.9874C57.0203 14.8285 56.9311 14.6845 56.8118 14.5677L54.0132 11.8404L57.8799 11.2787C58.0452 11.2546 58.2022 11.1907 58.3373 11.0926C58.4725 10.9944 58.5818 10.8649 58.6559 10.7152L60.3852 7.21125L62.1145 10.7152C62.1885 10.8649 62.2977 10.9943 62.4328 11.0925C62.5679 11.1906 62.7247 11.2545 62.8899 11.2787L66.7572 11.8404L63.9574 14.5683Z" fill="#AB6A49"/>
<path d="M14.9221 22.2422C15.0722 22.2423 15.2204 22.2097 15.3565 22.1465C15.4926 22.0833 15.6133 21.9911 15.71 21.8764C15.8068 21.7617 15.8773 21.6273 15.9166 21.4825C15.956 21.3377 15.9632 21.186 15.9378 21.0381L15.0163 15.663L18.9218 11.8564C19.0595 11.7222 19.1569 11.5522 19.203 11.3655C19.2491 11.1788 19.242 10.983 19.1826 10.8001C19.1232 10.6173 19.0138 10.4547 18.8667 10.3307C18.7197 10.2068 18.541 10.1265 18.3507 10.0989L12.9538 9.31458L10.5397 4.42755C10.4546 4.25523 10.323 4.11015 10.1597 4.00871C9.99645 3.90727 9.80808 3.85352 9.61588 3.85352C9.42368 3.85352 9.23531 3.90727 9.07206 4.00871C8.90881 4.11015 8.77718 4.25523 8.69206 4.42755L6.27798 9.31752L0.882825 10.0989C0.692498 10.1264 0.513677 10.2067 0.366592 10.3305C0.219507 10.4544 0.110027 10.617 0.0505389 10.7999C-0.00894964 10.9828 -0.0160729 11.1786 0.0299748 11.3654C0.0760226 11.5521 0.173404 11.7222 0.311101 11.8564L4.2166 15.663L3.29454 21.0381C3.26216 21.2276 3.28341 21.4223 3.35589 21.6003C3.42837 21.7783 3.5492 21.9325 3.70471 22.0455C3.86022 22.1584 4.04422 22.2256 4.23591 22.2395C4.42761 22.2533 4.61936 22.2133 4.7895 22.1239L9.61765 19.5862L14.4458 22.1239C14.5927 22.2013 14.7561 22.2419 14.9221 22.2422ZM10.094 17.5124C9.94608 17.4347 9.7815 17.3941 9.61441 17.3941C9.44733 17.3941 9.28274 17.4347 9.13483 17.5124L5.678 19.3283L6.33863 15.4775C6.36702 15.313 6.35506 15.1441 6.30378 14.9852C6.2525 14.8264 6.16344 14.6823 6.04423 14.5655L3.24626 11.8382L7.11231 11.2765C7.27766 11.2525 7.43469 11.1887 7.56988 11.0905C7.70508 10.9923 7.81437 10.8628 7.88835 10.713L9.61647 7.20845L11.3458 10.7124C11.4198 10.8622 11.529 10.9918 11.6642 11.0899C11.7994 11.1881 11.9565 11.2519 12.1218 11.2759L15.9879 11.8376L13.1899 14.5684C13.0705 14.6852 12.9813 14.8292 12.9301 14.9881C12.8788 15.147 12.8669 15.316 12.8955 15.4805L13.5555 19.3312L10.094 17.5124Z" fill="#AB6A49"/>
<path d="M56.5548 46.9884C56.5535 45.8827 56.1137 44.8226 55.3319 44.0408C54.5501 43.2589 53.49 42.8192 52.3843 42.8179H39.6769V29.2579C39.6769 28.0175 39.1841 26.8279 38.3071 25.9509C37.43 25.0738 36.2404 24.5811 35 24.5811C33.7597 24.5811 32.5701 25.0738 31.693 25.9509C30.816 26.8279 30.3232 28.0175 30.3232 29.2579V31.8427C30.3264 33.3255 29.8535 34.7703 28.9743 35.9643L23.9465 42.8179H14.4757C14.2024 42.8179 13.9403 42.9265 13.7471 43.1197C13.5539 43.3129 13.4453 43.575 13.4453 43.8483V68.9694C13.4453 69.2427 13.5539 69.5048 13.7471 69.698C13.9403 69.8912 14.2024 69.9998 14.4757 69.9998H50.6179C51.4354 70.0002 52.235 69.7602 52.9171 69.3097C53.5993 68.8593 54.1339 68.2182 54.4546 67.4662C54.7752 66.7142 54.8677 65.8846 54.7205 65.0805C54.5733 64.2763 54.1929 63.5333 53.6267 62.9436C54.1144 62.5966 54.5216 62.1485 54.8205 61.6299C55.1194 61.1113 55.3031 60.5344 55.359 59.9384C55.4149 59.3424 55.3416 58.7414 55.1443 58.1763C54.947 57.6111 54.6302 57.0952 54.2155 56.6635C54.7032 56.3164 55.1104 55.8684 55.4093 55.3498C55.7082 54.8312 55.8919 54.2542 55.9478 53.6583C56.0037 53.0623 55.9304 52.4613 55.7331 51.8961C55.5358 51.331 55.219 50.815 54.8043 50.3834C55.3456 49.998 55.7869 49.4888 56.0914 48.8982C56.3959 48.3077 56.5548 47.6528 56.5548 46.9884ZM15.5061 44.8787H23.4384V67.939H15.5061V44.8787ZM52.3843 49.098H51.7955C51.5222 49.098 51.2602 49.2066 51.0669 49.3998C50.8737 49.5931 50.7651 49.8552 50.7651 50.1284C50.7651 50.4017 50.8737 50.6638 51.0669 50.857C51.2602 51.0503 51.5222 51.1588 51.7955 51.1588C52.349 51.1681 52.8767 51.3944 53.2649 51.7891C53.653 52.1838 53.8705 52.7152 53.8705 53.2688C53.8705 53.8224 53.653 54.3538 53.2649 54.7484C52.8767 55.1431 52.349 55.3695 51.7955 55.3787H51.2067C50.9334 55.3787 50.6714 55.4873 50.4781 55.6805C50.2849 55.8738 50.1763 56.1359 50.1763 56.4091C50.1763 56.6824 50.2849 56.9445 50.4781 57.1377C50.6714 57.331 50.9334 57.4395 51.2067 57.4395C51.7662 57.4395 52.3028 57.6618 52.6985 58.0574C53.0941 58.4531 53.3164 58.9897 53.3164 59.5492C53.3164 60.1087 53.0941 60.6453 52.6985 61.041C52.3028 61.4366 51.7662 61.6589 51.2067 61.6589H50.6179C50.3446 61.6589 50.0826 61.7674 49.8893 61.9607C49.6961 62.1539 49.5875 62.416 49.5875 62.6893C49.5875 62.9625 49.6961 63.2246 49.8893 63.4179C50.0826 63.6111 50.3446 63.7197 50.6179 63.7197C51.1774 63.7197 51.714 63.9419 52.1097 64.3376C52.5053 64.7332 52.7276 65.2698 52.7276 65.8293C52.7276 66.3888 52.5053 66.9254 52.1097 67.3211C51.714 67.7167 51.1774 67.939 50.6179 67.939H25.4992V44.1851L30.6359 37.1813C31.7751 35.6346 32.3879 33.7631 32.384 31.8421V29.2573C32.384 28.5635 32.6596 27.8981 33.1502 27.4075C33.6408 26.9169 34.3062 26.6413 35 26.6413C35.6939 26.6413 36.3593 26.9169 36.8499 27.4075C37.3405 27.8981 37.6161 28.5635 37.6161 29.2573V43.8477C37.6161 44.121 37.7246 44.3831 37.9179 44.5763C38.1111 44.7696 38.3732 44.8781 38.6465 44.8781H52.3843C52.9438 44.8781 53.4804 45.1004 53.8761 45.496C54.2717 45.8917 54.494 46.4283 54.494 46.9878C54.494 47.5473 54.2717 48.0839 53.8761 48.4795C53.4804 48.8752 52.9438 49.098 52.3843 49.098Z" fill="#AB6A49"/>
</svg>
