<svg width="14" height="15" viewBox="0 0 14 15" fill="none" xmlns="http://www.w3.org/2000/svg">
<path d="M6.34375 4.03125C6.38021 3.63021 6.59896 3.41146 7 3.375C7.40104 3.41146 7.61979 3.63021 7.65625 4.03125V7.39453L9.98047 8.95312C10.3086 9.20833 10.3633 9.50911 10.1445 9.85547C9.90755 10.1836 9.61589 10.2383 9.26953 10.0195L6.64453 8.26953C6.44401 8.16016 6.34375 7.97786 6.34375 7.72266V4.03125ZM7 0.75C8.3125 0.768229 9.48828 1.08724 10.5273 1.70703C11.5846 2.32682 12.4232 3.16536 13.043 4.22266C13.6628 5.26172 13.9818 6.4375 14 7.75C13.9818 9.0625 13.6628 10.2383 13.043 11.2773C12.4232 12.3346 11.5846 13.1732 10.5273 13.793C9.48828 14.4128 8.3125 14.7318 7 14.75C5.6875 14.7318 4.51172 14.4128 3.47266 13.793C2.41536 13.1732 1.57682 12.3346 0.957031 11.2773C0.33724 10.2383 0.0182292 9.0625 0 7.75C0.0182292 6.4375 0.33724 5.26172 0.957031 4.22266C1.57682 3.16536 2.41536 2.32682 3.47266 1.70703C4.51172 1.08724 5.6875 0.768229 7 0.75ZM1.3125 7.75C1.34896 9.35417 1.90495 10.694 2.98047 11.7695C4.05599 12.8451 5.39583 13.401 7 13.4375C8.60417 13.401 9.94401 12.8451 11.0195 11.7695C12.0951 10.694 12.651 9.35417 12.6875 7.75C12.651 6.14583 12.0951 4.80599 11.0195 3.73047C9.94401 2.65495 8.60417 2.09896 7 2.0625C5.39583 2.09896 4.05599 2.65495 2.98047 3.73047C1.90495 4.80599 1.34896 6.14583 1.3125 7.75Z" fill="#C28565"/>
</svg>
