<svg width="1220" height="60" viewBox="0 0 1220 60" fill="none" xmlns="http://www.w3.org/2000/svg">
<line y1="29" x2="560" y2="29" stroke="url(#paint0_linear_2_149350)" stroke-width="2"/>
<line x1="660" y1="29" x2="1220" y2="29" stroke="url(#paint1_linear_2_149350)" stroke-width="2"/>
<circle cx="610" cy="30" r="30" fill="#C28565"/>
<circle cx="610" cy="30" r="24.5" stroke="white"/>
<path d="M624.917 23.7888C624.848 23.3923 624.677 22.9506 624.431 22.5676V22.567C624.1 22.0514 623.636 21.6426 623.108 21.5951C622.298 21.5223 621.563 22.0995 621.064 22.7565C620.939 22.9213 620.822 23.0931 620.709 23.2674C620.37 23.7876 620.058 24.329 619.625 24.7672C618.829 25.5708 617.897 26.0682 616.802 26.3004C615.708 26.5327 614.438 26.2764 613.405 26.7134C612.372 27.1504 611.525 28.1563 610.983 29.1564C610.07 30.8386 609.729 32.7907 609.698 34.6577V34.6589C609.695 34.7897 609.695 34.9193 609.696 35.049C609.708 37.0321 610.262 39.0229 611.358 40.6594C612.682 42.6366 614.988 44.6233 617.331 44.6421C618.07 44.648 618.732 44.5629 619.327 44.4069C619.382 44.3928 619.399 44.3389 619.386 44.2954C619.376 44.2638 619.349 44.2374 619.307 44.2362C612.853 44.0943 614.436 38.5841 615.708 37.3676C616.16 36.9347 616.774 36.9799 617.43 37.1946C617.715 37.2878 618.008 37.4128 618.299 37.5441L618.299 37.5447C618.639 37.6984 618.977 37.8609 619.296 37.9917C620.008 38.2838 620.628 38.4187 620.985 37.9495C621.972 36.6497 621.957 37.1846 622.391 36.1757C622.635 35.6067 621.941 35.2466 621.367 34.9516C621.316 34.9258 621.344 34.8477 621.399 34.8595C623.722 35.3622 623.295 33.6752 623.295 33.6752C624.103 33.721 624.955 33.0558 624.507 31.7484C624.058 30.441 624.058 29.3171 624.058 29.3171C624.152 27.9305 624.527 27.5826 624.798 26.2207C624.982 25.2951 625.079 24.7185 624.917 23.7888ZM622.587 29.367C622.553 29.3781 622.518 29.3887 622.483 29.3986C622.423 29.4156 622.381 29.4714 622.381 29.5353V30.0386C622.381 30.1729 622.269 30.2814 622.136 30.2726C622.014 30.2644 621.922 30.1553 621.922 30.0303V29.5435C621.922 29.5124 621.897 29.4872 621.867 29.4872C621.739 29.4872 621.612 29.4755 621.486 29.4526C621.461 29.4479 621.435 29.462 621.426 29.4872L621.223 30.0309C621.188 30.1242 621.1 30.1817 621.008 30.1817C620.978 30.1817 620.947 30.1752 620.917 30.1623C620.803 30.1119 620.753 29.9741 620.798 29.8556L620.946 29.4579C620.978 29.3734 620.942 29.2784 620.863 29.2379C620.815 29.2139 620.768 29.1881 620.721 29.1599C620.649 29.1171 620.557 29.1347 620.503 29.2004L620.154 29.6327C620.108 29.6884 620.043 29.7177 619.977 29.7177C619.925 29.7177 619.874 29.7001 619.831 29.6637C619.733 29.5816 619.719 29.4333 619.8 29.3335L620.162 28.8872C620.202 28.8373 620.197 28.7646 620.152 28.72C620.097 28.6666 620.045 28.6132 619.996 28.5599C619.957 28.5171 619.894 28.5088 619.846 28.5399L619.447 28.7933C619.41 28.8168 619.368 28.8285 619.327 28.8285C619.249 28.8285 619.171 28.7874 619.129 28.7118C619.066 28.6009 619.107 28.4584 619.213 28.3903L619.538 28.1839C619.594 28.1475 619.612 28.0707 619.575 28.0126C619.519 27.9252 619.488 27.8683 619.484 27.8619C619.423 27.7481 619.465 27.6055 619.575 27.5433C619.686 27.4812 619.825 27.5228 619.887 27.636C619.891 27.6437 620.147 28.1112 620.599 28.4994C620.844 28.71 621.097 28.8561 621.357 28.9388C621.365 28.9411 621.375 28.9435 621.383 28.947L621.384 28.9476C621.731 29.0514 622.089 29.042 622.455 28.9182C622.58 28.8766 622.714 28.9488 622.749 29.0802C622.779 29.2027 622.705 29.3277 622.587 29.367ZM623.014 27.9839C623.01 27.9839 623.007 27.9839 623.003 27.9839C622.882 27.9839 622.78 27.8853 622.774 27.7598C622.758 27.3838 622.625 27.1035 622.367 26.9011C621.537 26.2494 619.751 26.6436 619.734 26.6477C619.61 26.6753 619.488 26.5961 619.46 26.4694C619.433 26.3427 619.511 26.2177 619.634 26.1896C619.716 26.1714 621.646 25.7444 622.646 26.5286C623.013 26.816 623.21 27.2231 623.232 27.7387C623.239 27.8683 623.14 27.978 623.014 27.9839Z" fill="white"/>
<path d="M619.386 44.2944C618.08 44.3513 616.202 44.1431 614.684 42.8145C612.33 40.7545 611.705 36.7571 613.508 33.2689C613.593 33.1035 613.831 33.1228 613.891 33.2999C614.226 34.2936 615.129 36.1078 617.431 37.1941C616.775 36.98 616.161 36.9343 615.708 37.3672C614.436 38.5831 612.853 44.0932 619.307 44.2357C619.349 44.2363 619.376 44.2627 619.386 44.2944Z" fill="#983604"/>
<path d="M615.692 44.9996C614.501 44.7861 613.305 44.3386 612.507 43.8453C612.044 43.559 611.626 43.2106 611.224 42.8405C610.402 41.8938 609.67 40.865 608.877 39.8919C607.879 38.666 606.75 37.5028 605.346 36.806C603.868 36.0722 602.15 35.8892 600.679 35.1801C601.187 35.6106 601.809 35.918 602.434 36.1537C603.375 36.5092 604.364 36.7415 605.257 37.2096C606.554 37.89 607.566 39.025 608.448 40.2127C608.553 40.3547 608.657 40.4978 608.76 40.6415C608.777 40.665 608.75 40.6949 608.726 40.6791C607.176 39.6549 605.364 39.0742 603.589 38.5205C601.929 38.0031 600.237 37.4764 598.744 36.5949C598.391 36.3866 598.049 36.1584 597.721 35.905C596.191 34.7249 595.015 32.8819 595.002 30.9551C596.026 31.6502 597.297 32.1048 598.415 32.3728C600.396 32.8479 602.491 32.9365 604.339 33.8075C606.214 34.6909 607.704 36.2599 608.904 37.9903C609.018 38.1551 609.13 38.3211 609.239 38.4882C609.717 39.2214 610.164 39.9669 610.628 40.6785C610.629 40.6796 610.629 40.6808 610.63 40.6814V40.682C611.456 41.9472 612.339 43.1056 613.565 43.9028C614.01 44.1925 614.541 44.4805 615.129 44.728C615.316 44.8066 615.508 44.8811 615.705 44.9498C615.733 44.9615 615.722 45.0055 615.692 44.9996Z" fill="white"/>
<path d="M610.974 43.6018C609.567 42.756 608.097 41.9853 606.542 41.8041C605.162 41.6433 603.748 41.4891 602.5 40.8919C603.158 41.3794 604.048 41.6685 604.814 41.8287C605.738 42.0222 606.698 42.1354 607.604 42.4053C608.239 42.5947 609.133 43.0434 610.013 43.5332C610.039 43.5479 610.028 43.5889 609.999 43.5872C609.645 43.5702 609.29 43.5795 608.941 43.6053C607.831 43.6881 606.727 43.9145 605.616 43.8582C604.145 43.7837 602.705 43.1948 601.586 42.2164C601.525 42.163 601.465 42.1079 601.405 42.0522C600.459 41.16 599.776 39.981 599.455 38.707C599.582 38.775 599.711 38.8384 599.844 38.8971C600.665 39.2601 601.586 39.4467 602.478 39.5569C604.052 39.7523 605.688 39.7875 607.128 40.4643C607.473 40.6262 607.798 40.821 608.109 41.0374C608.913 41.5982 609.627 42.3085 610.346 42.9865C610.557 43.1854 610.772 43.3836 610.992 43.5749C611.006 43.5889 610.991 43.6118 610.974 43.6018Z" fill="white"/>
<path d="M611.809 25.5689C611.764 26.0405 611.446 26.4605 610.976 26.6083C610.437 26.7767 609.872 26.5344 609.601 26.0558C609.557 25.9778 609.521 25.8927 609.494 25.8024C609.302 25.1613 609.655 24.4826 610.282 24.2867C610.908 24.0908 611.572 24.4515 611.764 25.0927C611.811 25.2516 611.825 25.4129 611.809 25.5689Z" fill="white"/>
<path d="M614.959 20.3147C614.9 20.4866 614.83 20.6485 614.748 20.7951C613.958 22.207 612.781 22.7577 611.86 23.0786C611.649 22.2826 611.467 21.2491 611.812 20.0871C611.883 19.8478 611.976 19.6032 612.096 19.3534C612.769 17.9579 615.064 16.7015 615.2 16.6534C615.234 16.7801 615.448 18.8994 614.959 20.3147Z" fill="white"/>
<path d="M611.991 17.2876C611.981 17.3163 611.971 17.3456 611.96 17.3738C611.818 17.7275 611.538 18.0038 611.301 18.3017C611.124 17.9627 610.9 17.6372 610.827 17.2624C610.776 17.0002 610.803 16.735 610.875 16.4775C610.945 16.2259 611.057 15.9819 611.182 15.7537C611.288 15.5619 611.402 15.373 611.511 15.1824C611.546 15.122 611.58 15.061 611.612 15C611.595 15.176 611.578 15.3572 611.561 15.5437C611.529 15.891 611.494 16.2546 611.459 16.6306C611.448 16.7462 611.437 16.8629 611.426 16.9808C611.437 16.8629 611.448 16.7462 611.459 16.6306C611.494 16.2546 611.528 15.8904 611.561 15.5437C611.578 15.3572 611.595 15.176 611.612 15C611.632 15.0663 611.654 15.1326 611.676 15.1988C611.747 15.4077 611.825 15.6147 611.892 15.8241C612.045 16.2969 612.143 16.8201 611.991 17.2876Z" fill="white"/>
<path d="M619.941 22.5353C619.877 22.6491 618.558 24.3084 617.232 24.9531C617.073 25.0305 616.914 25.0927 616.757 25.1366C615.223 25.5643 614.01 25.102 613.137 24.6633C613.406 24.1835 613.758 23.6368 614.277 23.1564C614.692 22.7734 615.211 22.432 615.879 22.2004C617.319 21.6994 619.811 22.4713 619.941 22.5353Z" fill="white"/>
<path d="M618.35 18.8276C618.141 18.8839 617.93 18.9338 617.722 18.9936C617.225 19.1367 616.716 19.3643 616.429 19.8036C616.355 19.9168 616.298 20.0394 616.252 20.1679L616.251 20.1684C616.168 20.399 616.115 20.6453 616.045 20.8817C616.418 20.8424 616.808 20.85 617.152 20.7022C617.368 20.6096 617.551 20.4635 617.707 20.2863C617.897 20.0729 618.049 19.8159 618.176 19.5579C618.273 19.3614 618.361 19.1584 618.455 18.9596C618.485 18.8968 618.516 18.8341 618.547 18.7725C618.482 18.7912 618.416 18.8094 618.35 18.8276ZM618.193 19.0698C618.254 19.0188 618.314 18.9678 618.373 18.9185C618.314 18.9684 618.254 19.0188 618.193 19.0698Z" fill="white"/>
<path d="M609.161 31.5407C608.489 32.936 606.193 34.1925 606.057 34.2406C606.021 34.0986 605.755 31.4492 606.51 30.0989C607.3 28.6871 608.477 28.1363 609.397 27.816L609.398 27.8154C609.652 28.7756 609.864 30.0813 609.161 31.5407Z" fill="white"/>
<path d="M603.642 24.7585C603.31 24.9397 602.992 25.1685 602.626 25.243C602.119 25.3462 601.602 25.1386 601.151 24.8799C600.963 24.7726 600.779 24.6547 600.592 24.5432C600.533 24.508 600.474 24.4735 600.414 24.4406C600.479 24.4195 600.544 24.3972 600.608 24.3743C600.813 24.3016 601.015 24.2218 601.219 24.1532C601.71 23.9877 602.257 23.8846 602.735 24.0846C603.08 24.2294 603.35 24.5157 603.641 24.7579C603.642 24.7585 603.642 24.7585 603.642 24.7585Z" fill="white"/>
<path d="M608.12 26.2309C607.637 27.0937 606.884 28.1707 605.378 28.6939C603.937 29.1942 601.445 28.4223 601.316 28.3583C601.388 28.2311 603.032 26.1658 604.5 25.757C606.034 25.3294 607.247 25.791 608.12 26.2303L608.12 26.2309Z" fill="white"/>
<path d="M604.106 30.1918C603.63 30.3959 603.314 30.864 603.082 31.3361C602.985 31.5326 602.897 31.7356 602.803 31.9344C602.773 31.9972 602.742 32.0599 602.711 32.1215C602.776 32.1022 602.842 32.0834 602.908 32.0658C603.117 32.0095 603.329 31.9591 603.536 31.8998C604.033 31.7561 604.542 31.5291 604.829 31.0898C605.037 30.7719 605.104 30.3801 605.213 30.0123V30.0117C604.84 30.0522 604.45 30.0445 604.106 30.1918ZM602.944 31.9262C603.022 31.8599 603.102 31.7925 603.184 31.7239C603.102 31.7931 603.022 31.8605 602.944 31.9262Z" fill="white"/>
<path d="M608.313 24.1871C607.375 24.4476 606.098 24.6646 604.671 23.9455C604.138 23.6774 603.626 23.1554 603.197 22.611V22.6105C602.527 21.7605 602.06 20.8561 602.031 20.771C602.17 20.7335 604.761 20.4619 606.081 21.2338C606.444 21.4461 606.748 21.6855 607.006 21.9406C607.728 22.6568 608.082 23.4933 608.313 24.1871Z" fill="white"/>
<path d="M606.026 18.8782C606.014 18.8436 606.002 18.8095 605.988 18.7755C605.789 18.2887 605.331 17.9661 604.87 17.7285C604.677 17.6294 604.479 17.5391 604.285 17.4429C604.223 17.4124 604.162 17.3813 604.102 17.3496C604.121 17.4165 604.139 17.4839 604.157 17.5514C604.212 17.7649 604.26 17.9813 604.319 18.1937C604.376 18.4031 604.449 18.6154 604.543 18.8125C604.677 19.0934 604.858 19.3445 605.11 19.5169C605.421 19.7287 605.805 19.7973 606.164 19.9093V19.9087C606.129 19.5627 606.131 19.2043 606.026 18.8782Z" fill="white"/>
<path d="M609.861 22.8818C609.018 22.3873 607.965 21.6171 607.453 20.0769C607.354 19.7801 607.306 19.4404 607.293 19.085C607.24 17.6755 607.731 16.0284 607.781 15.9229C607.903 15.995 609.843 17.6098 610.298 19.0856C610.307 19.1167 610.316 19.1477 610.324 19.1782C610.742 20.7485 610.291 21.989 609.861 22.8818Z" fill="white"/>
<path d="M608.902 37.9902C606.733 35.146 604.363 33.9195 601.721 33.5359C600.767 33.3975 599.089 33.1001 598.133 32.9646C597.411 32.8626 596.686 32.6948 596.024 32.3898C596.541 34.0052 597.499 35.4663 598.742 36.5948C598.389 36.3866 598.047 36.1584 597.719 35.905C596.189 34.7249 595.013 32.8819 595 30.9551C596.024 31.6501 597.295 32.1047 598.413 32.3728C600.394 32.8479 602.489 32.9364 604.337 33.8075C606.212 34.6908 607.702 36.2593 608.902 37.9902Z" fill="#983604"/>
<path d="M610.629 40.6832C610.629 40.682 610.628 40.6809 610.627 40.6797C610.628 40.6809 610.628 40.682 610.629 40.6826V40.6832Z" fill="#983604"/>
<path d="M606.412 40.3605C604.343 39.8232 602.082 40.2092 600.089 39.449C600.343 40.3869 600.835 41.2474 601.425 42.0128C601.477 42.0815 601.532 42.1501 601.586 42.2175C601.525 42.1641 601.465 42.109 601.405 42.0533C600.459 41.1611 599.776 39.9821 599.455 38.7081C599.582 38.7762 599.711 38.8395 599.844 38.8982C600.665 39.2613 601.586 39.4478 602.478 39.5581C604.052 39.7534 605.688 39.7886 607.128 40.4655C607.473 40.6274 607.798 40.8221 608.109 41.0385C607.574 40.7429 607.003 40.5136 606.412 40.3605Z" fill="#983604"/>
<path d="M624.433 22.5672C624.373 22.5337 624.311 22.5038 624.247 22.4763C623.476 22.1455 622.527 22.3009 621.895 22.8616C621.308 23.3819 620.969 24.1286 620.537 24.7891C619.708 26.0572 618.341 26.9077 616.838 27.0203C615.444 27.1247 614.064 27.1717 612.883 27.9371C611.6 28.7689 610.769 30.1895 610.331 31.6764C610.051 32.6225 609.839 33.6414 609.699 34.6567C609.73 32.7897 610.072 30.8377 610.984 29.1554C611.527 28.1553 612.374 27.15 613.406 26.7124C614.439 26.2754 615.709 26.5317 616.804 26.2994C617.899 26.0672 618.831 25.5698 619.626 24.7662C620.06 24.3286 620.371 23.7866 620.71 23.2663C620.824 23.0922 620.94 22.9203 621.066 22.7555C621.565 22.0985 622.3 21.5214 623.11 21.5941C623.638 21.6428 624.102 22.0516 624.433 22.5672Z" fill="#983604"/>
<path d="M609.397 27.8154C609.349 27.8465 606.243 29.8478 606.057 34.24C606.021 34.0981 605.755 31.4486 606.51 30.0983C607.3 28.6865 608.477 28.1357 609.397 27.8154Z" fill="#983604"/>
<path d="M605.213 30.0127C605.213 30.0127 603.783 30.6391 602.711 32.1226C602.742 32.061 602.773 31.9982 602.803 31.9354C602.897 31.7366 602.985 31.5337 603.082 31.3372C603.314 30.8656 603.63 30.3975 604.106 30.1928C604.45 30.045 604.839 30.0526 605.213 30.0127Z" fill="#983604"/>
<path d="M608.119 26.231C608.056 26.221 604.648 25.6831 601.316 28.3589C601.388 28.2317 603.032 26.1664 604.5 25.7576C606.034 25.3306 607.247 25.7922 608.119 26.231Z" fill="#983604"/>
<path d="M603.641 24.7589C602.703 24.248 600.414 24.4416 600.414 24.4416C600.479 24.4205 600.544 24.3982 600.608 24.3753C600.813 24.3026 601.015 24.2228 601.219 24.1541C601.71 23.9888 602.257 23.8855 602.735 24.0855C603.08 24.2298 603.351 24.5166 603.641 24.7589Z" fill="#983604"/>
<path d="M610.298 19.0859C609.745 18.0583 608.906 17.1908 607.901 16.6235C607.609 17.4172 607.406 18.2448 607.293 19.0847C607.24 17.6752 607.731 16.0282 607.781 15.9226C607.904 15.9953 609.844 17.6096 610.298 19.0859Z" fill="#983604"/>
<path d="M614.959 20.3152C615.063 19.348 615.035 18.3661 614.875 17.4065C613.598 17.9115 612.503 18.8793 611.812 20.087C611.884 19.8477 611.977 19.6031 612.097 19.3532C612.769 17.9578 615.065 16.7014 615.201 16.6533C615.234 16.7806 615.448 18.8998 614.959 20.3152Z" fill="#983604"/>
<path d="M619.941 22.5346C619.877 22.6483 618.558 24.3077 617.232 24.9523C617.548 24.7476 617.84 24.5013 618.103 24.2297C618.534 23.7874 618.896 23.2813 619.227 22.7551C618.157 22.3551 616.972 22.2759 615.86 22.5334C615.307 22.6612 614.773 22.8724 614.277 23.1551C614.691 22.7721 615.211 22.4307 615.879 22.199C617.319 21.6987 619.811 22.4706 619.941 22.5346Z" fill="#983604"/>
<path d="M607.006 21.9412C606.697 21.767 606.399 21.5881 606.064 21.4544C605.271 21.1371 604.415 20.9816 603.563 20.9998C603.192 21.0074 602.822 21.0491 602.459 21.1242C602.58 21.5559 602.838 21.9852 603.051 22.3618C603.098 22.4457 603.147 22.5284 603.197 22.6105C602.527 21.7605 602.06 20.8561 602.031 20.771C602.17 20.7335 604.761 20.4619 606.081 21.2338C606.443 21.4467 606.748 21.6861 607.006 21.9412Z" fill="#983604"/>
<path d="M604.402 17.7211C604.379 17.7141 604.355 17.707 604.332 17.7C604.399 18.0543 604.466 18.408 604.533 18.7622C604.536 18.7787 604.54 18.7951 604.543 18.8115C604.449 18.6144 604.377 18.4021 604.319 18.1927C604.26 17.9804 604.212 17.7639 604.157 17.5504C604.139 17.483 604.121 17.4155 604.102 17.3486C604.162 17.3803 604.223 17.4114 604.285 17.4419C604.479 17.5381 604.677 17.6284 604.87 17.7275C605.331 17.9651 605.789 18.2877 605.988 18.7746C606.002 18.8086 606.015 18.8426 606.026 18.8772C605.619 18.3346 605.043 17.9229 604.402 17.7211Z" fill="#983604"/>
<path d="M611.893 15.8251C611.826 15.6157 611.748 15.4086 611.677 15.1998C611.654 15.1341 611.633 15.0678 611.613 15.001L611.612 15.0022V15.001C611.58 15.062 611.546 15.123 611.512 15.1834C611.403 15.374 611.288 15.5629 611.182 15.7547C611.058 15.9823 610.945 16.2269 610.875 16.4785C611.026 16.1172 611.262 15.7922 611.56 15.5447C611.565 15.5406 611.57 15.5371 611.574 15.533C611.865 16.065 612.01 16.6791 611.991 17.288C612.144 16.8205 612.045 16.2973 611.893 15.8251Z" fill="#983604"/>
<path d="M618.547 18.7716C618.516 18.8332 618.485 18.896 618.455 18.9587C618.361 19.1576 618.273 19.3605 618.176 19.557C618.049 19.8151 617.897 20.072 617.707 20.2855C617.923 19.906 618.087 19.4954 618.193 19.0702V19.0696C618.196 19.0578 618.198 19.0461 618.202 19.0344C618.199 19.0455 617.886 19.147 617.854 19.1546C617.745 19.1804 617.555 19.2532 617.45 19.2919C617.07 19.4326 616.821 19.5535 616.531 19.8397C616.457 19.9119 616.388 19.9887 616.322 20.0691C616.302 20.0943 616.278 20.1377 616.252 20.1664C616.298 20.0386 616.355 19.9154 616.429 19.8022C616.716 19.3629 617.225 19.1359 617.722 18.9922C617.93 18.9323 618.141 18.8825 618.35 18.8262C618.416 18.8097 618.481 18.7916 618.547 18.7716Z" fill="#983604"/>
<path d="M611.809 25.5684C611.796 25.5109 611.791 25.4393 611.779 25.3941C611.756 25.3079 611.729 25.2228 611.695 25.1401C611.62 24.9542 611.507 24.7794 611.349 24.6597C611.197 24.5442 611.009 24.4844 610.82 24.4721C610.354 24.4416 609.881 24.7184 609.671 25.146C609.534 25.4252 609.515 25.7572 609.601 26.0558C609.557 25.9778 609.521 25.8927 609.494 25.8024C609.302 25.1613 609.655 24.4826 610.282 24.2867C610.908 24.0908 611.572 24.4515 611.764 25.0926C611.811 25.251 611.825 25.4123 611.809 25.5684Z" fill="#983604"/>
<path d="M610.628 26.2807C611.181 26.2807 611.63 25.8222 611.63 25.2566C611.63 24.691 611.181 24.2324 610.628 24.2324C610.075 24.2324 609.627 24.691 609.627 25.2566C609.627 25.8222 610.075 26.2807 610.628 26.2807Z" fill="#983604"/>
<defs>
<linearGradient id="paint0_linear_2_149350" x1="560" y1="30" x2="0" y2="30" gradientUnits="userSpaceOnUse">
<stop stop-color="#C28565"/>
<stop offset="1" stop-color="#C28565" stop-opacity="0"/>
</linearGradient>
<linearGradient id="paint1_linear_2_149350" x1="660" y1="30" x2="1220" y2="30" gradientUnits="userSpaceOnUse">
<stop stop-color="#C28565"/>
<stop offset="1" stop-color="#C28565" stop-opacity="0"/>
</linearGradient>
</defs>
</svg>
