<svg width="14" height="11" viewBox="0 0 14 11" fill="none" xmlns="http://www.w3.org/2000/svg">
<path d="M0 2.25C0.0182292 1.75781 0.191406 1.34766 0.519531 1.01953C0.847656 0.691406 1.25781 0.518229 1.75 0.5H12.25C12.7422 0.518229 13.1523 0.691406 13.4805 1.01953C13.8086 1.34766 13.9818 1.75781 14 2.25V9.25C13.9818 9.74219 13.8086 10.1523 13.4805 10.4805C13.1523 10.8086 12.7422 10.9818 12.25 11H1.75C1.25781 10.9818 0.847656 10.8086 0.519531 10.4805C0.191406 10.1523 0.0182292 9.74219 0 9.25V2.25ZM1.3125 2.25V2.85156L6.04297 6.73438C6.33464 6.95312 6.65365 7.0625 7 7.0625C7.34635 7.0625 7.67448 6.95312 7.98438 6.73438L12.6875 2.85156V2.22266C12.6693 1.96745 12.5234 1.82161 12.25 1.78516H1.75C1.47656 1.82161 1.33073 1.96745 1.3125 2.22266V2.25ZM1.3125 4.54688V9.25C1.33073 9.52344 1.47656 9.66927 1.75 9.6875H12.25C12.5234 9.66927 12.6693 9.52344 12.6875 9.25V4.54688L8.80469 7.74609C8.25781 8.16536 7.65625 8.375 7 8.375C6.34375 8.375 5.73307 8.16536 5.16797 7.74609L1.3125 4.54688Z" fill="#C28565"/>
</svg>
