<svg width="50" height="70" viewBox="0 0 50 70" fill="none" xmlns="http://www.w3.org/2000/svg">
<path d="M11.2099 46.8539L3.56205 64.9728C3.50567 65.1057 3.4902 65.2531 3.51768 65.3952C3.54516 65.5374 3.6143 65.6676 3.71591 65.7687C3.81753 65.8698 3.94682 65.9368 4.08662 65.9611C4.22642 65.9853 4.37012 65.9654 4.49864 65.9042L13.0845 61.8327L17.6487 69.6486C17.7106 69.7547 17.7984 69.8426 17.9035 69.9037C18.0086 69.9648 18.1274 69.997 18.2484 69.9971H18.3141C18.4456 69.9846 18.571 69.9342 18.6757 69.8517C18.7803 69.7693 18.86 69.6582 18.9054 69.5314L25.0561 52.3626L32.156 69.5629C32.2094 69.6925 32.2991 69.8031 32.4137 69.8808C32.5283 69.9586 32.6629 70 32.8005 70C32.9389 69.9989 33.074 69.9559 33.1885 69.8763C33.303 69.7967 33.3917 69.6841 33.4435 69.5528L36.8502 60.8898L46.5446 65.8942C46.6726 65.9602 46.8174 65.9844 46.9593 65.9635C47.1012 65.9426 47.2334 65.8776 47.3379 65.7773C47.4424 65.6771 47.5143 65.5463 47.5436 65.4029C47.573 65.2595 47.5585 65.1103 47.5022 64.9756L39.6586 46.2453C43.9749 43.0524 47.1801 38.5337 48.8067 33.3482C50.4333 28.1627 50.3961 22.5817 48.7006 17.4193C47.0051 12.2569 43.7399 7.78316 39.3815 4.65064C35.023 1.51811 29.7991 -0.109328 24.4719 0.00570406C19.1447 0.120736 13.9928 1.97222 9.76762 5.29009C5.54249 8.60797 2.46518 13.2187 0.984555 18.4496C-0.496066 23.6806 -0.302542 29.2582 1.5369 34.3689C3.37634 39.4795 6.76547 43.8559 11.2099 46.8596V46.8539ZM18.0974 67.63L13.9624 60.5484C13.8744 60.3956 13.7339 60.2818 13.5683 60.229C13.4027 60.1762 13.2238 60.1882 13.0664 60.2627L5.57223 63.8213L12.4219 47.6096C15.9547 49.7274 19.9456 50.9182 24.0384 51.0754L18.0974 67.63ZM45.4542 63.7328L36.8124 59.2598C36.7261 59.2163 36.632 59.1912 36.5359 59.186C36.4397 59.1808 36.3436 59.1958 36.2533 59.2298C36.1626 59.2646 36.08 59.3182 36.0107 59.3873C35.9414 59.4564 35.8869 59.5395 35.8507 59.6313L32.7935 67.4071L26.0486 51.074C30.4704 50.8971 34.7656 49.5161 38.4899 47.0739L45.4542 63.7328ZM25.017 1.42456C29.6895 1.42456 34.257 2.84054 38.142 5.49344C42.0271 8.14633 45.0551 11.917 46.8431 16.3286C48.6312 20.7402 49.0991 25.5946 48.1875 30.2779C47.276 34.9613 45.0259 39.2632 41.722 42.6397C38.4181 46.0162 34.2086 48.3156 29.6259 49.2472C25.0432 50.1788 20.2931 49.7006 15.9763 47.8733C11.6595 46.0459 7.96984 42.9514 5.37395 38.9811C2.77806 35.0108 1.39251 30.3429 1.39251 25.5678C1.39806 19.1664 3.88884 13.0287 8.31809 8.50223C12.7473 3.97571 18.7531 1.43024 25.017 1.42456Z" fill="#AB6A49"/>
<path d="M19.0124 27.5554L17.8325 34.5683C17.8107 34.6998 17.8253 34.835 17.8747 34.9585C17.9241 35.0819 18.0063 35.1888 18.1121 35.2669C18.217 35.3464 18.3418 35.3936 18.472 35.4033C18.6022 35.4129 18.7324 35.3844 18.8474 35.3212L25.0163 32.0126L31.1853 35.3269C31.2852 35.3824 31.3973 35.4109 31.511 35.4098C31.659 35.4084 31.8026 35.3583 31.9205 35.2669C32.0263 35.1888 32.1086 35.0819 32.158 34.9585C32.2074 34.835 32.222 34.6998 32.2001 34.5683L31.0273 27.5554L36.0178 22.5853C36.1116 22.4924 36.1781 22.3745 36.2097 22.245C36.2413 22.1155 36.2368 21.9795 36.1966 21.8525C36.1565 21.7255 36.0823 21.6125 35.9825 21.5264C35.8827 21.4403 35.7612 21.3844 35.632 21.3653L28.7333 20.341L25.6496 13.9551C25.5854 13.8428 25.4936 13.7496 25.3832 13.6848C25.2729 13.62 25.1478 13.5859 25.0205 13.5859C24.8932 13.5859 24.7682 13.62 24.6578 13.6848C24.5475 13.7496 24.4556 13.8428 24.3915 13.9551L21.3077 20.341L14.4091 21.3653C14.2798 21.3844 14.1584 21.4403 14.0586 21.5264C13.9588 21.6125 13.8846 21.7255 13.8444 21.8525C13.8042 21.9795 13.7997 22.1155 13.8313 22.245C13.8629 22.3745 13.9294 22.4924 14.0233 22.5853L19.0124 27.5554ZM21.8711 21.6981C21.983 21.6814 22.0893 21.6372 22.1809 21.5693C22.2724 21.5014 22.3465 21.4117 22.3967 21.3081L25.0163 15.8852L27.636 21.3138C27.6862 21.4175 27.7602 21.5071 27.8518 21.575C27.9433 21.643 28.0496 21.6872 28.1616 21.7038L34.0216 22.5739L29.7818 26.7968C29.7005 26.8777 29.6397 26.9775 29.6046 27.0878C29.5695 27.1981 29.5612 27.3154 29.5805 27.4296L30.5814 33.3926L25.3406 30.5683C25.2406 30.5147 25.1293 30.4867 25.0163 30.4867C24.9034 30.4867 24.7921 30.5147 24.692 30.5683L19.4513 33.384L20.4522 27.4211C20.4714 27.3068 20.4631 27.1895 20.4281 27.0792C20.393 26.969 20.3322 26.8691 20.2509 26.7882L16.0111 22.5681L21.8711 21.6981Z" fill="#AB6A49"/>
</svg>
