<svg width="168" height="60" viewBox="0 0 168 60" fill="none" xmlns="http://www.w3.org/2000/svg">
<path d="M51.2816 51.8239C51.8523 51.8921 52.3041 52.0829 52.637 52.3965C52.9768 52.71 53.1466 53.0986 53.1466 53.5621C53.1466 53.9165 53.0447 54.2369 52.8409 54.5231C52.637 54.8094 52.3551 55.0378 51.995 55.2082C51.6349 55.3718 51.234 55.4536 50.7924 55.4536C50.6022 55.4536 50.3848 55.4433 50.1402 55.4229C50.0451 55.4161 49.9262 55.4093 49.7835 55.4024C49.6476 55.3956 49.4947 55.3922 49.3249 55.3922L48.5809 55.4024C48.445 55.4093 48.2616 55.4127 48.0306 55.4127C48.0102 55.4127 48 55.3922 48 55.3513C48 55.3104 48.0102 55.29 48.0306 55.29C48.2276 55.29 48.3771 55.2729 48.479 55.2389C48.5809 55.198 48.6522 55.1298 48.693 55.0344C48.7406 54.9321 48.7643 54.7822 48.7643 54.5845V49.8506C48.7643 49.5643 48.7168 49.3769 48.6217 49.2883C48.5265 49.1928 48.3329 49.1451 48.0408 49.1451C48.0272 49.1451 48.0204 49.1247 48.0204 49.0838C48.0204 49.0429 48.0272 49.0224 48.0408 49.0224L48.5809 49.0327C48.8934 49.0463 49.1414 49.0531 49.3249 49.0531C49.5151 49.0531 49.7121 49.0429 49.916 49.0224C49.9839 49.0156 50.0858 49.0088 50.2217 49.002C50.3576 48.9952 50.4765 48.9918 50.5784 48.9918C51.1967 48.9918 51.6757 49.1042 52.0154 49.3292C52.3551 49.5541 52.5249 49.8813 52.5249 50.3107C52.5249 50.6379 52.4162 50.9344 52.1988 51.2002C51.9882 51.4661 51.6825 51.674 51.2816 51.8239ZM50.4255 49.2167C50.2285 49.2167 50.0926 49.2644 50.0179 49.3598C49.9431 49.4485 49.9058 49.6189 49.9058 49.8711V51.8137L50.3134 51.8239C50.6667 51.8239 50.9385 51.691 51.1287 51.4252C51.319 51.1593 51.4141 50.8185 51.4141 50.4027C51.4141 50.0142 51.3292 49.7211 51.1593 49.5234C50.9894 49.3189 50.7449 49.2167 50.4255 49.2167ZM50.6192 55.198C51.5092 55.198 51.9542 54.7344 51.9542 53.8074C51.9542 53.2826 51.8285 52.8668 51.5771 52.5601C51.3258 52.2533 50.9453 52.1 50.4357 52.1C50.2387 52.1 50.062 52.1068 49.9058 52.1204V54.5845C49.9058 54.8094 49.9499 54.9696 50.0383 55.065C50.1266 55.1537 50.3202 55.198 50.6192 55.198ZM57.628 54.7379C57.6416 54.7379 57.6551 54.7515 57.6687 54.7788C57.6891 54.806 57.6925 54.8265 57.6789 54.8401C57.4275 55.0855 57.1728 55.2627 56.9146 55.3718C56.6564 55.4808 56.3744 55.5354 56.0687 55.5354C55.6407 55.5354 55.2704 55.4467 54.9579 55.2695C54.6453 55.0855 54.4075 54.8435 54.2445 54.5436C54.0814 54.2369 53.9999 53.9063 53.9999 53.5518C53.9999 53.1565 54.0984 52.7918 54.2954 52.4578C54.4924 52.1238 54.7642 51.8614 55.1107 51.6705C55.464 51.4729 55.8615 51.374 56.3031 51.374C56.7243 51.374 57.0505 51.4695 57.2815 51.6603C57.5125 51.8512 57.628 52.1477 57.628 52.5498C57.628 52.7611 57.5906 52.8668 57.5159 52.8668L55.0394 52.877C55.0326 52.9247 55.0292 53.0031 55.0292 53.1122C55.0292 53.712 55.1651 54.1823 55.4368 54.5231C55.7154 54.864 56.1129 55.0344 56.6292 55.0344C56.8127 55.0344 56.9689 55.0139 57.098 54.973C57.2271 54.9321 57.397 54.8571 57.6076 54.7481L57.628 54.7379ZM55.9158 51.5785C55.6916 51.5785 55.5048 51.6774 55.3553 51.875C55.2058 52.0659 55.1073 52.3317 55.0598 52.6725L56.5375 52.6521C56.5307 52.3045 56.4798 52.0386 56.3846 51.8546C56.2895 51.6705 56.1333 51.5785 55.9158 51.5785ZM62.1837 54.8605C62.2108 54.8605 62.2278 54.8776 62.2346 54.9117C62.2482 54.9389 62.2414 54.9594 62.2142 54.973L61.1645 55.474C61.1373 55.4876 61.1034 55.4945 61.0626 55.4945C60.9539 55.4945 60.8486 55.4365 60.7467 55.3206C60.6516 55.2048 60.5836 55.048 60.5429 54.8503L60.1046 55.1571C59.9484 55.2729 59.8023 55.3581 59.6664 55.4127C59.5305 55.4604 59.3777 55.4842 59.2078 55.4842C58.9156 55.4842 58.6948 55.4195 58.5454 55.29C58.3959 55.1605 58.3212 54.9798 58.3212 54.7481C58.3212 54.564 58.3653 54.4175 58.4536 54.3084C58.542 54.1926 58.6507 54.1039 58.7798 54.0426C58.9156 53.9744 59.1025 53.8995 59.3403 53.8177L59.5951 53.7256L60.5123 53.3882V52.8055C60.5123 52.3692 60.4749 52.0523 60.4002 51.8546C60.3322 51.6569 60.2133 51.5581 60.0435 51.5581C59.6834 51.5581 59.4796 51.8375 59.432 52.3965C59.4116 52.601 59.3505 52.7475 59.2486 52.8361C59.1534 52.9247 59.0176 52.969 58.8409 52.969C58.6711 52.969 58.5454 52.935 58.4638 52.8668C58.3891 52.7918 58.3517 52.6964 58.3517 52.5805C58.3517 52.376 58.4706 52.1818 58.7084 51.9977C58.9462 51.8069 59.2316 51.6535 59.5645 51.5376C59.9042 51.4218 60.2031 51.3638 60.4613 51.3638C60.7603 51.3638 61.0015 51.4592 61.1849 51.6501C61.3751 51.8341 61.4703 52.117 61.4703 52.4987V54.3084C61.4703 54.5061 61.5042 54.6595 61.5722 54.7685C61.6469 54.8776 61.7488 54.9321 61.8779 54.9321C61.973 54.9321 62.0715 54.9083 62.1735 54.8605H62.1837ZM60.5225 54.6765C60.5157 54.6492 60.5123 54.6049 60.5123 54.5436V53.5621L60.0741 53.7665C60.0537 53.7734 59.9857 53.8006 59.8702 53.8483C59.7547 53.8892 59.6528 53.9608 59.5645 54.0631C59.483 54.1653 59.4422 54.2846 59.4422 54.4209C59.4422 54.5845 59.4932 54.714 59.5951 54.8094C59.7038 54.898 59.8261 54.9423 59.962 54.9423C60.0707 54.9423 60.1828 54.9049 60.2983 54.8299L60.5225 54.6765ZM67.2885 54.7481C67.3089 54.7481 67.3258 54.7651 67.3394 54.7992C67.3598 54.8333 67.3598 54.8537 67.3394 54.8605L65.933 55.5456C65.9194 55.5524 65.9025 55.5558 65.8821 55.5558C65.8141 55.5558 65.753 55.4842 65.6986 55.3411C65.6511 55.1911 65.6239 54.9901 65.6171 54.7379C65.1687 55.2695 64.6829 55.5354 64.1597 55.5354C63.7861 55.5354 63.4905 55.4195 63.2731 55.1877C63.0625 54.9492 62.9572 54.639 62.9572 54.2573V52.7543C62.9572 52.3113 62.8519 52.0897 62.6412 52.0897C62.5665 52.0897 62.4816 52.1136 62.3865 52.1613H62.3763C62.3491 52.1613 62.3287 52.1443 62.3151 52.1102C62.3015 52.0693 62.3049 52.0454 62.3253 52.0386L63.6909 51.3843L63.7419 51.374C63.7759 51.374 63.8098 51.3911 63.8438 51.4252C63.8846 51.4524 63.905 51.4797 63.905 51.507V53.7665C63.905 54.5027 64.1869 54.8708 64.7508 54.8708C64.9003 54.8708 65.0498 54.8401 65.1993 54.7788C65.3555 54.7106 65.4948 54.6186 65.6171 54.5027V52.7543C65.6171 52.3113 65.5118 52.0897 65.3012 52.0897C65.2264 52.0897 65.1381 52.1136 65.0362 52.1613H65.026C65.0056 52.1613 64.9886 52.1443 64.9751 52.1102C64.9615 52.0693 64.9649 52.0454 64.9852 52.0386L66.3509 51.3843C66.3645 51.3774 66.3815 51.374 66.4018 51.374C66.4358 51.374 66.4698 51.3911 66.5037 51.4252C66.5445 51.4524 66.5649 51.4797 66.5649 51.507V54.2266C66.5649 54.4584 66.5853 54.622 66.626 54.7174C66.6736 54.8128 66.7483 54.8605 66.8503 54.8605C66.9454 54.8605 67.0847 54.8231 67.2681 54.7481H67.2885ZM70.6504 54.697C70.6776 54.697 70.698 54.7106 70.7116 54.7379C70.7319 54.7651 70.7319 54.7856 70.7116 54.7992C70.4602 55.0514 70.2156 55.2389 69.9778 55.3615C69.74 55.4774 69.4886 55.5354 69.2236 55.5354C68.9247 55.5354 68.6699 55.4638 68.4593 55.3206C68.2487 55.1775 68.1434 54.9355 68.1434 54.5947V52.3249C68.1434 52.1136 68.106 51.9671 68.0312 51.8853C67.9565 51.8035 67.8206 51.7626 67.6236 51.7626C67.6168 51.7626 67.6066 51.7523 67.593 51.7319C67.5862 51.7114 67.5828 51.691 67.5828 51.6705C67.5828 51.6433 67.5862 51.6228 67.593 51.6092C67.5998 51.5888 67.61 51.5785 67.6236 51.5785C67.9701 51.5649 68.2487 51.4899 68.4593 51.3536C68.6767 51.2173 68.8432 51.0094 68.9587 50.7299C68.9722 50.7026 68.9994 50.689 69.0402 50.689C69.0878 50.689 69.1115 50.7026 69.1115 50.7299V51.5479C69.5056 51.541 69.9472 51.5104 70.4364 51.4558C70.45 51.4558 70.4636 51.4831 70.4772 51.5376C70.4975 51.5853 70.5077 51.6399 70.5077 51.7012C70.5077 51.7694 70.4942 51.8375 70.467 51.9057C70.4466 51.9671 70.4228 51.9943 70.3956 51.9875C69.954 51.8921 69.526 51.841 69.1115 51.8341V54.2573C69.1115 54.5163 69.1761 54.7072 69.3052 54.8299C69.441 54.9526 69.6177 55.0139 69.8351 55.0139C70.1069 55.0139 70.3719 54.9117 70.63 54.7072L70.6504 54.697ZM75.2664 51.4661C75.28 51.4661 75.2868 51.4865 75.2868 51.5274C75.2868 51.5683 75.28 51.5888 75.2664 51.5888C75.049 51.5888 74.8587 51.6842 74.6957 51.875C74.5394 52.0591 74.3967 52.3283 74.2676 52.6828L73.1364 55.6989C72.7763 56.6532 72.4298 57.3212 72.0969 57.7029C71.7708 58.0915 71.4073 58.2857 71.0064 58.2857C70.8026 58.2857 70.6463 58.2414 70.5376 58.1528C70.4289 58.071 70.3746 57.9483 70.3746 57.7847C70.3746 57.6279 70.4221 57.5087 70.5172 57.4269C70.6124 57.3451 70.7279 57.3042 70.8638 57.3042C70.9385 57.3042 70.9996 57.3144 71.0472 57.3348C71.1015 57.3553 71.1661 57.3894 71.2408 57.4371C71.3699 57.5257 71.4922 57.57 71.6077 57.57C71.764 57.57 71.9033 57.5087 72.0256 57.386C72.1547 57.2701 72.2871 57.0724 72.423 56.793C72.5589 56.5203 72.722 56.1284 72.9122 55.6172L71.2816 52.3147C71.1321 52.0216 71.0132 51.8273 70.9249 51.7319C70.8434 51.6365 70.7415 51.5888 70.6192 51.5888C70.5988 51.5888 70.5886 51.5683 70.5886 51.5274C70.5886 51.4865 70.5988 51.4661 70.6192 51.4661C70.8094 51.4661 70.9555 51.4695 71.0574 51.4763L71.4854 51.4865L72.1886 51.4763C72.2973 51.4695 72.4434 51.4661 72.6268 51.4661C72.6472 51.4661 72.6574 51.4865 72.6574 51.5274C72.6574 51.5683 72.6472 51.5888 72.6268 51.5888C72.4502 51.5888 72.3211 51.6058 72.2396 51.6399C72.158 51.6671 72.1173 51.7149 72.1173 51.783C72.1173 51.8375 72.1377 51.9057 72.1784 51.9875L73.381 54.4516L73.9925 52.6725C74.0536 52.4953 74.0842 52.3351 74.0842 52.192C74.0842 52.0011 74.0299 51.8546 73.9211 51.7523C73.8124 51.6433 73.6562 51.5888 73.4523 51.5888C73.4388 51.5888 73.432 51.5683 73.432 51.5274C73.432 51.4865 73.4388 51.4661 73.4523 51.4661C73.6358 51.4661 73.7751 51.4695 73.8702 51.4763L74.4817 51.4865L74.8893 51.4763C74.9708 51.4695 75.0965 51.4661 75.2664 51.4661ZM79.2831 50.0551C79.2831 50.3005 79.3443 50.5186 79.4666 50.7095C79.5957 50.9003 79.7519 51.0673 79.9354 51.2105C80.1188 51.3536 80.3668 51.5274 80.6793 51.7319C81.019 51.95 81.2908 52.1409 81.4946 52.3045C81.6985 52.468 81.8717 52.6691 82.0144 52.9077C82.1571 53.1395 82.2284 53.4087 82.2284 53.7154C82.2284 54.0699 82.1333 54.3868 81.9431 54.6663C81.7528 54.9389 81.4878 55.1536 81.1481 55.3104C80.8152 55.4604 80.4415 55.5354 80.0271 55.5354C79.7214 55.5354 79.402 55.4945 79.0691 55.4127C78.7362 55.3241 78.512 55.2286 78.3965 55.1264C78.3625 55.0991 78.3353 55.0753 78.315 55.0548C78.3014 55.0275 78.2946 54.9866 78.2946 54.9321L78.264 53.3064V53.2962C78.264 53.269 78.281 53.2553 78.315 53.2553C78.3489 53.2485 78.3693 53.2587 78.3761 53.286C78.5799 53.7018 78.7566 54.0392 78.906 54.2982C79.0623 54.5572 79.2559 54.7856 79.4869 54.9832C79.7247 55.1809 79.9931 55.2798 80.2921 55.2798C80.5638 55.2798 80.788 55.2082 80.9647 55.065C81.1413 54.9151 81.2297 54.6629 81.2297 54.3084C81.2297 54.0085 81.1617 53.7461 81.0258 53.5212C80.8968 53.2962 80.7371 53.1054 80.5468 52.9486C80.3566 52.7918 80.095 52.6044 79.7621 52.3863C79.436 52.175 79.1812 51.9943 78.9978 51.8444C78.8211 51.6944 78.6683 51.5138 78.5392 51.3025C78.4101 51.0912 78.3455 50.8424 78.3455 50.5561C78.3455 50.1948 78.4474 49.8915 78.6513 49.6461C78.8619 49.3939 79.1303 49.2099 79.4564 49.094C79.7825 48.9713 80.1256 48.91 80.4857 48.91C80.7235 48.91 80.9647 48.9338 81.2093 48.9815C81.4539 49.0224 81.6509 49.0736 81.8004 49.1349C81.8615 49.1622 81.9023 49.1928 81.9227 49.2269C81.9431 49.2542 81.9532 49.2917 81.9532 49.3394V50.8424C81.9532 50.8628 81.9363 50.8799 81.9023 50.8935C81.8683 50.9003 81.8479 50.8935 81.8411 50.873L81.7596 50.6788C81.5898 50.2494 81.3893 49.8847 81.1583 49.5848C80.9341 49.2849 80.6182 49.1349 80.2105 49.1349C79.9388 49.1349 79.7146 49.2133 79.5379 49.3701C79.3681 49.5268 79.2831 49.7552 79.2831 50.0551ZM85.4147 55.5456C85.0818 55.5456 84.7897 55.5081 84.5383 55.4331V57.3962C84.5383 57.6007 84.5587 57.7506 84.5994 57.8461C84.647 57.9415 84.7319 58.0062 84.8542 58.0403C84.9833 58.0812 85.1803 58.1017 85.4453 58.1017C85.4657 58.1017 85.4759 58.1221 85.4759 58.163C85.4759 58.2039 85.4657 58.2244 85.4453 58.2244C85.1939 58.2244 84.9969 58.221 84.8542 58.2141L84.0491 58.2039L83.4478 58.2141C83.3459 58.221 83.2032 58.2244 83.0198 58.2244C82.9994 58.2244 82.9892 58.2039 82.9892 58.163C82.9892 58.1221 82.9994 58.1017 83.0198 58.1017C83.1828 58.1017 83.3017 58.0812 83.3765 58.0403C83.458 58.0062 83.5123 57.9415 83.5395 57.8461C83.5735 57.7506 83.5905 57.6007 83.5905 57.3962V52.6623C83.5905 52.4442 83.5667 52.2874 83.5191 52.192C83.4716 52.0966 83.3867 52.0488 83.2644 52.0488C83.1556 52.0488 82.9994 52.0966 82.7956 52.192H82.7752C82.7548 52.192 82.7378 52.175 82.7242 52.1409C82.7038 52.1068 82.7004 52.0863 82.714 52.0795L84.1612 51.374C84.1748 51.3672 84.1918 51.3638 84.2122 51.3638C84.2801 51.3638 84.3412 51.4218 84.3956 51.5376C84.4567 51.6535 84.4975 51.8103 84.5179 52.008C85.0139 51.5581 85.5234 51.3331 86.0467 51.3331C86.332 51.3331 86.597 51.4081 86.8416 51.5581C87.093 51.708 87.2934 51.9262 87.4429 52.2124C87.5924 52.4987 87.6671 52.8327 87.6671 53.2144C87.6671 53.7597 87.555 54.2096 87.3308 54.564C87.1066 54.9117 86.8212 55.1639 86.4747 55.3206C86.135 55.4706 85.7816 55.5456 85.4147 55.5456ZM85.374 51.9057C85.0682 51.9057 84.7897 52.0148 84.5383 52.2329V52.3147V54.7788C84.6877 54.9492 84.844 55.0787 85.0071 55.1673C85.1701 55.2491 85.3706 55.29 85.6084 55.29C86.2947 55.29 86.6378 54.7038 86.6378 53.5314C86.6378 53.0133 86.5155 52.6146 86.2709 52.3351C86.0331 52.0489 85.734 51.9057 85.374 51.9057ZM92.2498 54.8605C92.2769 54.8605 92.2939 54.8776 92.3007 54.9117C92.3143 54.9389 92.3075 54.9594 92.2803 54.973L91.2306 55.474C91.2035 55.4876 91.1695 55.4945 91.1287 55.4945C91.02 55.4945 90.9147 55.4365 90.8128 55.3206C90.7177 55.2048 90.6497 55.048 90.609 54.8503L90.1707 55.1571C90.0145 55.2729 89.8684 55.3581 89.7325 55.4127C89.5966 55.4604 89.4438 55.4842 89.2739 55.4842C88.9818 55.4842 88.761 55.4195 88.6115 55.29C88.462 55.1605 88.3873 54.9798 88.3873 54.7481C88.3873 54.564 88.4314 54.4175 88.5198 54.3084C88.6081 54.1926 88.7168 54.1039 88.8459 54.0426C88.9818 53.9744 89.1686 53.8995 89.4064 53.8177L89.6612 53.7256L90.5784 53.3882V52.8055C90.5784 52.3692 90.541 52.0523 90.4663 51.8546C90.3983 51.6569 90.2795 51.5581 90.1096 51.5581C89.7495 51.5581 89.5457 51.8375 89.4981 52.3965C89.4777 52.601 89.4166 52.7475 89.3147 52.8361C89.2196 52.9247 89.0837 52.969 88.907 52.969C88.7372 52.969 88.6115 52.935 88.5299 52.8668C88.4552 52.7918 88.4178 52.6964 88.4178 52.5805C88.4178 52.376 88.5367 52.1818 88.7745 51.9977C89.0123 51.8069 89.2977 51.6535 89.6306 51.5376C89.9703 51.4218 90.2693 51.3638 90.5274 51.3638C90.8264 51.3638 91.0676 51.4592 91.251 51.6501C91.4413 51.8341 91.5364 52.117 91.5364 52.4987V54.3084C91.5364 54.5061 91.5703 54.6595 91.6383 54.7685C91.713 54.8776 91.8149 54.9321 91.944 54.9321C92.0392 54.9321 92.1377 54.9083 92.2396 54.8605H92.2498ZM90.5886 54.6765C90.5818 54.6492 90.5784 54.6049 90.5784 54.5436V53.5621L90.1402 53.7665C90.1198 53.7734 90.0518 53.8006 89.9363 53.8483C89.8208 53.8892 89.7189 53.9608 89.6306 54.0631C89.5491 54.1653 89.5083 54.2846 89.5083 54.4209C89.5083 54.5845 89.5593 54.714 89.6612 54.8094C89.7699 54.898 89.8922 54.9423 90.0281 54.9423C90.1368 54.9423 90.2489 54.9049 90.3644 54.8299L90.5886 54.6765ZM99.01 48.91C99.3293 48.91 99.6521 48.9372 99.9782 48.9918C100.311 49.0395 100.576 49.1042 100.773 49.186C100.834 49.2065 100.872 49.2337 100.885 49.2678C100.906 49.2951 100.919 49.3462 100.926 49.4212L101.058 50.8424C101.058 50.8628 101.041 50.8765 101.007 50.8833C100.974 50.8901 100.95 50.8799 100.936 50.8526C100.746 50.2937 100.474 49.8677 100.121 49.5746C99.7676 49.2746 99.3429 49.1247 98.8469 49.1247C98.3849 49.1247 97.9705 49.2508 97.6036 49.503C97.2435 49.7484 96.9582 50.1028 96.7475 50.5663C96.5437 51.0298 96.4418 51.5717 96.4418 52.192C96.4418 52.8191 96.5471 53.3712 96.7577 53.8483C96.9751 54.3187 97.2707 54.6833 97.6444 54.9423C98.0248 55.1945 98.4597 55.3206 98.9488 55.3206C99.4176 55.3206 99.8117 55.1945 100.131 54.9423C100.45 54.6833 100.753 54.2607 101.038 53.6745C101.045 53.6541 101.065 53.6473 101.099 53.6541C101.133 53.6609 101.15 53.6745 101.15 53.695L100.997 54.9628C100.984 55.0446 100.97 55.0991 100.957 55.1264C100.943 55.1468 100.906 55.1707 100.844 55.198C100.219 55.4229 99.5875 55.5354 98.9488 55.5354C98.2219 55.5354 97.5696 55.399 96.9921 55.1264C96.4214 54.8469 95.973 54.4584 95.6469 53.9608C95.3207 53.4632 95.1577 52.8975 95.1577 52.2636C95.1577 51.616 95.3241 51.04 95.6571 50.5356C95.9968 50.0244 96.4588 49.6257 97.0431 49.3394C97.6342 49.0531 98.2898 48.91 99.01 48.91ZM105.865 54.8605C105.893 54.8605 105.91 54.8776 105.916 54.9117C105.93 54.9389 105.923 54.9594 105.896 54.973L104.846 55.474C104.819 55.4876 104.785 55.4945 104.744 55.4945C104.636 55.4945 104.53 55.4365 104.428 55.3206C104.333 55.2048 104.265 55.048 104.225 54.8503L103.786 55.1571C103.63 55.2729 103.484 55.3581 103.348 55.4127C103.212 55.4604 103.059 55.4842 102.889 55.4842C102.597 55.4842 102.377 55.4195 102.227 55.29C102.078 55.1605 102.003 54.9798 102.003 54.7481C102.003 54.564 102.047 54.4175 102.135 54.3084C102.224 54.1926 102.332 54.1039 102.461 54.0426C102.597 53.9744 102.784 53.8995 103.022 53.8177L103.277 53.7256L104.194 53.3882V52.8055C104.194 52.3692 104.157 52.0523 104.082 51.8546C104.014 51.6569 103.895 51.5581 103.725 51.5581C103.365 51.5581 103.161 51.8375 103.114 52.3965C103.093 52.601 103.032 52.7475 102.93 52.8361C102.835 52.9247 102.699 52.969 102.523 52.969C102.353 52.969 102.227 52.935 102.146 52.8668C102.071 52.7918 102.033 52.6964 102.033 52.5805C102.033 52.376 102.152 52.1818 102.39 51.9977C102.628 51.8069 102.913 51.6535 103.246 51.5376C103.586 51.4218 103.885 51.3638 104.142 51.3638C104.441 51.3638 104.683 51.4592 104.867 51.6501C105.057 51.8341 105.152 52.117 105.152 52.4987V54.3084C105.152 54.5061 105.186 54.6595 105.254 54.7685C105.329 54.8776 105.431 54.9321 105.56 54.9321C105.655 54.9321 105.753 54.9083 105.855 54.8605H105.865ZM104.204 54.6765C104.197 54.6492 104.194 54.6049 104.194 54.5436V53.5621L103.756 53.7665C103.735 53.7734 103.667 53.8006 103.552 53.8483C103.436 53.8892 103.335 53.9608 103.246 54.0631C103.165 54.1653 103.124 54.2846 103.124 54.4209C103.124 54.5845 103.175 54.714 103.277 54.8094C103.385 54.898 103.508 54.9423 103.644 54.9423C103.752 54.9423 103.864 54.9049 103.98 54.8299L104.204 54.6765ZM108.931 51.3638C109.087 51.3638 109.237 51.4218 109.38 51.5376C109.529 51.6467 109.604 51.7796 109.604 51.9364C109.604 52.0795 109.56 52.1988 109.471 52.2942C109.383 52.3828 109.268 52.4271 109.125 52.4271C109.023 52.4271 108.938 52.4067 108.87 52.3658C108.809 52.3249 108.744 52.2636 108.676 52.1818C108.615 52.1136 108.561 52.0659 108.513 52.0386C108.473 52.0045 108.422 51.9875 108.361 51.9875C108.293 51.9875 108.218 52.0148 108.136 52.0693C108.062 52.117 107.943 52.2227 107.78 52.3863V54.5845C107.78 54.8571 107.844 55.0446 107.973 55.1468C108.102 55.2423 108.34 55.29 108.687 55.29C108.714 55.29 108.727 55.3104 108.727 55.3513C108.727 55.3922 108.714 55.4127 108.687 55.4127C108.449 55.4127 108.262 55.4093 108.126 55.4024L107.301 55.3922L106.699 55.4024C106.597 55.4093 106.458 55.4127 106.281 55.4127C106.261 55.4127 106.251 55.3922 106.251 55.3513C106.251 55.3104 106.261 55.29 106.281 55.29C106.492 55.29 106.635 55.2423 106.71 55.1468C106.784 55.0446 106.822 54.8571 106.822 54.5845V52.6623C106.822 52.451 106.794 52.2976 106.74 52.2022C106.693 52.1 106.614 52.0488 106.506 52.0488C106.39 52.0488 106.227 52.0966 106.017 52.192H105.996C105.976 52.192 105.959 52.175 105.945 52.1409C105.938 52.1068 105.942 52.0863 105.955 52.0795L107.372 51.3843C107.413 51.3706 107.437 51.3638 107.443 51.3638C107.518 51.3638 107.586 51.4354 107.647 51.5785C107.715 51.7149 107.756 51.9023 107.769 52.1409C108.048 51.8546 108.276 51.6535 108.452 51.5376C108.636 51.4218 108.795 51.3638 108.931 51.3638ZM113.581 54.7379C113.595 54.7379 113.608 54.7515 113.622 54.7788C113.642 54.806 113.646 54.8265 113.632 54.8401C113.381 55.0855 113.126 55.2627 112.868 55.3718C112.609 55.4808 112.327 55.5354 112.022 55.5354C111.594 55.5354 111.223 55.4467 110.911 55.2695C110.598 55.0855 110.361 54.8435 110.197 54.5436C110.034 54.2369 109.953 53.9063 109.953 53.5518C109.953 53.1565 110.051 52.7918 110.248 52.4578C110.445 52.1238 110.717 51.8614 111.064 51.6705C111.417 51.4729 111.815 51.374 112.256 51.374C112.677 51.374 113.004 51.4695 113.235 51.6603C113.466 51.8512 113.581 52.1477 113.581 52.5498C113.581 52.7611 113.544 52.8668 113.469 52.8668L110.992 52.877C110.986 52.9247 110.982 53.0031 110.982 53.1122C110.982 53.712 111.118 54.1823 111.39 54.5231C111.668 54.864 112.066 55.0344 112.582 55.0344C112.766 55.0344 112.922 55.0139 113.051 54.973C113.18 54.9321 113.35 54.8571 113.561 54.7481L113.581 54.7379ZM111.869 51.5785C111.645 51.5785 111.458 51.6774 111.308 51.875C111.159 52.0659 111.06 52.3317 111.013 52.6725L112.491 52.6521C112.484 52.3045 112.433 52.0386 112.338 51.8546C112.243 51.6705 112.086 51.5785 111.869 51.5785ZM123.664 55.29C123.691 55.2968 123.701 55.3206 123.694 55.3615C123.694 55.3956 123.684 55.4127 123.664 55.4127H121.992C121.802 55.4127 121.476 55.2457 121.014 54.9117C120.504 55.3275 119.855 55.5354 119.067 55.5354C118.599 55.5354 118.204 55.4672 117.885 55.3309C117.566 55.1945 117.328 55.0139 117.172 54.789C117.015 54.564 116.937 54.3255 116.937 54.0733C116.937 53.7461 117.049 53.453 117.274 53.194C117.498 52.935 117.838 52.635 118.293 52.2942C118.184 52.1511 118.079 51.9875 117.977 51.8035C117.882 51.6126 117.807 51.432 117.753 51.2616C117.705 51.0912 117.681 50.9037 117.681 50.6992C117.681 50.1471 117.855 49.6938 118.201 49.3394C118.554 48.9849 119.033 48.8077 119.638 48.8077C120.059 48.8077 120.392 48.8997 120.637 49.0838C120.881 49.261 121.004 49.5098 121.004 49.8302C121.004 50.096 120.926 50.3414 120.769 50.5663C120.62 50.7844 120.447 50.9685 120.25 51.1184C120.052 51.2684 119.747 51.4831 119.332 51.7626C119.821 52.4919 120.504 53.2076 121.381 53.9097C121.442 53.6711 121.472 53.4019 121.472 53.102C121.472 52.7066 121.408 52.4203 121.279 52.2431C121.15 52.0591 120.939 51.9671 120.647 51.9671C120.633 51.9671 120.623 51.9466 120.616 51.9057C120.616 51.8648 120.627 51.8444 120.647 51.8444L123.073 51.8341C123.093 51.8341 123.103 51.8546 123.103 51.8955C123.103 51.9364 123.093 51.9568 123.073 51.9568C122.869 51.9568 122.716 51.9807 122.614 52.0284C122.519 52.0693 122.444 52.1409 122.39 52.2431C122.342 52.3454 122.288 52.5089 122.227 52.7339C122.152 53.0065 122.074 53.2553 121.992 53.4803C121.911 53.7052 121.805 53.9233 121.676 54.1346C122.118 54.4686 122.509 54.731 122.848 54.9219C123.195 55.1128 123.467 55.2354 123.664 55.29ZM118.639 49.8199C118.639 50.3516 118.826 50.9276 119.2 51.5479C119.682 51.0775 119.923 50.5765 119.923 50.0449C119.923 49.745 119.852 49.5098 119.709 49.3394C119.573 49.169 119.393 49.0838 119.169 49.0838C118.979 49.0838 118.843 49.1451 118.762 49.2678C118.68 49.3905 118.639 49.5746 118.639 49.8199ZM119.852 55.0344C120.246 55.0344 120.572 54.9458 120.83 54.7685C120.722 54.6936 120.576 54.5811 120.392 54.4311C120.046 54.1517 119.696 53.8415 119.342 53.5007C118.996 53.1531 118.69 52.8123 118.425 52.4783C118.12 52.7986 117.967 53.136 117.967 53.4905C117.967 53.7563 118.041 54.0085 118.191 54.2471C118.347 54.4788 118.568 54.6697 118.853 54.8197C119.139 54.9628 119.472 55.0344 119.852 55.0344ZM133.327 49.0224C133.34 49.0224 133.347 49.0429 133.347 49.0838C133.347 49.1247 133.34 49.1451 133.327 49.1451C133.055 49.1451 132.841 49.2542 132.685 49.4723C132.528 49.6836 132.45 49.9699 132.45 50.3312V55.566C132.45 55.5865 132.433 55.6001 132.399 55.6069C132.372 55.6137 132.352 55.6103 132.338 55.5967L127.558 50.1369V54.1142C127.558 54.4754 127.633 54.7617 127.783 54.973C127.932 55.1843 128.139 55.29 128.404 55.29C128.418 55.29 128.425 55.3104 128.425 55.3513C128.425 55.3922 128.418 55.4127 128.404 55.4127C128.214 55.4127 128.068 55.4093 127.966 55.4024L127.416 55.3922L126.784 55.4024C126.668 55.4093 126.502 55.4127 126.284 55.4127C126.264 55.4127 126.254 55.3922 126.254 55.3513C126.254 55.3104 126.264 55.29 126.284 55.29C126.583 55.29 126.818 55.1843 126.988 54.973C127.164 54.7617 127.253 54.4754 127.253 54.1142V49.7893C127.028 49.5439 126.835 49.3769 126.672 49.2883C126.515 49.1928 126.352 49.1451 126.183 49.1451C126.169 49.1451 126.162 49.1247 126.162 49.0838C126.162 49.0429 126.169 49.0224 126.183 49.0224L126.611 49.0327C126.699 49.0395 126.828 49.0429 126.998 49.0429L127.772 49.0327C127.868 49.0258 127.983 49.0224 128.119 49.0224C128.173 49.0224 128.214 49.0361 128.241 49.0633C128.268 49.0906 128.316 49.1485 128.384 49.2371C128.499 49.3939 128.581 49.4996 128.628 49.5541L132.155 53.6336V50.3312C132.155 49.9631 132.08 49.6734 131.93 49.4621C131.781 49.2508 131.574 49.1451 131.309 49.1451C131.295 49.1451 131.288 49.1247 131.288 49.0838C131.288 49.0429 131.295 49.0224 131.309 49.0224L131.747 49.0327C131.964 49.0463 132.148 49.0531 132.297 49.0531C132.433 49.0531 132.623 49.0463 132.868 49.0327L133.327 49.0224ZM137.723 54.8605C137.75 54.8605 137.767 54.8776 137.773 54.9117C137.787 54.9389 137.78 54.9594 137.753 54.973L136.703 55.474C136.676 55.4876 136.642 55.4945 136.601 55.4945C136.493 55.4945 136.387 55.4365 136.286 55.3206C136.19 55.2048 136.122 55.048 136.082 54.8503L135.643 55.1571C135.487 55.2729 135.341 55.3581 135.205 55.4127C135.069 55.4604 134.917 55.4842 134.747 55.4842C134.454 55.4842 134.234 55.4195 134.084 55.29C133.935 55.1605 133.86 54.9798 133.86 54.7481C133.86 54.564 133.904 54.4175 133.992 54.3084C134.081 54.1926 134.19 54.1039 134.319 54.0426C134.454 53.9744 134.641 53.8995 134.879 53.8177L135.134 53.7256L136.051 53.3882V52.8055C136.051 52.3692 136.014 52.0523 135.939 51.8546C135.871 51.6569 135.752 51.5581 135.582 51.5581C135.222 51.5581 135.018 51.8375 134.971 52.3965C134.95 52.601 134.889 52.7475 134.787 52.8361C134.692 52.9247 134.556 52.969 134.38 52.969C134.21 52.969 134.084 52.935 134.003 52.8668C133.928 52.7918 133.891 52.6964 133.891 52.5805C133.891 52.376 134.009 52.1818 134.247 51.9977C134.485 51.8069 134.77 51.6535 135.103 51.5376C135.443 51.4218 135.742 51.3638 136 51.3638C136.299 51.3638 136.54 51.4592 136.724 51.6501C136.914 51.8341 137.009 52.117 137.009 52.4987V54.3084C137.009 54.5061 137.043 54.6595 137.111 54.7685C137.186 54.8776 137.288 54.9321 137.417 54.9321C137.512 54.9321 137.61 54.9083 137.712 54.8605H137.723ZM136.061 54.6765C136.055 54.6492 136.051 54.6049 136.051 54.5436V53.5621L135.613 53.7665C135.593 53.7734 135.525 53.8006 135.409 53.8483C135.294 53.8892 135.192 53.9608 135.103 54.0631C135.022 54.1653 134.981 54.2846 134.981 54.4209C134.981 54.5845 135.032 54.714 135.134 54.8094C135.243 54.898 135.365 54.9423 135.501 54.9423C135.609 54.9423 135.722 54.9049 135.837 54.8299L136.061 54.6765ZM139.118 50.3516C138.921 50.3516 138.768 50.2971 138.659 50.188C138.551 50.079 138.496 49.9256 138.496 49.7279C138.496 49.5507 138.551 49.411 138.659 49.3087C138.775 49.1997 138.928 49.1451 139.118 49.1451C139.308 49.1451 139.454 49.1963 139.556 49.2985C139.658 49.4007 139.709 49.5439 139.709 49.7279C139.709 49.9256 139.658 50.079 139.556 50.188C139.454 50.2971 139.308 50.3516 139.118 50.3516ZM138.139 55.4127C138.119 55.4127 138.109 55.3922 138.109 55.3513C138.109 55.3104 138.119 55.29 138.139 55.29C138.35 55.29 138.493 55.2423 138.568 55.1468C138.642 55.0446 138.68 54.8571 138.68 54.5845V52.7543C138.68 52.5226 138.656 52.3556 138.608 52.2533C138.561 52.1511 138.483 52.1 138.374 52.1C138.286 52.1 138.16 52.1375 137.997 52.2124H137.987C137.959 52.2124 137.939 52.1954 137.925 52.1613C137.912 52.1204 137.915 52.0966 137.936 52.0897L139.475 51.374L139.505 51.3638C139.539 51.3638 139.573 51.3809 139.607 51.4149C139.641 51.449 139.658 51.4797 139.658 51.507V51.7319C139.644 52.0045 139.638 52.3385 139.638 52.7339V54.5845C139.638 54.8571 139.675 55.0446 139.75 55.1468C139.831 55.2423 139.977 55.29 140.188 55.29C140.208 55.29 140.219 55.3104 140.219 55.3513C140.219 55.3922 140.208 55.4127 140.188 55.4127C140.011 55.4127 139.872 55.4093 139.77 55.4024L139.159 55.3922L138.557 55.4024C138.455 55.4093 138.316 55.4127 138.139 55.4127ZM140.776 55.4127C140.762 55.4127 140.755 55.3922 140.755 55.3513C140.755 55.3104 140.762 55.29 140.776 55.29C140.986 55.29 141.129 55.2423 141.204 55.1468C141.285 55.0446 141.326 54.8571 141.326 54.5845L141.336 49.3905C141.336 49.1519 141.312 48.9815 141.265 48.8793C141.224 48.7771 141.149 48.7259 141.041 48.7259C140.952 48.7259 140.823 48.7634 140.653 48.8384H140.643C140.623 48.8384 140.602 48.8214 140.582 48.7873C140.568 48.7464 140.568 48.7225 140.582 48.7157L142.08 48.0102L142.121 48C142.155 48 142.192 48.017 142.233 48.0511C142.274 48.0784 142.294 48.1057 142.294 48.1329V54.5845C142.294 54.8571 142.332 55.0446 142.406 55.1468C142.481 55.2423 142.624 55.29 142.834 55.29C142.861 55.29 142.875 55.3104 142.875 55.3513C142.875 55.3922 142.861 55.4127 142.834 55.4127C142.664 55.4127 142.529 55.4093 142.427 55.4024L141.805 55.3922L141.193 55.4024C141.092 55.4093 140.952 55.4127 140.776 55.4127ZM147.308 50.0551C147.308 50.3005 147.369 50.5186 147.492 50.7095C147.621 50.9003 147.777 51.0673 147.961 51.2105C148.144 51.3536 148.392 51.5274 148.704 51.7319C149.044 51.95 149.316 52.1409 149.52 52.3045C149.724 52.468 149.897 52.6691 150.04 52.9077C150.182 53.1395 150.254 53.4087 150.254 53.7154C150.254 54.0699 150.158 54.3868 149.968 54.6663C149.778 54.9389 149.513 55.1536 149.173 55.3104C148.84 55.4604 148.467 55.5354 148.052 55.5354C147.746 55.5354 147.427 55.4945 147.094 55.4127C146.761 55.3241 146.537 55.2286 146.422 55.1264C146.388 55.0991 146.36 55.0753 146.34 55.0548C146.326 55.0275 146.32 54.9866 146.32 54.9321L146.289 53.3064V53.2962C146.289 53.269 146.306 53.2553 146.34 53.2553C146.374 53.2485 146.394 53.2587 146.401 53.286C146.605 53.7018 146.782 54.0392 146.931 54.2982C147.087 54.5572 147.281 54.7856 147.512 54.9832C147.75 55.1809 148.018 55.2798 148.317 55.2798C148.589 55.2798 148.813 55.2082 148.99 55.065C149.166 54.9151 149.255 54.6629 149.255 54.3084C149.255 54.0085 149.187 53.7461 149.051 53.5212C148.922 53.2962 148.762 53.1054 148.572 52.9486C148.382 52.7918 148.12 52.6044 147.787 52.3863C147.461 52.175 147.206 51.9943 147.023 51.8444C146.846 51.6944 146.693 51.5138 146.564 51.3025C146.435 51.0912 146.371 50.8424 146.371 50.5561C146.371 50.1948 146.473 49.8915 146.676 49.6461C146.887 49.3939 147.155 49.2099 147.482 49.094C147.808 48.9713 148.151 48.91 148.511 48.91C148.749 48.91 148.99 48.9338 149.234 48.9815C149.479 49.0224 149.676 49.0736 149.826 49.1349C149.887 49.1622 149.927 49.1928 149.948 49.2269C149.968 49.2542 149.978 49.2917 149.978 49.3394V50.8424C149.978 50.8628 149.961 50.8799 149.927 50.8935C149.893 50.9003 149.873 50.8935 149.866 50.873L149.785 50.6788C149.615 50.2494 149.414 49.8847 149.183 49.5848C148.959 49.2849 148.643 49.1349 148.236 49.1349C147.964 49.1349 147.74 49.2133 147.563 49.3701C147.393 49.5268 147.308 49.7552 147.308 50.0551ZM155.05 54.8605C155.077 54.8605 155.094 54.8776 155.101 54.9117C155.115 54.9389 155.108 54.9594 155.081 54.973L154.031 55.474C154.004 55.4876 153.97 55.4945 153.929 55.4945C153.821 55.4945 153.715 55.4365 153.613 55.3206C153.518 55.2048 153.45 55.048 153.409 54.8503L152.971 55.1571C152.815 55.2729 152.669 55.3581 152.533 55.4127C152.397 55.4604 152.244 55.4842 152.074 55.4842C151.782 55.4842 151.561 55.4195 151.412 55.29C151.262 55.1605 151.188 54.9798 151.188 54.7481C151.188 54.564 151.232 54.4175 151.32 54.3084C151.409 54.1926 151.517 54.1039 151.646 54.0426C151.782 53.9744 151.969 53.8995 152.207 53.8177L152.462 53.7256L153.379 53.3882V52.8055C153.379 52.3692 153.342 52.0523 153.267 51.8546C153.199 51.6569 153.08 51.5581 152.91 51.5581C152.55 51.5581 152.346 51.8375 152.299 52.3965C152.278 52.601 152.217 52.7475 152.115 52.8361C152.02 52.9247 151.884 52.969 151.708 52.969C151.538 52.969 151.412 52.935 151.33 52.8668C151.256 52.7918 151.218 52.6964 151.218 52.5805C151.218 52.376 151.337 52.1818 151.575 51.9977C151.813 51.8069 152.098 51.6535 152.431 51.5376C152.771 51.4218 153.07 51.3638 153.328 51.3638C153.627 51.3638 153.868 51.4592 154.052 51.6501C154.242 51.8341 154.337 52.117 154.337 52.4987V54.3084C154.337 54.5061 154.371 54.6595 154.439 54.7685C154.514 54.8776 154.615 54.9321 154.745 54.9321C154.84 54.9321 154.938 54.9083 155.04 54.8605H155.05ZM153.389 54.6765C153.382 54.6492 153.379 54.6049 153.379 54.5436V53.5621L152.941 53.7665C152.92 53.7734 152.852 53.8006 152.737 53.8483C152.621 53.8892 152.519 53.9608 152.431 54.0631C152.35 54.1653 152.309 54.2846 152.309 54.4209C152.309 54.5845 152.36 54.714 152.462 54.8094C152.57 54.898 152.693 54.9423 152.829 54.9423C152.937 54.9423 153.049 54.9049 153.165 54.8299L153.389 54.6765ZM155.426 55.4127C155.412 55.4127 155.405 55.3922 155.405 55.3513C155.405 55.3104 155.412 55.29 155.426 55.29C155.636 55.29 155.779 55.2423 155.854 55.1468C155.935 55.0446 155.976 54.8571 155.976 54.5845L155.986 49.3905C155.986 49.1519 155.962 48.9815 155.915 48.8793C155.874 48.7771 155.799 48.7259 155.691 48.7259C155.602 48.7259 155.473 48.7634 155.303 48.8384H155.293C155.273 48.8384 155.252 48.8214 155.232 48.7873C155.218 48.7464 155.218 48.7225 155.232 48.7157L156.73 48.0102L156.771 48C156.805 48 156.842 48.017 156.883 48.0511C156.924 48.0784 156.944 48.1057 156.944 48.1329V54.5845C156.944 54.8571 156.982 55.0446 157.056 55.1468C157.131 55.2423 157.274 55.29 157.484 55.29C157.511 55.29 157.525 55.3104 157.525 55.3513C157.525 55.3922 157.511 55.4127 157.484 55.4127C157.314 55.4127 157.179 55.4093 157.077 55.4024L156.455 55.3922L155.843 55.4024C155.742 55.4093 155.602 55.4127 155.426 55.4127ZM160.211 55.5456C159.79 55.5456 159.42 55.4502 159.1 55.2593C158.788 55.0616 158.547 54.7992 158.377 54.472C158.207 54.138 158.122 53.7768 158.122 53.3882C158.122 52.9452 158.234 52.5703 158.458 52.2636C158.683 51.95 158.968 51.7183 159.314 51.5683C159.661 51.4115 160.018 51.3331 160.385 51.3331C160.806 51.3331 161.173 51.432 161.485 51.6297C161.798 51.8273 162.036 52.0897 162.199 52.4169C162.368 52.7373 162.453 53.0815 162.453 53.4496C162.453 53.8586 162.351 54.2232 162.148 54.5436C161.944 54.8571 161.669 55.1025 161.322 55.2798C160.982 55.457 160.612 55.5456 160.211 55.5456ZM160.517 55.3309C160.782 55.3309 160.982 55.2014 161.118 54.9423C161.261 54.6765 161.332 54.2982 161.332 53.8074C161.332 53.3303 161.271 52.9213 161.149 52.5805C161.027 52.2397 160.867 51.9841 160.67 51.8137C160.473 51.6365 160.262 51.5479 160.038 51.5479C159.495 51.5479 159.223 52.0352 159.223 53.0099C159.223 53.4666 159.28 53.8722 159.396 54.2266C159.511 54.5743 159.668 54.8469 159.865 55.0446C160.062 55.2354 160.279 55.3309 160.517 55.3309ZM167.969 55.29C167.99 55.29 168 55.3104 168 55.3513C168 55.3922 167.99 55.4127 167.969 55.4127C167.793 55.4127 167.654 55.4093 167.552 55.4024L166.94 55.3922L166.349 55.4024C166.24 55.4093 166.098 55.4127 165.921 55.4127C165.901 55.4127 165.89 55.3922 165.89 55.3513C165.89 55.3104 165.901 55.29 165.921 55.29C166.132 55.29 166.274 55.2423 166.349 55.1468C166.424 55.0446 166.461 54.8571 166.461 54.5845V53.1122C166.461 52.7441 166.393 52.4715 166.257 52.2942C166.128 52.117 165.921 52.0284 165.636 52.0284C165.473 52.0284 165.303 52.0625 165.126 52.1306C164.956 52.1988 164.807 52.2908 164.678 52.4067V54.5845C164.678 54.8571 164.715 55.0446 164.79 55.1468C164.871 55.2423 165.017 55.29 165.228 55.29C165.248 55.29 165.259 55.3104 165.259 55.3513C165.259 55.3922 165.248 55.4127 165.228 55.4127C165.051 55.4127 164.912 55.4093 164.81 55.4024L164.199 55.3922L163.597 55.4024C163.495 55.4093 163.356 55.4127 163.18 55.4127C163.159 55.4127 163.149 55.3922 163.149 55.3513C163.149 55.3104 163.159 55.29 163.18 55.29C163.39 55.29 163.533 55.2423 163.608 55.1468C163.682 55.0446 163.72 54.8571 163.72 54.5845V52.6623C163.72 52.451 163.692 52.2976 163.638 52.2022C163.591 52.1 163.512 52.0488 163.404 52.0488C163.288 52.0488 163.125 52.0966 162.915 52.192H162.894C162.874 52.192 162.857 52.175 162.843 52.1409C162.836 52.1068 162.84 52.0863 162.853 52.0795L164.27 51.3843C164.311 51.3706 164.335 51.3638 164.341 51.3638C164.416 51.3638 164.487 51.4388 164.555 51.5888C164.623 51.7319 164.664 51.9296 164.678 52.1818C165.146 51.6228 165.663 51.3434 166.227 51.3434C166.594 51.3434 166.882 51.4627 167.093 51.7012C167.31 51.933 167.419 52.2397 167.419 52.6214V54.5845C167.419 54.8571 167.456 55.0446 167.531 55.1468C167.613 55.2423 167.759 55.29 167.969 55.29Z" fill="#C28565"/>
<path d="M98.5217 40.0939C98.583 40.0939 98.6136 40.1851 98.6136 40.3675C98.6136 40.55 98.583 40.6412 98.5217 40.6412H90.3372C89.6628 40.6412 88.406 39.4402 86.5668 37.0382C84.7276 34.6059 82.5052 31.2157 79.8996 26.8679C79.6544 26.8983 79.3019 26.9135 78.8421 26.9135C77.6466 26.9135 76.8036 26.8983 76.3132 26.8679V36.947C76.3132 37.8896 76.3898 38.5737 76.5431 38.9993C76.6963 39.425 76.9875 39.7138 77.4167 39.8659C77.8765 40.0179 78.5969 40.0939 79.5778 40.0939C79.6391 40.0939 79.6697 40.1851 79.6697 40.3675C79.6697 40.55 79.6391 40.6412 79.5778 40.6412C78.5662 40.6412 77.7692 40.626 77.1868 40.5956L73.6923 40.55L70.3357 40.5956C69.7226 40.626 68.895 40.6412 67.8528 40.6412C67.7608 40.6412 67.7148 40.55 67.7148 40.3675C67.7148 40.1851 67.7608 40.0939 67.8528 40.0939C68.8337 40.0939 69.5387 40.0179 69.9679 39.8659C70.4277 39.7138 70.7342 39.425 70.8875 38.9993C71.0714 38.5433 71.1634 37.8592 71.1634 36.947V15.831C71.1634 14.9188 71.0867 14.2499 70.9335 13.8243C70.7802 13.3986 70.4737 13.1098 70.0139 12.9577C69.5541 12.7753 68.849 12.6841 67.8988 12.6841C67.8375 12.6841 67.8068 12.5929 67.8068 12.4105C67.8068 12.228 67.8375 12.1368 67.8988 12.1368L70.3357 12.1824C71.7458 12.2432 72.8646 12.2736 73.6923 12.2736C74.7345 12.2736 75.8227 12.228 76.9569 12.1368C77.3554 12.1064 77.8459 12.076 78.4283 12.0456C79.0413 12.0152 79.7157 12 80.4514 12C83.2409 12 85.402 12.5169 86.9346 13.5506C88.4673 14.554 89.2336 15.9678 89.2336 17.7921C89.2336 19.4643 88.7738 20.9846 87.8542 22.3528C86.9346 23.6906 85.7085 24.77 84.1758 25.5909C86.6281 29.2394 88.6819 32.0975 90.3372 34.165C91.9925 36.2325 93.4638 37.7375 94.7513 38.6801C96.0387 39.6226 97.2955 40.0939 98.5217 40.0939ZM76.3132 25.5909C77.0489 25.7125 77.9378 25.7733 78.98 25.7733C80.7579 25.7733 82.0301 25.2868 82.7964 24.3139C83.5934 23.3105 83.9919 21.7143 83.9919 19.5251C83.9919 17.032 83.624 15.3141 82.8884 14.3716C82.1527 13.429 81.0951 12.9577 79.7157 12.9577C78.4896 12.9577 77.6159 13.1858 77.0948 13.6419C76.5737 14.0979 76.3132 14.858 76.3132 15.9222V25.5909ZM117.339 38.1784C117.461 38.1784 117.538 38.2544 117.569 38.4064C117.63 38.5281 117.599 38.6193 117.477 38.6801L112.741 40.9148C112.618 40.9756 112.465 41.006 112.281 41.006C111.79 41.006 111.315 40.7476 110.855 40.2307C110.426 39.7138 110.12 39.0145 109.936 38.1328L107.959 39.501C107.254 40.0179 106.595 40.3979 105.982 40.6412C105.368 40.854 104.679 40.9604 103.912 40.9604C102.594 40.9604 101.598 40.6716 100.924 40.0939C100.249 39.5162 99.9122 38.7105 99.9122 37.6767C99.9122 36.8558 100.111 36.2021 100.51 35.7156C100.908 35.1987 101.399 34.8035 101.981 34.5298C102.594 34.2258 103.437 33.8913 104.51 33.5265L105.66 33.116L109.798 31.611V29.0114C109.798 27.0655 109.629 25.6517 109.292 24.77C108.986 23.8882 108.449 23.4474 107.683 23.4474C106.058 23.4474 105.139 24.6939 104.924 27.1871C104.832 28.0993 104.556 28.753 104.096 29.1482C103.667 29.5435 103.054 29.7411 102.257 29.7411C101.491 29.7411 100.924 29.5891 100.556 29.285C100.219 28.9506 100.05 28.5249 100.05 28.008C100.05 27.0959 100.587 26.2294 101.659 25.4085C102.732 24.5571 104.02 23.873 105.522 23.3561C107.054 22.8393 108.403 22.5808 109.568 22.5808C110.917 22.5808 112.005 23.0065 112.833 23.8578C113.691 24.6787 114.12 25.9405 114.12 27.6432V35.7156C114.12 36.5974 114.273 37.2815 114.58 37.7679C114.917 38.2544 115.377 38.4977 115.959 38.4977C116.388 38.4977 116.833 38.3912 117.293 38.1784H117.339ZM109.844 37.3575C109.813 37.2359 109.798 37.0382 109.798 36.7646V32.3863L107.821 33.2985C107.729 33.3289 107.422 33.4505 106.901 33.6633C106.38 33.8457 105.92 34.165 105.522 34.6211C105.154 35.0771 104.97 35.6092 104.97 36.2173C104.97 36.947 105.2 37.5247 105.66 37.9504C106.15 38.3456 106.702 38.5433 107.315 38.5433C107.805 38.5433 108.311 38.376 108.832 38.0416L109.844 37.3575ZM122.852 25.226C122.852 26.1078 123.159 26.8679 123.772 27.5064C124.415 28.1449 125.335 28.8138 126.531 29.5131C127.695 30.182 128.554 30.7141 129.105 31.1093C129.688 31.4742 130.209 32.0063 130.669 32.7056C131.129 33.3745 131.358 34.1954 131.358 35.1683C131.358 36.2021 131.098 37.1751 130.577 38.0872C130.056 38.9993 129.274 39.7442 128.232 40.3219C127.19 40.8692 125.948 41.1429 124.507 41.1429C122.821 41.1429 121.227 40.7324 119.725 39.9115C119.542 39.729 119.45 39.5466 119.45 39.3642L119.358 34.8491C119.358 34.7579 119.434 34.7123 119.588 34.7123C119.771 34.6819 119.879 34.6971 119.909 34.7579C120.4 36.2781 121.212 37.5703 122.346 38.6345C123.481 39.6986 124.63 40.2307 125.795 40.2307C126.439 40.2307 126.944 40.0331 127.312 39.6378C127.711 39.2426 127.91 38.6649 127.91 37.9048C127.91 36.7798 127.588 35.8981 126.944 35.2596C126.301 34.5907 125.35 33.9066 124.094 33.2072C123.021 32.6296 122.208 32.1583 121.657 31.7934C121.105 31.4286 120.614 30.9117 120.185 30.2428C119.756 29.5739 119.542 28.753 119.542 27.78C119.542 25.9861 120.185 24.6787 121.473 23.8578C122.76 23.0065 124.339 22.5808 126.209 22.5808C126.914 22.5808 127.542 22.6264 128.094 22.7176C128.676 22.8089 129.32 22.9913 130.025 23.2649C130.301 23.3561 130.439 23.5234 130.439 23.7666C130.439 24.5267 130.424 25.1196 130.393 25.5453L130.347 27.8256C130.347 27.9168 130.255 27.9624 130.071 27.9624C129.887 27.9624 129.795 27.9168 129.795 27.8256C129.795 27.2479 129.55 26.6246 129.059 25.9557C128.569 25.2564 127.925 24.6635 127.128 24.1771C126.362 23.6906 125.565 23.4474 124.737 23.4474C123.481 23.4474 122.852 24.0402 122.852 25.226ZM167.817 40.0939C167.939 40.0939 168.001 40.1851 168.001 40.3675C168.001 40.55 167.939 40.6412 167.817 40.6412C167.02 40.6412 166.391 40.626 165.931 40.5956L163.173 40.55L160.506 40.5956C160.015 40.626 159.372 40.6412 158.575 40.6412C158.483 40.6412 158.437 40.55 158.437 40.3675C158.437 40.1851 158.483 40.0939 158.575 40.0939C159.525 40.0939 160.169 39.8811 160.506 39.4554C160.874 38.9993 161.058 38.1632 161.058 36.947V30.3796C161.058 28.7378 160.766 27.5216 160.184 26.7311C159.632 25.9405 158.774 25.5453 157.609 25.5453C156.812 25.5453 156.03 25.7125 155.264 26.0469C154.498 26.3814 153.839 26.8375 153.287 27.4152V27.6888V36.947C153.287 38.1632 153.455 38.9993 153.793 39.4554C154.16 39.8811 154.82 40.0939 155.77 40.0939C155.892 40.0939 155.954 40.1851 155.954 40.3675C155.954 40.55 155.892 40.6412 155.77 40.6412C154.973 40.6412 154.344 40.626 153.885 40.5956L151.126 40.55L148.459 40.5956C147.968 40.626 147.325 40.6412 146.528 40.6412C146.436 40.6412 146.39 40.55 146.39 40.3675C146.39 40.1851 146.436 40.0939 146.528 40.0939C147.478 40.0939 148.122 39.8811 148.459 39.4554C148.827 38.9993 149.011 38.1632 149.011 36.947V30.3796C149.011 28.7378 148.719 27.5216 148.137 26.7311C147.585 25.9405 146.727 25.5453 145.562 25.5453C144.826 25.5453 144.091 25.6973 143.355 26.0013C142.65 26.275 142.022 26.6702 141.47 27.1871V36.947C141.47 38.1632 141.638 38.9993 141.976 39.4554C142.344 39.8811 143.003 40.0939 143.953 40.0939C144.045 40.0939 144.091 40.1851 144.091 40.3675C144.091 40.55 144.045 40.6412 143.953 40.6412C143.156 40.6412 142.527 40.626 142.068 40.5956L139.309 40.55L136.596 40.5956C136.136 40.626 135.508 40.6412 134.711 40.6412C134.619 40.6412 134.573 40.55 134.573 40.3675C134.573 40.1851 134.619 40.0939 134.711 40.0939C135.661 40.0939 136.305 39.8811 136.642 39.4554C136.979 38.9993 137.148 38.1632 137.148 36.947V28.3729C137.148 27.4304 137.025 26.7463 136.78 26.3206C136.565 25.8645 136.213 25.6365 135.722 25.6365C135.201 25.6365 134.466 25.8493 133.515 26.275H133.423C133.331 26.275 133.255 26.199 133.193 26.0469C133.163 25.8949 133.178 25.8037 133.239 25.7733L139.631 22.672C139.815 22.6112 139.922 22.5808 139.953 22.5808C140.29 22.5808 140.612 22.9153 140.918 23.5842C141.225 24.2227 141.409 25.0892 141.47 26.1838C143.554 23.721 145.792 22.4896 148.183 22.4896C149.624 22.4896 150.773 22.8393 151.632 23.5386C152.49 24.2379 153.011 25.2412 153.195 26.5486C155.31 23.8426 157.655 22.4896 160.23 22.4896C161.885 22.4896 163.142 22.9609 164 23.9034C164.889 24.846 165.334 26.275 165.334 28.1905V36.947C165.334 38.1632 165.502 38.9993 165.839 39.4554C166.207 39.8811 166.866 40.0939 167.817 40.0939Z" fill="white"/>
<path d="M59.8364 17.5766C59.6987 16.7836 59.3557 15.9002 58.8648 15.1342V15.1331C58.2029 14.1019 57.2739 13.2842 56.2186 13.1892C54.5978 13.0437 53.1284 14.198 52.1305 15.5119C51.8805 15.8416 51.6464 16.1853 51.4193 16.5337C50.7414 17.5743 50.1185 18.6571 49.2514 19.5334C47.6604 21.1405 45.7965 22.1353 43.6068 22.5999C41.4171 23.0645 38.8775 22.5518 36.8116 23.4258C34.7458 24.2998 33.0528 26.3117 31.9677 28.3118C30.1427 31.6763 29.4591 35.5804 29.3972 39.3145V39.3168C29.3925 39.5784 29.3914 39.8377 29.3937 40.0969C29.4178 44.0632 30.5259 48.0448 32.7178 51.3178C35.3653 55.2723 39.9775 59.2457 44.6632 59.2832C46.1429 59.295 47.4654 59.1248 48.6561 58.8128C48.7662 58.7846 48.8006 58.6767 48.7731 58.5899C48.7536 58.5266 48.6997 58.4737 48.616 58.4714C35.707 58.1875 38.874 47.1673 41.4171 44.7343C42.322 43.8685 43.5506 43.9588 44.8628 44.3881C45.4329 44.5747 46.0179 44.8246 46.5995 45.0873L46.6006 45.0885C47.2808 45.3959 47.9564 45.7208 48.5941 45.9824C50.0177 46.5667 51.2587 46.8365 51.9722 45.898C53.9463 43.2984 53.9165 44.3683 54.7836 42.3505C55.2723 41.2125 53.8843 40.4923 52.735 39.9022C52.6341 39.8506 52.6891 39.6945 52.7993 39.718C57.4459 40.7233 56.5926 37.3495 56.5926 37.3495C58.2076 37.441 59.9121 36.1107 59.0151 33.4958C58.1181 30.8809 58.1181 28.6333 58.1181 28.6333C58.305 25.86 59.0564 25.1643 59.5989 22.4404C59.966 20.5892 60.1598 19.436 59.8364 17.5766ZM55.1759 28.7329C55.1071 28.7552 55.0371 28.7764 54.9683 28.7963C54.8478 28.8303 54.763 28.9417 54.763 29.0696V30.0762C54.763 30.3448 54.5405 30.5618 54.2732 30.5443C54.03 30.5278 53.8453 30.3097 53.8453 30.0597V29.0861C53.8453 29.0239 53.796 28.9735 53.7353 28.9735C53.4794 28.9735 53.2259 28.95 52.9747 28.9042C52.9231 28.8949 52.8726 28.923 52.8531 28.9735L52.4471 30.0609C52.3771 30.2474 52.2028 30.3625 52.0181 30.3625C51.9573 30.3625 51.8953 30.3495 51.8357 30.3237C51.6086 30.2228 51.5076 29.9472 51.5971 29.7102L51.8942 28.9148C51.9573 28.7459 51.8862 28.5559 51.7279 28.4749C51.6327 28.4268 51.5387 28.3752 51.4445 28.3189C51.3 28.2332 51.1154 28.2684 51.0087 28.3998L50.309 29.2644C50.2184 29.3758 50.0876 29.4345 49.9557 29.4345C49.8525 29.4345 49.7492 29.3993 49.6632 29.3265C49.4682 29.1623 49.4407 28.8655 49.6024 28.6661L50.325 27.7734C50.4053 27.6736 50.3962 27.5281 50.3056 27.439C50.1954 27.3323 50.091 27.2255 49.9936 27.1188C49.9156 27.0331 49.7905 27.0167 49.6931 27.0789L48.8969 27.5857C48.8224 27.6325 48.7387 27.656 48.6561 27.656C48.499 27.656 48.3441 27.5739 48.2592 27.4226C48.1331 27.2009 48.2156 26.9158 48.4278 26.7797L49.077 26.3668C49.1906 26.294 49.2251 26.1403 49.1516 26.0243C49.0392 25.8494 48.9785 25.7357 48.9704 25.7227C48.8488 25.4952 48.9314 25.2101 49.1527 25.0857C49.3741 24.9614 49.6529 25.0447 49.7756 25.2711C49.7837 25.2864 50.2952 26.2213 51.1991 26.9979C51.69 27.419 52.1959 27.7111 52.7155 27.8766C52.7327 27.8813 52.751 27.886 52.7682 27.893L52.7694 27.8941C53.4634 28.1018 54.1792 28.0831 54.9121 27.8355C55.161 27.7522 55.4305 27.8965 55.4993 28.1593C55.5602 28.4045 55.4111 28.6543 55.1759 28.7329ZM56.0293 25.9668C56.0225 25.9668 56.0155 25.9668 56.0087 25.9668C55.7655 25.9668 55.5624 25.7697 55.5509 25.5187C55.5189 24.7667 55.2516 24.2059 54.7366 23.8012C53.0757 22.4978 49.5049 23.2862 49.4693 23.2944C49.2227 23.3496 48.9773 23.1912 48.9222 22.9378C48.8683 22.6843 49.0231 22.4345 49.2709 22.3782C49.4338 22.3418 53.2936 21.4878 55.2941 23.0563C56.027 23.6311 56.4216 24.4453 56.4663 25.4764C56.479 25.7357 56.2829 25.955 56.0293 25.9668Z" fill="#C28565"/>
<path d="M48.772 58.5888C46.1602 58.7026 42.4035 58.2861 39.3674 55.6291C34.661 51.509 33.4095 43.5143 37.0159 36.5377C37.1868 36.207 37.6629 36.2456 37.7821 36.5999C38.452 38.5872 40.2574 42.2156 44.8617 44.3882C43.5495 43.96 42.321 43.8685 41.4159 44.7344C38.873 47.1662 35.7059 58.1864 48.6148 58.4714C48.6986 58.4726 48.7525 58.5254 48.772 58.5888Z" fill="#AB6A49"/>
<path d="M41.3817 59.9992C38.9993 59.5722 36.6077 58.6772 35.0122 57.6905C34.0865 57.118 33.2503 56.4213 32.4451 55.681C30.8025 53.7876 29.3377 51.73 27.7525 49.7837C25.7555 47.332 23.4981 45.0057 20.6901 43.612C17.733 42.1444 14.2976 41.7784 11.3555 40.3601C12.3718 41.2212 13.6163 41.836 14.8654 42.3075C16.7478 43.0184 18.7264 43.483 20.5123 44.4191C23.1058 45.7799 25.1293 48.0499 26.8933 50.4255C27.1045 50.7094 27.3121 50.9956 27.5185 51.283C27.5518 51.3299 27.4979 51.3898 27.4497 51.3581C24.3504 49.3098 20.7269 48.1485 17.1756 47.041C13.856 46.0063 10.4711 44.9529 7.48644 43.1897C6.77986 42.7732 6.09624 42.3169 5.44013 41.8101C2.3798 39.4498 0.0283353 35.7639 0.00195312 31.9102C2.04943 33.3004 4.59129 34.2095 6.82803 34.7456C10.7899 35.6958 14.9801 35.873 18.6759 37.615C22.4256 39.3818 25.4057 42.5199 27.8065 45.9805C28.0347 46.3102 28.2583 46.6422 28.4763 46.9765C29.4329 48.4429 30.3253 49.9339 31.2545 51.3569C31.2556 51.3592 31.2567 51.3616 31.259 51.3628V51.364C32.9096 53.8943 34.6761 56.2113 37.1273 57.8056C38.0186 58.3851 39.0807 58.9611 40.2565 59.4561C40.6292 59.6133 41.0147 59.7622 41.4081 59.8996C41.4632 59.923 41.4414 60.011 41.3817 59.9992Z" fill="#C28565"/>
<path d="M31.9505 57.2046C29.1368 55.5131 26.1958 53.9716 23.0861 53.6091C20.3251 53.2877 17.4989 52.9791 15.0018 51.7848C16.3174 52.7598 18.0976 53.3381 19.629 53.6583C21.478 54.0455 23.397 54.2718 25.2093 54.8115C26.4791 55.1904 28.2685 56.0879 30.0281 57.0674C30.0797 57.0967 30.0579 57.1788 29.9994 57.1753C29.2928 57.1413 28.5817 57.1601 27.8831 57.2117C25.6647 57.3771 23.4555 57.8299 21.2336 57.7173C18.2926 57.5683 15.4124 56.3905 13.1745 54.4338C13.0518 54.327 12.9313 54.2167 12.812 54.1053C10.9195 52.321 9.55445 49.9631 8.91211 47.415C9.16557 47.5511 9.42485 47.6778 9.69091 47.7951C11.3323 48.5213 13.1734 48.8943 14.957 49.1148C18.1057 49.5055 21.377 49.5759 24.2584 50.9297C24.9478 51.2534 25.597 51.6429 26.2199 52.0758C27.8281 53.1973 29.255 54.618 30.6945 55.974C31.1166 56.3718 31.5468 56.7683 31.9861 57.1507C32.0148 57.1788 31.9838 57.2246 31.9505 57.2046Z" fill="#C28565"/>
<path d="M33.6208 21.1369C33.529 22.0801 32.8947 22.92 31.953 23.2156C30.8759 23.5523 29.745 23.0678 29.2046 22.1105C29.1152 21.9545 29.043 21.7845 28.9891 21.6038C28.6059 20.3216 29.3113 18.9643 30.5651 18.5725C31.8188 18.1806 33.146 18.9021 33.529 20.1844C33.6242 20.5023 33.6518 20.8248 33.6208 21.1369Z" fill="#C28565"/>
<path d="M39.9176 10.6293C39.7995 10.973 39.6596 11.2967 39.4955 11.59C37.916 14.4137 35.5611 15.5152 33.7202 16.157C33.298 14.565 32.9344 12.498 33.6238 10.174C33.766 9.6954 33.953 9.20623 34.1927 8.70651C35.537 5.91566 40.1287 3.40284 40.4006 3.30664C40.4671 3.56004 40.8961 7.79849 39.9176 10.6293Z" fill="#C28565"/>
<path d="M33.9836 4.57515C33.9641 4.63263 33.9446 4.6913 33.9217 4.7476C33.6384 5.45499 33.0775 6.00753 32.6037 6.60346C32.2504 5.9254 31.8019 5.27433 31.6562 4.52471C31.5541 4.00033 31.6081 3.47008 31.7515 2.95509C31.8914 2.45181 32.1163 1.96381 32.3663 1.50747C32.5773 1.12385 32.8068 0.746099 33.0247 0.364837C33.0935 0.244006 33.1612 0.122004 33.2254 0C33.1921 0.351934 33.1589 0.714429 33.1233 1.08748C33.0591 1.78197 32.9903 2.50929 32.9191 3.26127C32.8974 3.49237 32.8756 3.72581 32.8537 3.96161C32.8767 3.72581 32.8974 3.49237 32.9191 3.26127C32.9903 2.50929 33.0579 1.78079 33.1233 1.08748C33.1589 0.714429 33.1921 0.351934 33.2254 0C33.2656 0.132562 33.3091 0.265125 33.3539 0.397688C33.4961 0.815316 33.6521 1.22943 33.7863 1.64823C34.0915 2.59376 34.2887 3.64017 33.9836 4.57515Z" fill="#C28565"/>
<path d="M49.8821 15.0696C49.7536 15.2972 47.1165 18.6159 44.4634 19.9052C44.1456 20.06 43.828 20.1843 43.5148 20.2723C40.4452 21.1275 38.0193 20.2031 36.2734 19.3256C36.8115 18.366 37.5169 17.2726 38.555 16.3119C39.3832 15.5458 40.4224 14.8631 41.7586 14.3997C44.6389 13.3978 49.6229 14.9417 49.8821 15.0696Z" fill="#C28565"/>
<path d="M46.6979 7.65616C46.2804 7.76878 45.8571 7.86851 45.443 7.98817C44.4486 8.2744 43.4299 8.72953 42.8553 9.60827C42.7073 9.83464 42.5949 10.0798 42.502 10.3368L42.5009 10.3379C42.3334 10.7989 42.2279 11.2916 42.0879 11.7644C42.8346 11.6858 43.6135 11.7011 44.3028 11.4054C44.7342 11.2201 45.1001 10.928 45.4121 10.5737C45.7917 10.1467 46.0957 9.63287 46.3504 9.1167C46.5442 8.7237 46.7208 8.3178 46.909 7.92012C46.9686 7.79459 47.0294 7.66908 47.0913 7.5459C46.9617 7.58344 46.831 7.6198 46.6979 7.65616ZM46.3848 8.14066C46.5052 8.0386 46.6256 7.93654 46.7438 7.838C46.6256 7.93772 46.5064 8.0386 46.3848 8.14066Z" fill="#C28565"/>
<path d="M28.3226 33.0806C26.9783 35.8714 22.3855 38.3842 22.1148 38.4804C22.0414 38.1965 21.5103 32.8976 23.0198 30.1971C24.5993 27.3734 26.953 26.2718 28.7941 25.6312L28.7952 25.6301C29.3045 27.5505 29.7278 30.1618 28.3226 33.0806Z" fill="#C28565"/>
<path d="M17.2857 19.517C16.6227 19.8795 15.9861 20.337 15.253 20.486C14.2402 20.6925 13.2056 20.2772 12.304 19.7598C11.9277 19.5452 11.5595 19.3094 11.1867 19.0864C11.0686 19.0161 10.9493 18.9469 10.8301 18.8812C10.9597 18.839 11.0893 18.7943 11.2189 18.7486C11.6272 18.6032 12.0321 18.4436 12.4405 18.3064C13.4212 17.9755 14.5155 17.7691 15.471 18.1691C16.1615 18.4588 16.7018 19.0313 17.2833 19.5158C17.2857 19.517 17.2857 19.517 17.2857 19.517Z" fill="#C28565"/>
<path d="M26.2402 22.4628C25.2745 24.1884 23.7673 26.3423 20.7551 27.3887C17.8748 28.3893 12.8909 26.8455 12.6328 26.7177C12.7762 26.4631 16.0648 22.3326 19.0001 21.5149C22.0684 20.6597 24.4945 21.5829 26.2391 22.4616L26.2402 22.4628Z" fill="#C28565"/>
<path d="M18.2126 30.3835C17.2594 30.7918 16.6286 31.728 16.164 32.6723C15.9702 33.0653 15.7935 33.4712 15.6054 33.8688C15.5457 33.9944 15.485 34.1199 15.4219 34.2431C15.5526 34.2044 15.6845 34.1669 15.8164 34.1316C16.2339 34.019 16.6572 33.9181 17.0713 33.7997C18.0658 33.5123 19.0844 33.0582 19.6579 32.1796C20.0732 31.5438 20.2073 30.7602 20.4253 30.0246V30.0234C19.6797 30.1044 18.9008 30.0891 18.2126 30.3835ZM15.8876 33.8525C16.0448 33.7199 16.2042 33.585 16.367 33.4477C16.2042 33.5862 16.0436 33.7211 15.8876 33.8525Z" fill="#C28565"/>
<path d="M26.6262 18.3742C24.7495 18.8951 22.1951 19.3292 19.3412 17.891C18.2756 17.3548 17.2524 16.3107 16.3933 15.2221V15.221C15.0547 13.5211 14.1198 11.7122 14.0625 11.542C14.3401 11.4669 19.5213 10.9239 22.1618 12.4677C22.8879 12.8923 23.497 13.3709 24.012 13.8813C25.4562 15.3136 26.1639 16.9865 26.6262 18.3742Z" fill="#C28565"/>
<path d="M22.0534 7.75635C22.0304 7.68713 22.0063 7.61909 21.9788 7.55105C21.5797 6.57736 20.6643 5.93216 19.741 5.45704C19.3567 5.25879 18.9598 5.07813 18.571 4.88574C18.4483 4.82474 18.3255 4.76256 18.2051 4.69922C18.243 4.83295 18.2796 4.96786 18.3152 5.10276C18.4253 5.52977 18.5228 5.96266 18.6398 6.38733C18.7545 6.80614 18.899 7.23079 19.0883 7.62496C19.3567 8.18688 19.718 8.68897 20.2227 9.03388C20.8444 9.4574 21.6118 9.59463 22.3298 9.81868V9.81748C22.2599 9.12534 22.2644 8.4086 22.0534 7.75635Z" fill="#C28565"/>
<path d="M29.7227 15.7635C28.0354 14.7746 25.9294 13.2343 24.9063 10.1537C24.7089 9.56013 24.6126 8.88085 24.5862 8.16997C24.4796 5.35097 25.4625 2.05687 25.5623 1.8457C25.8056 1.98999 29.686 5.21959 30.5956 8.17114C30.614 8.23332 30.6323 8.29549 30.6483 8.35649C31.4846 11.4969 30.5818 13.978 29.7227 15.7635Z" fill="#C28565"/>
<path d="M27.8045 45.9815C23.4652 40.293 18.7267 37.8401 13.4422 37.0728C11.5336 36.796 8.1773 36.2012 6.26631 35.9302C4.82218 35.7261 3.3723 35.3906 2.04862 34.7806C3.0821 38.0113 4.99769 40.9336 7.48449 43.1906C6.77791 42.7741 6.09426 42.3178 5.43815 41.811C2.37782 39.4507 0.0263821 35.7648 0 31.9111C2.04749 33.3012 4.58931 34.2104 6.82606 34.7466C10.7879 35.6968 14.9782 35.8739 18.6739 37.616C22.4248 39.3827 25.4037 42.5196 27.8045 45.9815Z" fill="#AB6A49"/>
<path d="M31.2567 51.3664C31.2555 51.3641 31.2532 51.3618 31.252 51.3594C31.2532 51.3618 31.2543 51.3641 31.2567 51.3653V51.3664Z" fill="#AB6A49"/>
<path d="M22.8249 50.7207C18.6864 49.6461 14.1636 50.4181 10.1787 48.8977C10.6857 50.7735 11.6699 52.4945 12.8491 54.0254C12.9546 54.1627 13.0636 54.2999 13.1726 54.4348C13.0498 54.328 12.9294 54.2178 12.8101 54.1064C10.9175 52.322 9.5525 49.964 8.91016 47.416C9.16361 47.5521 9.4229 47.6788 9.68896 47.7962C11.3304 48.5223 13.1714 48.8954 14.9551 49.1159C18.1037 49.5066 21.3751 49.577 24.2565 50.9307C24.9459 51.2545 25.5951 51.644 26.2179 52.0768C25.1477 51.4856 24.0053 51.0269 22.8249 50.7207Z" fill="#AB6A49"/>
<path d="M58.8641 15.1343C58.7437 15.0675 58.6199 15.0077 58.4925 14.9525C56.9497 14.2909 55.0525 14.6018 53.7873 15.7233C52.6138 16.7639 51.9359 18.2572 51.0723 19.5781C49.4147 22.1144 46.6802 23.8154 43.6738 24.0407C40.8853 24.2495 38.1255 24.3433 35.7637 25.8743C33.1989 27.5377 31.5357 30.379 30.6593 33.3528C30.1007 35.2451 29.6763 37.2827 29.3965 39.3134C29.4584 35.5794 30.142 31.6753 31.967 28.3108C33.0521 26.3106 34.7451 24.2999 36.8109 23.4248C38.8768 22.5508 41.4164 23.0634 43.6061 22.5989C45.7958 22.1344 47.6597 21.1396 49.2507 19.5323C50.1178 18.6572 50.7407 17.5733 51.4186 16.5327C51.6457 16.1843 51.8786 15.8406 52.1298 15.511C53.1278 14.1971 54.5971 13.0427 56.2179 13.1882C57.2732 13.2856 58.2023 14.1032 58.8641 15.1343Z" fill="#AB6A49"/>
<path d="M28.7941 25.6318C28.6977 25.6941 22.4864 29.6967 22.1148 38.481C22.0414 38.1971 21.5103 32.8981 23.0198 30.1976C24.6005 27.3739 26.9542 26.2724 28.7941 25.6318Z" fill="#AB6A49"/>
<path d="M20.4265 30.0247C20.4265 30.0247 17.5658 31.2775 15.4219 34.2444C15.485 34.1212 15.5457 33.9957 15.6054 33.8701C15.7935 33.4724 15.9702 33.0666 16.1641 32.6736C16.6286 31.7304 17.2594 30.7942 18.2127 30.3848C18.8997 30.0892 19.6786 30.1045 20.4265 30.0247Z" fill="#AB6A49"/>
<path d="M26.2399 22.4619C26.1137 22.4419 19.2979 21.3661 12.6348 26.7179C12.7782 26.4634 16.0667 22.3328 19.002 21.5152C22.0693 20.6611 24.4952 21.5844 26.2399 22.4619Z" fill="#AB6A49"/>
<path d="M17.2845 19.5168C15.4079 18.495 10.8301 18.8822 10.8301 18.8822C10.9597 18.8399 11.0893 18.7954 11.2189 18.7496C11.6272 18.6041 12.0321 18.4446 12.4405 18.3073C13.4212 17.9765 14.5155 17.7701 15.471 18.1701C16.1615 18.4587 16.703 19.0323 17.2845 19.5168Z" fill="#AB6A49"/>
<path d="M30.5968 8.17232C29.491 6.11702 27.8117 4.38199 25.8021 3.24759C25.2183 4.83481 24.811 6.49007 24.5862 8.16997C24.4795 5.35097 25.4626 2.05687 25.5623 1.8457C25.8078 1.99117 29.6872 5.21959 30.5968 8.17232Z" fill="#AB6A49"/>
<path d="M39.9177 10.6294C40.1254 8.69494 40.0692 6.73116 39.7491 4.81194C37.1958 5.822 35.0061 7.75764 33.625 10.1731C33.7673 9.69446 33.9542 9.20528 34.194 8.70548C35.5383 5.91468 40.1299 3.40186 40.4018 3.30566C40.4671 3.56023 40.8962 7.79869 39.9177 10.6294Z" fill="#AB6A49"/>
<path d="M49.8837 15.0701C49.7552 15.2977 47.1182 18.6164 44.465 19.9057C45.0971 19.4962 45.6821 19.0035 46.2085 18.4603C47.07 17.5759 47.7938 16.5635 48.4568 15.5112C46.3152 14.7111 43.9466 14.5527 41.7225 15.0678C40.6167 15.3235 39.5477 15.7458 38.5566 16.3112C39.3848 15.5452 40.424 14.8624 41.7603 14.399C44.6406 13.3984 49.6245 14.9422 49.8837 15.0701Z" fill="#AB6A49"/>
<path d="M24.012 13.8825C23.3949 13.534 22.7973 13.1762 22.1286 12.9087C20.541 12.2741 18.8297 11.9632 17.1263 11.9996C16.3842 12.0148 15.6443 12.0981 14.9171 12.2483C15.159 13.1117 15.6753 13.9704 16.102 14.7236C16.196 14.8913 16.2936 15.0567 16.3933 15.221C15.0547 13.5211 14.1198 11.7122 14.0625 11.542C14.3401 11.4669 19.5213 10.9239 22.1618 12.4677C22.8868 12.8935 23.497 13.3721 24.012 13.8825Z" fill="#AB6A49"/>
<path d="M18.803 5.44219C18.7572 5.42812 18.7101 5.41403 18.6631 5.39996C18.7973 6.10853 18.9326 6.81591 19.0669 7.52447C19.0726 7.55732 19.0795 7.59016 19.0863 7.623C18.8971 7.22884 18.7538 6.80418 18.6379 6.38538C18.5209 5.96071 18.4233 5.52782 18.3133 5.10081C18.2788 4.9659 18.2421 4.831 18.2031 4.69727C18.3236 4.76062 18.4463 4.82279 18.569 4.88379C18.9579 5.07617 19.3548 5.25683 19.739 5.45509C20.6612 5.93021 21.5777 6.57543 21.9769 7.54912C22.0045 7.61716 22.0297 7.6852 22.0514 7.75441C21.2371 6.66928 20.0854 5.84574 18.803 5.44219Z" fill="#AB6A49"/>
<path d="M33.788 1.64921C33.6538 1.23041 33.4978 0.816293 33.3556 0.398664C33.3108 0.267275 33.2672 0.134712 33.2271 0.000976562L33.226 0.00332508V0.000976562C33.1617 0.122981 33.0941 0.244982 33.0252 0.365814C32.8085 0.747075 32.5779 1.12482 32.3668 1.50842C32.1179 1.96359 31.8919 2.45279 31.752 2.95606C32.0537 2.23342 32.5262 1.58351 33.1227 1.08846C33.1319 1.08025 33.141 1.07321 33.1503 1.065C33.7318 2.12901 34.022 3.35725 33.983 4.57495C34.2893 3.63997 34.092 2.59357 33.788 1.64921Z" fill="#AB6A49"/>
<path d="M47.0932 7.54297C47.0313 7.66615 46.9706 7.79167 46.9109 7.91719C46.7228 8.31488 46.5461 8.72078 46.3522 9.11378C46.0977 9.62995 45.7936 10.1437 45.414 10.5707C45.8464 9.81175 46.1745 8.99061 46.3856 8.14008V8.13891C46.3913 8.11545 46.397 8.09199 46.4039 8.06853C46.3982 8.09081 45.7719 8.29377 45.7088 8.30901C45.4909 8.36063 45.1101 8.5061 44.9001 8.58355C44.1408 8.86503 43.6418 9.10675 43.0614 9.67923C42.9146 9.82349 42.7758 9.97718 42.645 10.1379C42.6037 10.1884 42.5567 10.2751 42.5039 10.3326C42.5968 10.0769 42.7093 9.83052 42.8572 9.60415C43.4319 8.72549 44.4505 8.27148 45.4449 7.98406C45.859 7.86441 46.2823 7.76469 46.6998 7.65207C46.8317 7.61921 46.9625 7.58286 47.0932 7.54297Z" fill="#AB6A49"/>
<path d="M33.6208 21.1367C33.5933 21.0217 33.5841 20.8786 33.56 20.7883C33.5142 20.6158 33.4603 20.4457 33.3926 20.2803C33.2412 19.9084 33.0164 19.5588 32.6997 19.3195C32.3958 19.0884 32.0196 18.9688 31.6422 18.9442C30.7096 18.8831 29.7644 19.4368 29.3446 20.292C29.0705 20.8504 29.0315 21.5144 29.2047 22.1116C29.1152 21.9556 29.043 21.7854 28.9891 21.6047C28.6059 20.3225 29.3113 18.9652 30.5651 18.5734C31.8188 18.1816 33.146 18.9031 33.5291 20.1853C33.6242 20.502 33.6518 20.8246 33.6208 21.1367Z" fill="#AB6A49"/>
<path d="M31.2567 22.5614C32.3628 22.5614 33.2594 21.6443 33.2594 20.5132C33.2594 19.3819 32.3628 18.4648 31.2567 18.4648C30.1506 18.4648 29.2539 19.3819 29.2539 20.5132C29.2539 21.6443 30.1506 22.5614 31.2567 22.5614Z" fill="#AB6A49"/>
</svg>
