<svg width="46" height="46" viewBox="0 0 46 46" fill="none" xmlns="http://www.w3.org/2000/svg">
<rect x="0.5" y="0.5" width="45" height="45" rx="22.5" fill="white" stroke="#E0E0E0"/>
<path d="M18.75 16C19.1042 16 19.3958 16.125 19.625 16.375C19.875 16.6042 20 16.8958 20 17.25V18.75C20 19.1042 19.875 19.3958 19.625 19.625C19.3958 19.875 19.1042 20 18.75 20H17.25C16.8958 20 16.6042 19.875 16.375 19.625C16.125 19.3958 16 19.1042 16 18.75V17.25C16 16.8958 16.125 16.6042 16.375 16.375C16.6042 16.125 16.8958 16 17.25 16H18.75ZM18.75 17H17.25C17.1042 17.0208 17.0208 17.1042 17 17.25V18.75C17.0208 18.8958 17.1042 18.9792 17.25 19H18.75C18.8958 18.9792 18.9792 18.8958 19 18.75V17.25C18.9792 17.1042 18.8958 17.0208 18.75 17ZM18.75 21C19.1042 21 19.3958 21.125 19.625 21.375C19.875 21.6042 20 21.8958 20 22.25V23.75C20 24.1042 19.875 24.3958 19.625 24.625C19.3958 24.875 19.1042 25 18.75 25H17.25C16.8958 25 16.6042 24.875 16.375 24.625C16.125 24.3958 16 24.1042 16 23.75V22.25C16 21.8958 16.125 21.6042 16.375 21.375C16.6042 21.125 16.8958 21 17.25 21H18.75ZM18.75 22H17.25C17.1042 22.0208 17.0208 22.1042 17 22.25V23.75C17.0208 23.8958 17.1042 23.9792 17.25 24H18.75C18.8958 23.9792 18.9792 23.8958 19 23.75V22.25C18.9792 22.1042 18.8958 22.0208 18.75 22ZM16 27.25C16 26.8958 16.125 26.6042 16.375 26.375C16.6042 26.125 16.8958 26 17.25 26H18.75C19.1042 26 19.3958 26.125 19.625 26.375C19.875 26.6042 20 26.8958 20 27.25V28.75C20 29.1042 19.875 29.3958 19.625 29.625C19.3958 29.875 19.1042 30 18.75 30H17.25C16.8958 30 16.6042 29.875 16.375 29.625C16.125 29.3958 16 29.1042 16 28.75V27.25ZM17 27.25V28.75C17.0208 28.8958 17.1042 28.9792 17.25 29H18.75C18.8958 28.9792 18.9792 28.8958 19 28.75V27.25C18.9792 27.1042 18.8958 27.0208 18.75 27H17.25C17.1042 27.0208 17.0208 27.1042 17 27.25ZM23.75 16C24.1042 16 24.3958 16.125 24.625 16.375C24.875 16.6042 25 16.8958 25 17.25V18.75C25 19.1042 24.875 19.3958 24.625 19.625C24.3958 19.875 24.1042 20 23.75 20H22.25C21.8958 20 21.6042 19.875 21.375 19.625C21.125 19.3958 21 19.1042 21 18.75V17.25C21 16.8958 21.125 16.6042 21.375 16.375C21.6042 16.125 21.8958 16 22.25 16H23.75ZM23.75 17H22.25C22.1042 17.0208 22.0208 17.1042 22 17.25V18.75C22.0208 18.8958 22.1042 18.9792 22.25 19H23.75C23.8958 18.9792 23.9792 18.8958 24 18.75V17.25C23.9792 17.1042 23.8958 17.0208 23.75 17ZM21 22.25C21 21.8958 21.125 21.6042 21.375 21.375C21.6042 21.125 21.8958 21 22.25 21H23.75C24.1042 21 24.3958 21.125 24.625 21.375C24.875 21.6042 25 21.8958 25 22.25V23.75C25 24.1042 24.875 24.3958 24.625 24.625C24.3958 24.875 24.1042 25 23.75 25H22.25C21.8958 25 21.6042 24.875 21.375 24.625C21.125 24.3958 21 24.1042 21 23.75V22.25ZM22 22.25V23.75C22.0208 23.8958 22.1042 23.9792 22.25 24H23.75C23.8958 23.9792 23.9792 23.8958 24 23.75V22.25C23.9792 22.1042 23.8958 22.0208 23.75 22H22.25C22.1042 22.0208 22.0208 22.1042 22 22.25ZM23.75 26C24.1042 26 24.3958 26.125 24.625 26.375C24.875 26.6042 25 26.8958 25 27.25V28.75C25 29.1042 24.875 29.3958 24.625 29.625C24.3958 29.875 24.1042 30 23.75 30H22.25C21.8958 30 21.6042 29.875 21.375 29.625C21.125 29.3958 21 29.1042 21 28.75V27.25C21 26.8958 21.125 26.6042 21.375 26.375C21.6042 26.125 21.8958 26 22.25 26H23.75ZM23.75 27H22.25C22.1042 27.0208 22.0208 27.1042 22 27.25V28.75C22.0208 28.8958 22.1042 28.9792 22.25 29H23.75C23.8958 28.9792 23.9792 28.8958 24 28.75V27.25C23.9792 27.1042 23.8958 27.0208 23.75 27ZM26 17.25C26 16.8958 26.125 16.6042 26.375 16.375C26.6042 16.125 26.8958 16 27.25 16H28.75C29.1042 16 29.3958 16.125 29.625 16.375C29.875 16.6042 30 16.8958 30 17.25V18.75C30 19.1042 29.875 19.3958 29.625 19.625C29.3958 19.875 29.1042 20 28.75 20H27.25C26.8958 20 26.6042 19.875 26.375 19.625C26.125 19.3958 26 19.1042 26 18.75V17.25ZM27 17.25V18.75C27.0208 18.8958 27.1042 18.9792 27.25 19H28.75C28.8958 18.9792 28.9792 18.8958 29 18.75V17.25C28.9792 17.1042 28.8958 17.0208 28.75 17H27.25C27.1042 17.0208 27.0208 17.1042 27 17.25ZM28.75 21C29.1042 21 29.3958 21.125 29.625 21.375C29.875 21.6042 30 21.8958 30 22.25V23.75C30 24.1042 29.875 24.3958 29.625 24.625C29.3958 24.875 29.1042 25 28.75 25H27.25C26.8958 25 26.6042 24.875 26.375 24.625C26.125 24.3958 26 24.1042 26 23.75V22.25C26 21.8958 26.125 21.6042 26.375 21.375C26.6042 21.125 26.8958 21 27.25 21H28.75ZM28.75 22H27.25C27.1042 22.0208 27.0208 22.1042 27 22.25V23.75C27.0208 23.8958 27.1042 23.9792 27.25 24H28.75C28.8958 23.9792 28.9792 23.8958 29 23.75V22.25C28.9792 22.1042 28.8958 22.0208 28.75 22ZM26 27.25C26 26.8958 26.125 26.6042 26.375 26.375C26.6042 26.125 26.8958 26 27.25 26H28.75C29.1042 26 29.3958 26.125 29.625 26.375C29.875 26.6042 30 26.8958 30 27.25V28.75C30 29.1042 29.875 29.3958 29.625 29.625C29.3958 29.875 29.1042 30 28.75 30H27.25C26.8958 30 26.6042 29.875 26.375 29.625C26.125 29.3958 26 29.1042 26 28.75V27.25ZM27 27.25V28.75C27.0208 28.8958 27.1042 28.9792 27.25 29H28.75C28.8958 28.9792 28.9792 28.8958 29 28.75V27.25C28.9792 27.1042 28.8958 27.0208 28.75 27H27.25C27.1042 27.0208 27.0208 27.1042 27 27.25Z" fill="#6E6E6E"/>
</svg>
