<svg width="14" height="14" viewBox="0 0 14 14" fill="none" xmlns="http://www.w3.org/2000/svg">
<path d="M7 3.40625C8.02083 3.42708 8.86458 3.78125 9.53125 4.46875C10.2188 5.13542 10.5729 5.97917 10.5938 7C10.5729 8.02083 10.2188 8.86458 9.53125 9.53125C8.86458 10.2188 8.02083 10.5729 7 10.5938C5.97917 10.5729 5.13542 10.2188 4.46875 9.53125C3.78125 8.86458 3.42708 8.02083 3.40625 7C3.42708 5.97917 3.78125 5.13542 4.46875 4.46875C5.13542 3.78125 5.97917 3.42708 7 3.40625ZM7 9.34375C7.66667 9.32292 8.21875 9.09375 8.65625 8.65625C9.09375 8.21875 9.32292 7.66667 9.34375 7C9.32292 6.33333 9.09375 5.78125 8.65625 5.34375C8.21875 4.90625 7.66667 4.67708 7 4.65625C6.33333 4.67708 5.78125 4.90625 5.34375 5.34375C4.90625 5.78125 4.67708 6.33333 4.65625 7C4.67708 7.66667 4.90625 8.21875 5.34375 8.65625C5.78125 9.09375 6.33333 9.32292 7 9.34375ZM11.5938 3.25C11.5729 3.02083 11.4896 2.82292 11.3438 2.65625C11.1771 2.51042 10.9792 2.4375 10.75 2.4375C10.5 2.4375 10.3021 2.51042 10.1562 2.65625C9.98958 2.82292 9.90625 3.02083 9.90625 3.25C9.94792 3.77083 10.2292 4.05208 10.75 4.09375C11.25 4.05208 11.5312 3.77083 11.5938 3.25ZM13.9688 4.125V4.09375C13.9896 4.51042 14 5.10417 14 5.875C14 6.625 14 7.375 14 8.125C14 8.875 13.9896 9.45833 13.9688 9.875C13.9688 11.0208 13.5833 12 12.8125 12.8125C12 13.5833 11.0312 13.9583 9.90625 13.9375C9.48958 13.9583 8.89583 13.9792 8.125 14C7.375 14 6.625 14 5.875 14C5.10417 13.9792 4.52083 13.9583 4.125 13.9375C2.97917 13.9583 2 13.5833 1.1875 12.8125C0.416667 12 0.0416667 11.0208 0.0625 9.875C0.0208333 9.45833 0 8.875 0 8.125C0 7.375 0 6.625 0 5.875C0 5.10417 0.0208333 4.51042 0.0625 4.09375C0.0416667 2.96875 0.416667 2 1.1875 1.1875C2.02083 0.416667 3 0.03125 4.125 0.03125C4.52083 0.0104167 5.10417 0 5.875 0C6.625 0 7.375 0 8.125 0C8.89583 0 9.48958 0.0104167 9.90625 0.03125C11.0312 0.03125 12 0.416667 12.8125 1.1875C13.5833 2 13.9688 2.97917 13.9688 4.125ZM12.4688 11.125C12.6146 10.7083 12.6979 10.1458 12.7188 9.4375C12.7604 8.72917 12.7708 8.08333 12.75 7.5C12.75 7.3125 12.75 7.14583 12.75 7C12.75 6.85417 12.75 6.6875 12.75 6.5C12.7708 5.91667 12.7604 5.27083 12.7188 4.5625C12.6979 3.85417 12.6146 3.29167 12.4688 2.875C12.1979 2.25 11.75 1.80208 11.125 1.53125C10.7083 1.38542 10.1458 1.30208 9.4375 1.28125C8.72917 1.26042 8.08333 1.25 7.5 1.25C7.3125 1.25 7.14583 1.25 7 1.25C6.85417 1.25 6.6875 1.25 6.5 1.25C5.91667 1.22917 5.27083 1.23958 4.5625 1.28125C3.875 1.30208 3.3125 1.38542 2.875 1.53125C2.25 1.80208 1.80208 2.25 1.53125 2.875C1.38542 3.29167 1.30208 3.85417 1.28125 4.5625C1.26042 5.27083 1.25 5.91667 1.25 6.5C1.25 6.6875 1.25 6.85417 1.25 7C1.25 7.14583 1.25 7.3125 1.25 7.5C1.25 8.08333 1.26042 8.72917 1.28125 9.4375C1.30208 10.125 1.38542 10.6875 1.53125 11.125C1.80208 11.75 2.25 12.1979 2.875 12.4688C3.3125 12.6146 3.875 12.6979 4.5625 12.7188C5.27083 12.7396 5.91667 12.75 6.5 12.75C6.6875 12.75 6.85417 12.75 7 12.75C7.14583 12.75 7.3125 12.75 7.5 12.75C8.08333 12.75 8.72917 12.7396 9.4375 12.7188C10.1458 12.6979 10.7083 12.6146 11.125 12.4688C11.75 12.1979 12.1979 11.75 12.4688 11.125Z" fill="white"/>
</svg>
