<svg width="15" height="15" viewBox="0 0 15 15" fill="none" xmlns="http://www.w3.org/2000/svg">
<path d="M3.125 15H0.21875V5.65625H3.125V15ZM1.6875 4.375C1.20833 4.35417 0.8125 4.1875 0.5 3.875C0.1875 3.5625 0.0208333 3.16667 0 2.6875C0.0416667 2.02083 0.322917 1.53125 0.84375 1.21875C1.36458 0.927083 1.92708 0.927083 2.53125 1.21875C3.07292 1.55208 3.35417 2.04167 3.375 2.6875C3.35417 3.16667 3.1875 3.5625 2.875 3.875C2.5625 4.1875 2.16667 4.35417 1.6875 4.375ZM14 15H11.0938V10.4375C11.1354 9.875 11.0729 9.33333 10.9062 8.8125C10.7396 8.29167 10.3021 8.01042 9.59375 7.96875C8.86458 7.98958 8.38542 8.23958 8.15625 8.71875C7.92708 9.19792 7.82292 9.75 7.84375 10.375V15H4.9375V5.65625H7.75V6.9375H7.78125C7.96875 6.54167 8.29167 6.19792 8.75 5.90625C9.22917 5.59375 9.82292 5.42708 10.5312 5.40625C11.9479 5.44792 12.8958 5.875 13.375 6.6875C13.8333 7.52083 14.0417 8.58333 14 9.875V15Z" fill="white"/>
</svg>
