<svg width="13" height="13" viewBox="0 0 13 13" fill="none" xmlns="http://www.w3.org/2000/svg">
<path d="M2.73438 13H0.191406V4.82422H2.73438V13ZM1.47656 3.70312C1.05729 3.6849 0.710938 3.53906 0.4375 3.26562C0.164062 2.99219 0.0182292 2.64583 0 2.22656C0.0364583 1.64323 0.282552 1.21484 0.738281 0.941406C1.19401 0.686198 1.6862 0.686198 2.21484 0.941406C2.6888 1.23307 2.9349 1.66146 2.95312 2.22656C2.9349 2.64583 2.78906 2.99219 2.51562 3.26562C2.24219 3.53906 1.89583 3.6849 1.47656 3.70312ZM12.25 13H9.70703V9.00781C9.74349 8.51562 9.6888 8.04167 9.54297 7.58594C9.39714 7.13021 9.01432 6.88411 8.39453 6.84766C7.75651 6.86589 7.33724 7.08464 7.13672 7.50391C6.9362 7.92318 6.84505 8.40625 6.86328 8.95312V13H4.32031V4.82422H6.78125V5.94531H6.80859C6.97266 5.59896 7.25521 5.29818 7.65625 5.04297C8.07552 4.76953 8.59505 4.6237 9.21484 4.60547C10.4544 4.64193 11.2839 5.01562 11.7031 5.72656C12.1042 6.45573 12.2865 7.38542 12.25 8.51562V13Z" fill="#B2B2B2"/>
</svg>
