<svg width="26" height="26" viewBox="0 0 26 26" fill="none" xmlns="http://www.w3.org/2000/svg">
<path d="M0 0H26V26H0V0Z" fill="#C28565"/>
<path d="M12.9375 19.1953C12.5156 18.6797 11.9922 17.9844 11.3672 17.1094C10.7578 16.25 10.2188 15.3594 9.75 14.4375C9.28125 13.5156 9.03125 12.7031 9 12C9.03125 10.7188 9.46875 9.65625 10.3125 8.8125C11.1562 7.96875 12.2188 7.53125 13.5 7.5C14.7812 7.53125 15.8438 7.96875 16.6875 8.8125C17.5312 9.65625 17.9688 10.7188 18 12C17.9688 12.7031 17.7188 13.5156 17.25 14.4375C16.7656 15.3594 16.2188 16.25 15.6094 17.1094C15 17.9844 14.4844 18.6797 14.0625 19.1953C13.9062 19.3828 13.7188 19.4766 13.5 19.4766C13.2812 19.4766 13.0938 19.3828 12.9375 19.1953ZM13.5 13.5C13.9219 13.4844 14.2734 13.3359 14.5547 13.0547C14.8359 12.7734 14.9844 12.4219 15 12C14.9844 11.5781 14.8359 11.2266 14.5547 10.9453C14.2734 10.6641 13.9219 10.5156 13.5 10.5C13.0781 10.5156 12.7266 10.6641 12.4453 10.9453C12.1641 11.2266 12.0156 11.5781 12 12C12.0156 12.4219 12.1641 12.7734 12.4453 13.0547C12.7266 13.3359 13.0781 13.4844 13.5 13.5Z" fill="white"/>
</svg>
