<svg width="26" height="26" viewBox="0 0 26 26" fill="none" xmlns="http://www.w3.org/2000/svg">
<path d="M0 0H26V26H0V0Z" fill="#C28565"/>
<path d="M17.875 9C18.1875 9.01562 18.4531 9.125 18.6719 9.32812C18.875 9.54688 18.9844 9.8125 19 10.125C18.9844 10.5 18.8359 10.7969 18.5547 11.0156L13.4453 14.8594C13.1484 15.0469 12.8516 15.0469 12.5547 14.8594L7.44531 11.0156C7.16406 10.7969 7.01562 10.5 7 10.125C7.01562 9.8125 7.125 9.54688 7.32812 9.32812C7.54688 9.125 7.8125 9.01562 8.125 9H17.875ZM12.1094 15.4453C12.375 15.6484 12.6719 15.75 13 15.75C13.3281 15.75 13.625 15.6484 13.8906 15.4453L19 11.625V16.5C18.9844 16.9219 18.8359 17.2734 18.5547 17.5547C18.2734 17.8359 17.9219 17.9844 17.5 18H8.5C8.07812 17.9844 7.72656 17.8359 7.44531 17.5547C7.16406 17.2734 7.01562 16.9219 7 16.5V11.625L12.1094 15.4453Z" fill="white"/>
</svg>
