<svg width="15" height="15" viewBox="0 0 15 15" fill="none" xmlns="http://www.w3.org/2000/svg">
<path d="M13.125 9.5C13.4531 9.64583 13.6901 9.8737 13.8359 10.1836C13.9818 10.4753 14.0182 10.7943 13.9453 11.1406L13.3711 13.6289C13.2982 13.9753 13.1341 14.2487 12.8789 14.4492C12.6237 14.6497 12.332 14.75 12.0039 14.75C9.76172 14.7318 7.73828 14.1849 5.93359 13.1094C4.14714 12.0339 2.71615 10.6029 1.64062 8.81641C0.565104 7.01172 0.0182292 4.98828 0 2.74609C0 2.41797 0.10026 2.1263 0.300781 1.87109C0.501302 1.61589 0.77474 1.44271 1.12109 1.35156L3.60938 0.777344C3.95573 0.704427 4.27474 0.75 4.56641 0.914062C4.8763 1.0599 5.10417 1.29688 5.25 1.625L6.39844 4.33203C6.52604 4.6237 6.55339 4.92448 6.48047 5.23438C6.40755 5.54427 6.24349 5.79948 5.98828 6L5.05859 6.76562C5.78776 7.98698 6.77214 8.96224 8.01172 9.69141L8.77734 8.76172C8.97786 8.50651 9.23307 8.34245 9.54297 8.26953C9.85286 8.19661 10.1536 8.22396 10.4453 8.35156L13.125 9.5ZM12.6875 10.8398C12.6875 10.7852 12.6602 10.7305 12.6055 10.6758L9.92578 9.52734C9.87109 9.50911 9.82552 9.52734 9.78906 9.58203L8.69531 10.8945C8.45833 11.1497 8.19401 11.2135 7.90234 11.0859C6.97266 10.6302 6.14323 10.0378 5.41406 9.30859C4.70312 8.57943 4.11068 7.75 3.63672 6.82031C3.50911 6.51042 3.57292 6.24609 3.82812 6.02734L5.16797 4.96094C5.20443 4.92448 5.21354 4.87891 5.19531 4.82422L4.04688 2.14453C4.01042 2.08984 3.97396 2.0625 3.9375 2.0625C3.91927 2.0625 3.91016 2.0625 3.91016 2.0625L1.39453 2.63672C1.33984 2.65495 1.3125 2.69141 1.3125 2.74609C1.33073 4.73307 1.8138 6.52865 2.76172 8.13281C3.72786 9.73698 5.01302 11.0221 6.61719 11.9883C8.22135 12.9362 10.0169 13.4193 12.0039 13.4375C12.0586 13.4193 12.0951 13.3919 12.1133 13.3555L12.6875 10.8398Z" fill="#C28565"/>
</svg>
