<svg width="26" height="26" viewBox="0 0 26 26" fill="none" xmlns="http://www.w3.org/2000/svg">
<path d="M0 0H26V26H0V0Z" fill="#C28565"/>
<path d="M18.9766 16.5703L18.4375 18.9375C18.3281 19.2969 18.0859 19.4844 17.7109 19.5C15.7266 19.4844 13.9297 18.9922 12.3203 18.0234C10.7109 17.0703 9.42969 15.7891 8.47656 14.1797C7.50781 12.5703 7.01562 10.7734 7 8.78906C7.01562 8.41406 7.20312 8.17188 7.5625 8.0625L9.92969 7.52344C10.3047 7.46094 10.5859 7.60156 10.7734 7.94531L11.8516 10.4766C11.9766 10.8203 11.9062 11.1094 11.6406 11.3438L10.3984 12.3516C10.7891 13.1641 11.3047 13.8906 11.9453 14.5312C12.5859 15.1719 13.3125 15.6953 14.125 16.1016L15.1562 14.8359C15.3906 14.5703 15.6797 14.5 16.0234 14.625L18.5547 15.7031C18.8828 15.9062 19.0234 16.1953 18.9766 16.5703Z" fill="white"/>
</svg>
