<svg width="70" height="70" viewBox="0 0 70 70" fill="none" xmlns="http://www.w3.org/2000/svg">
<path d="M35 70C28.0777 70 21.3108 67.9473 15.5551 64.1014C9.79933 60.2556 5.3133 54.7893 2.66423 48.3939C0.0151651 41.9985 -0.677952 34.9612 0.672531 28.1718C2.02301 21.3825 5.35644 15.1461 10.2513 10.2513C15.1461 5.35644 21.3825 2.02301 28.1718 0.672531C34.9612 -0.677952 41.9985 0.0151651 48.3939 2.66423C54.7893 5.3133 60.2556 9.79933 64.1014 15.5551C67.9473 21.3108 70 28.0777 70 35C69.9894 44.2793 66.2985 53.1756 59.737 59.737C53.1756 66.2985 44.2793 69.9894 35 70ZM35 2.00002C28.4732 2.00002 22.093 3.93543 16.6662 7.56152C11.2394 11.1876 7.00968 16.3415 4.51199 22.3715C2.0143 28.4014 1.36079 35.0366 2.6341 41.438C3.90741 47.8394 7.05036 53.7194 11.6655 58.3345C16.2806 62.9497 22.1607 66.0926 28.562 67.3659C34.9634 68.6392 41.5986 67.9857 47.6286 65.488C53.6585 62.9903 58.8124 58.7606 62.4385 53.3338C66.0646 47.907 68 41.5268 68 35C67.9899 26.251 64.5099 17.8631 58.3234 11.6766C52.1369 5.49008 43.7491 2.01007 35 2.00002Z" fill="#AB6A49"/>
<path d="M33.7212 49.1741C29.2359 49.0138 24.8594 47.7498 20.9792 45.4941C20.8618 45.4224 20.7604 45.3272 20.6814 45.2145C20.6024 45.1018 20.5475 44.974 20.5202 44.8391C17.0002 27.4651 29.2372 23.9051 39.0752 21.0441C44.4852 19.4701 49.1582 18.1111 50.0222 14.8931C50.0846 14.6617 50.2282 14.4603 50.4266 14.3258C50.6251 14.1913 50.8653 14.1325 51.1035 14.1603C51.3416 14.188 51.5619 14.3004 51.7241 14.477C51.8863 14.6535 51.9797 14.8825 51.9872 15.1221C52.0182 16.1221 52.6182 39.7321 42.4762 46.6031C39.8864 48.3288 36.8328 49.2255 33.7212 49.1741ZM22.3932 44.0001C24.3932 45.1001 34.0542 49.8931 41.3542 44.9481C48.4542 40.1361 49.7462 25.2721 49.9592 18.5481C47.6162 20.6481 43.7052 21.7831 39.6332 22.9671C30.2002 25.7071 19.5272 28.8121 22.3932 44.0001Z" fill="#AB6A49"/>
<path d="M18.2518 55.0444C17.5941 51.2378 18.4472 47.3248 20.6298 44.1374C23.3668 38.0894 28.6988 36.3244 32.9878 34.9054C36.1658 33.8534 38.9108 32.9454 39.8568 30.6494L41.7058 31.4114C40.4058 34.5564 37.1058 35.6474 33.6158 36.8044C29.4738 38.1744 24.7778 39.7284 22.4158 45.0464C22.3851 45.1151 22.3469 45.1802 22.3018 45.2404C20.4286 47.9953 19.6815 51.3628 20.2138 54.6514L18.2518 55.0444Z" fill="#AB6A49"/>
</svg>
