<svg width="46" height="46" viewBox="0 0 46 46" fill="none" xmlns="http://www.w3.org/2000/svg">
<rect x="0.5" y="0.5" width="45" height="45" rx="22.5" fill="white" stroke="#E0E0E0"/>
<path d="M30.8438 30.1562C31.0521 30.3854 31.0521 30.6146 30.8438 30.8438C30.7396 30.9479 30.625 31 30.5 31C30.375 31 30.25 30.9479 30.125 30.8438L25.6875 26.4375C24.5208 27.4375 23.1146 27.9583 21.4688 28C19.6354 27.9583 18.1146 27.3229 16.9062 26.0938C15.6771 24.8646 15.0417 23.3333 15 21.5C15.0417 19.6667 15.6667 18.1354 16.875 16.9062C18.1042 15.6771 19.6354 15.0417 21.4688 15C23.3021 15.0417 24.8333 15.6771 26.0625 16.9062C27.2917 18.1354 27.9271 19.6667 27.9688 21.5C27.9479 23.1458 27.4375 24.5521 26.4375 25.7188L30.8438 30.1562ZM21.5 27C23.0625 26.9583 24.3542 26.4271 25.375 25.4062C26.4167 24.3646 26.9583 23.0625 27 21.5C26.9583 19.9375 26.4271 18.6354 25.4062 17.5938C24.3646 16.5729 23.0625 16.0417 21.5 16C19.9375 16.0417 18.6354 16.5833 17.5938 17.625C16.5729 18.6458 16.0417 19.9375 16 21.5C16.0417 23.0625 16.5729 24.3542 17.5938 25.375C18.6354 26.4167 19.9375 26.9583 21.5 27Z" fill="#6E6E6E"/>
</svg>
