<svg width="104" height="106" viewBox="0 0 104 106" fill="none" xmlns="http://www.w3.org/2000/svg">
<circle cx="52" cy="52" r="52" fill="#C28565"/>
<circle cx="54" cy="56" r="50" fill="white"/>
<path d="M83.8971 54.0888C83.6606 53.6401 83.1002 53.4703 82.6395 53.7007C82.3407 53.8463 75.2683 57.4119 71.8691 60.1407C70.3874 61.3414 68.2457 61.8993 66.1539 61.6446C64.8963 61.4869 64.0496 61.0746 63.7882 60.7471C63.9874 59.5707 67.5983 57.1087 68.7064 56.8783C70.2255 56.478 71.7072 56.8783 71.7197 56.8783C72.0434 56.9632 72.3796 56.8904 72.6162 56.66L80.8216 49.0314C81.1952 48.6797 81.2076 48.1097 80.859 47.7458C80.4979 47.382 79.9127 47.3699 79.5392 47.7095L73.9609 52.8881C70.3874 52.1605 67.3866 51.8573 64.0123 51.8815C64.0994 51.6389 64.2115 51.4085 64.3609 51.2023C64.9461 50.4989 68.7812 46.7998 70.2131 45.4294C70.5742 45.0777 70.5742 44.4955 70.2006 44.1438C69.8395 43.7921 69.2668 43.7921 68.9057 44.1317C68.3703 44.641 63.6761 49.1406 62.9166 50.0623C62.0325 51.1053 61.2481 54.8286 60.3018 55.9929C59.5796 56.9268 59.1313 56.9632 58.6333 56.757C58.7827 56.284 59.3928 55.3259 60.0527 54.5497C60.3765 54.1616 60.3142 53.5916 59.9158 53.2762C59.5298 52.973 58.9819 53.0094 58.6457 53.3611C56.8652 55.241 54.599 57.3998 53.964 57.7272C53.0675 57.8243 52.2333 57.8485 51.8473 57.23C51.4613 56.6115 51.3368 56.4295 53.1796 54.6225C53.5531 54.2586 53.964 53.9312 54.3998 53.628C56.2177 52.3302 58.5586 51.2994 58.571 51.2994C58.7453 51.2266 58.8823 51.1053 58.9819 50.9476L64.0621 43.0765C64.6847 42.0335 63.178 41.1118 62.4808 42.1063L57.55 49.747C56.143 50.3898 54.7858 51.1417 53.5033 52.0028C51.1624 52.4273 48.5726 52.8518 48.1617 52.8518C48.0372 52.8396 47.8006 52.7305 47.5266 52.5607C49.2574 49.6985 48.6597 45.5385 45.0488 44.5925C41.5624 43.6951 39.4955 43.9376 35.4488 41.5848C34.378 41.0026 33.4441 42.4822 34.49 43.1493C38.8231 45.6598 40.9648 45.4658 44.5383 46.3511C47.1905 47.0424 47.0161 50.4261 45.522 52.1968C45.1982 52.5728 45.248 53.1307 45.6216 53.4582C45.9578 53.7492 47.1282 54.671 48.1492 54.671C48.5352 54.671 49.6807 54.5012 50.8885 54.3071C49.7305 55.5806 49.2698 56.6478 50.241 58.176C51.2621 59.7162 52.8434 59.6677 54.2379 59.5222C54.4745 59.4979 54.9726 59.4373 56.8901 57.6909C57.0146 57.9213 57.2138 58.1032 57.4504 58.2366C59.094 59.1098 60.5134 58.746 61.7835 57.0966C62.4185 56.2597 62.9166 54.9499 63.3399 53.725C66.3407 53.6522 69.3415 53.8948 72.3049 54.4405L71.6823 55.0106C69.1796 54.5861 67.3119 55.0954 64.7843 56.9753C63.4022 58.0304 61.0364 59.9709 62.2442 61.7901C62.8668 62.6149 64.2364 63.2334 65.9049 63.4396C68.4325 63.767 71.1718 63.0636 73.052 61.5355C76.2893 58.9279 83.4115 55.3501 83.4862 55.3138C83.9469 55.0954 84.1337 54.5497 83.8971 54.0888Z" fill="#C28565"/>
<path d="M77.2483 68.3877C77.1238 68.3877 64.4483 69.0305 60.3767 68.9577C57.7494 68.9092 55.0724 68.3756 53.3043 68.0239C52.221 67.8055 51.4988 67.66 51.0381 67.66C50.5276 67.66 49.7805 67.9632 46.842 69.2609C43.0568 70.8618 32.8466 75.7131 29.6093 73.7241C29.2108 73.2996 29.3976 72.3536 29.6342 71.4682C30.1696 69.4671 31.7634 67.1506 31.7758 67.1264C32.0249 66.6898 31.863 66.1319 31.4147 65.8893C31.0163 65.671 30.5058 65.768 30.2319 66.1197C30.207 66.1561 29.9579 66.5078 29.6342 67.0536C27.8661 65.7074 25.8739 63.7426 25.8365 62.6026C25.7867 61.2443 27.7914 60.177 29.1984 59.6312C29.1112 61.0502 29.3478 61.4747 30.5058 61.9234C31.0163 62.1296 31.5019 62.3237 31.8879 63.0513C32.4731 64.1671 32.8093 65.6104 34.154 66.0349C35.2 66.3017 35.9844 65.9985 37.1797 65.3314C39.3587 64.058 40.6288 62.8088 41.1891 62.1781L43.7541 62.36C41.9486 64.3005 39.7198 65.5255 37.0054 66.0955C35.9221 66.3381 36.084 67.8783 37.2046 67.8904C41.0023 67.2113 44.1027 65.1859 46.3688 62.0932C46.6677 61.6809 46.5681 61.1109 46.1447 60.8198C46.0078 60.7228 45.8459 60.6742 45.684 60.6621L40.8529 60.3347C40.5292 60.3104 40.2054 60.4559 40.0186 60.7228C40.0062 60.7349 38.9354 62.2024 36.2334 63.779C35.2 64.3854 34.8264 64.3369 34.7268 64.3005C34.4778 64.2278 34.2038 63.6214 33.9673 63.0877C33.2575 61.3049 32.3361 60.6379 31.0786 60.1891C31.091 58.382 31.2653 56.0656 30.3813 53.361C29.821 51.7116 29.6466 50.2441 29.8459 49.1647C30.4684 49.3709 31.1159 49.4194 31.7634 49.3224C39.9564 48.3885 43.1688 51.2992 43.1937 51.3235C43.5673 51.6752 44.1525 51.6631 44.5136 51.2992C44.8622 50.9475 44.8622 50.3896 44.5136 50.0379C44.3891 49.8924 40.6537 46.448 31.5143 47.5153C29.0988 47.9034 29.161 45.0169 30.0451 43.3068C30.2941 42.8338 31.0038 41.7302 32.1743 41.7302C32.5478 41.7302 32.884 41.5119 33.0334 41.1723C34.2412 38.5284 35.5486 37.3156 39.284 38.0311C41.2887 38.4192 43.6171 39.4622 43.2685 42.2396C43.1564 43.4402 44.9369 43.6464 45.1237 42.4579C45.5222 39.3046 43.4801 36.976 39.6451 36.2362C35.0132 35.3508 33.0085 37.0366 31.5642 39.9231C28.2894 40.3961 26.621 45.5141 28.2894 47.9034C27.7042 49.4194 27.8163 51.5175 28.6256 53.9068C29.049 55.1681 29.1984 56.5264 29.2357 57.6907C26.4466 58.5518 23.8567 60.3953 24.0062 62.6511C23.919 64.5188 26.7953 67.2355 28.7501 68.6545C26.2474 73.7847 27.368 76.9137 34.042 75.7616C39.1719 74.9611 46.456 71.2378 51.0879 69.4671C51.3868 69.4792 52.1463 69.6369 52.9432 69.7824C54.7735 70.1463 57.5502 70.7042 60.3518 70.7527C64.4856 70.8376 76.8249 70.2069 77.3479 70.1827C78.5681 70.0978 78.5059 68.3756 77.2483 68.3877Z" fill="#C28565"/>
</svg>
