<svg width="104" height="106" viewBox="0 0 104 106" fill="none" xmlns="http://www.w3.org/2000/svg">
<circle cx="52" cy="52" r="52" fill="#C28565"/>
<circle cx="54" cy="56" r="50" fill="white"/>
<path fill-rule="evenodd" clip-rule="evenodd" d="M74.753 86H28.5698C26.188 86 24.2354 83.984 24.2354 81.4929V78.4402C24.0969 78.2962 24 78.0802 24 77.8354C24 77.3746 24.3739 76.9858 24.817 76.9858H33.4028V48.1C33.4028 46.444 34.4829 45.0472 36.0893 44.6296L44.8967 42.3689V39.9065C42.4317 39.5033 40.5484 37.2858 40.5484 34.6074C40.5484 32.1163 43.4288 28.7611 45.0351 26.3564C45.3536 25.8812 46.0599 25.8812 46.3784 26.3564C47.9986 28.7611 50.879 32.1019 50.879 34.6074C50.879 37.2858 48.9957 39.5033 46.5307 39.9065V41.9513L53.8425 40.0649C55.9335 39.5321 58.0107 41.3177 58.0107 43.5496V50.3463C58.5647 50.4615 59.0909 50.6199 59.6033 50.8359C60.4618 49.7127 61.5558 48.7767 62.7883 48.1432C63.0237 48.028 63.2868 48.028 63.5222 48.1432C64.7547 48.7767 65.8487 49.7127 66.7073 50.8503C67.9675 50.3175 69.3523 50.0727 70.7648 50.1591C71.014 50.1879 71.2494 50.3175 71.3879 50.5479C72.1496 51.7431 72.6619 53.1111 72.8558 54.5222C74.2129 54.7238 75.5285 55.2422 76.6917 56.0486C76.8994 56.207 77.0379 56.4374 77.0518 56.711C77.2179 59.2597 76.3732 61.7653 74.7807 63.666C80.0014 66.0276 80.9015 73.3283 76.4701 76.9858H83.2003C84.2666 76.9858 84.2666 78.6993 83.2003 78.6993H79.0874V81.4929C79.0874 83.984 77.1348 86 74.753 86ZM73.1189 64.8756L71.7895 64.7172H56.6536C54.9088 64.7172 53.4963 66.2004 53.4963 68.0148C53.4963 69.8291 54.9088 71.2979 56.6536 71.2979H70.7648C71.8311 71.2979 71.8311 73.0115 70.7648 73.0115H56.6536C52.4715 73.0115 50.4082 67.8564 53.0393 64.7172C49.2726 64.7172 46.8354 67.7412 46.8769 70.9379C46.9046 74.2642 49.5773 76.9858 52.7762 76.9858H71.7895C75.0438 76.9858 77.6888 74.2354 77.6888 70.8515C77.6888 67.9428 75.7362 65.5092 73.1189 64.8756ZM25.8833 78.6993V81.4929C25.8833 83.0337 27.0881 84.2864 28.5698 84.2864H74.753C76.2347 84.2864 77.4395 83.0337 77.4395 81.4929V78.6993H25.8833ZM45.6029 68.4612C46.4061 65.8404 48.5664 63.7956 51.156 63.2053C49.8127 61.3621 49.1065 59.0437 49.2588 56.711C49.2726 56.4374 49.4111 56.207 49.6188 56.0486C50.7821 55.2422 52.0838 54.7238 53.4547 54.5222C53.6348 53.2407 54.1333 51.5415 54.9919 50.4471C55.2965 50.0583 55.9335 50.1303 56.3767 50.1447V43.5496C56.3767 42.4121 55.2965 41.4473 54.2302 41.7209L36.4771 46.2856C35.6323 46.5016 35.0507 47.236 35.0507 48.1V76.9858H48.0956C45.686 74.9842 44.6335 71.5283 45.6029 68.4612ZM53.1916 63.0181H62.2898C61.7497 58.8277 58.0107 55.7462 53.981 56.1782C52.887 56.3078 51.8207 56.6678 50.879 57.2438C50.8513 59.3893 51.7099 61.5205 53.1916 63.0181ZM64.0208 63.0181C66.4996 63.0181 69.6431 62.9461 72.0388 63.0181L73.0081 63.1189C74.573 61.6069 75.4454 59.4613 75.4315 57.2438C70.7648 54.3638 64.727 57.431 64.0208 63.0181ZM45.7137 28.286C44.3981 30.1003 42.1824 32.9947 42.1824 34.6074C42.1824 36.6378 43.775 38.2794 45.7137 38.2794C47.6524 38.2794 49.2311 36.6378 49.2311 34.6074C49.2311 32.9947 47.0154 30.1003 45.7137 28.286ZM62.1651 54.9254C60.7249 52.9959 58.4816 51.8439 56.072 51.8439C55.615 52.6503 55.2965 53.5287 55.1303 54.4358C57.4153 54.5366 59.6171 55.5302 61.2373 57.2006C61.4589 56.4086 61.7635 55.6454 62.1651 54.9254ZM62.5944 58.9573C62.8021 59.3029 62.9822 59.6629 63.1483 60.0373C64.5885 56.7542 67.732 54.5942 71.1802 54.4358C71.014 53.5287 70.6955 52.6503 70.2385 51.8439C66.2642 51.8151 62.9683 54.9686 62.5944 58.9573ZM63.1483 53.4855C63.7438 52.7655 64.4362 52.1463 65.2117 51.6279C64.6301 50.9223 63.9377 50.3319 63.1483 49.8711C62.3729 50.3319 61.6805 50.9223 61.0988 51.6279C61.8882 52.2039 62.5113 52.6935 63.1483 53.4855Z" fill="#C28565"/>
</svg>
