<svg width="104" height="106" viewBox="0 0 104 106" fill="none" xmlns="http://www.w3.org/2000/svg">
<circle cx="52" cy="52" r="52" fill="#C28565"/>
<circle cx="54" cy="56" r="50" fill="white"/>
<path d="M65.7164 46.5145L77.8447 34.262C78.5856 33.5067 79.0009 32.4862 79 31.4229C78.9991 30.3595 78.582 29.3397 77.8397 28.5857L76.4328 27.1727C75.6887 26.4218 74.6798 26 73.628 26C72.5761 26 71.5673 26.4218 70.8231 27.1727L52.2496 45.9283C48.5061 45.9804 29 46.4915 29 51.4252C29 51.4402 29 51.4542 29 51.4683V79.1201C29.004 83.1749 42.0639 86 53.7855 86C65.507 86 78.569 83.1749 78.569 79.1201V51.4693C78.569 51.4633 78.569 51.4582 78.569 51.4522C78.569 51.4462 78.569 51.4342 78.569 51.4252C78.569 48.567 72.0018 47.183 65.7164 46.5145ZM76.5846 57.9393C76.5846 59.1028 68.5957 61.9479 53.7855 61.9479C38.9753 61.9479 30.9883 59.1028 30.9883 57.9393V53.8304C35.8956 56.444 48.1519 56.9371 53.7845 56.9371C54.1992 56.9371 54.605 56.9371 54.994 56.9271C56.9525 56.91 71.2656 56.6856 76.5846 53.8494V57.9393ZM70.5324 49.2344C68.9449 50.0432 67.3207 50.9241 65.6707 50.9241C64.4091 50.902 63.1572 50.6958 61.9541 50.3118L63.8987 48.3475C66.5806 48.588 68.7752 48.8987 70.5324 49.2344ZM72.229 28.5898C72.6011 28.214 73.1058 28.0029 73.6319 28.0029C74.1581 28.0029 74.6628 28.214 75.0349 28.5898L76.4418 29.9998C76.8128 30.3778 77.021 30.8886 77.021 31.4209C77.021 31.9532 76.8128 32.4639 76.4418 32.842L59.7633 49.6914C57.8068 49.165 55.7893 48.9055 53.7647 48.9197C53.1426 48.9197 52.574 48.9468 52.0293 48.9839L72.229 28.5898ZM48.7591 49.4519C47.8483 49.6523 47.0367 49.8888 46.2718 50.1123C44.8497 50.6063 43.3618 50.88 41.8586 50.9241C40.1449 50.7459 38.4944 50.1738 37.0336 49.2515C41.391 48.4796 45.8014 48.052 50.2246 47.9727L48.7591 49.4519ZM33.9123 49.9881C34.7477 50.3378 35.5414 50.7327 36.3034 51.1215C37.9846 52.1657 39.8901 52.7855 41.8586 52.9284C43.5473 52.8865 45.2199 52.5861 46.8194 52.0375C51.3296 50.5529 56.1898 50.5529 60.6999 52.0375C62.3026 52.5871 63.9787 52.8875 65.6707 52.9284C67.6367 52.7858 69.5398 52.167 71.219 51.1245C71.9939 50.7287 72.8005 50.3228 73.6528 49.974C75.5925 50.5483 76.4775 51.0935 76.5846 51.3941C76.1788 52.5967 68.6096 54.8015 54.9553 54.9227C54.5673 54.9328 54.1972 54.9227 53.7785 54.9328C50.8705 54.9328 48.0706 54.8325 45.4542 54.6451C35.2487 53.9176 31.2631 52.1267 30.9873 51.4663C30.9873 51.4602 30.9873 51.4552 30.9873 51.4502C31.1292 51.0383 32.1353 50.5102 33.9123 49.9881ZM53.7855 83.9957C40.0727 83.9957 31.1034 80.5662 30.9883 79.1201V60.4798C35.3539 62.9852 46.0396 63.9543 53.7855 63.9543C61.5314 63.9543 72.2191 62.9832 76.5846 60.4778V79.1181C76.4696 80.5662 67.4993 83.9957 53.7855 83.9957Z" fill="#C28565"/>
<path d="M49.0187 67.9838C48.7618 67.9287 48.4937 67.9776 48.2722 68.12C48.0506 68.2624 47.8933 68.487 47.834 68.7455L46.3894 75.3127L44.6928 72.4555C44.598 72.3162 44.471 72.2023 44.3229 72.1236C44.1748 72.0448 44.0099 72.0037 43.8425 72.0037C43.6751 72.0037 43.5103 72.0448 43.3621 72.1236C43.214 72.2023 43.0871 72.3162 42.9922 72.4555L41.2956 75.3127L39.851 68.7455C39.7939 68.4858 39.637 68.2597 39.4148 68.1168C39.1927 67.974 38.9234 67.9261 38.6664 67.9838C38.4093 68.0415 38.1854 68.2 38.044 68.4244C37.9026 68.6488 37.8552 68.9207 37.9123 69.1804L39.8966 78.1999C39.9393 78.3959 40.0392 78.5744 40.1834 78.7123C40.3276 78.8503 40.5095 78.9413 40.7055 78.9737C40.9015 79.0061 41.1026 78.9783 41.2828 78.894C41.4631 78.8096 41.6141 78.6726 41.7163 78.5006L43.8425 74.9188L45.9687 78.4986C46.071 78.6706 46.222 78.8076 46.4022 78.892C46.5824 78.9763 46.7835 79.0041 46.9795 78.9717C47.1756 78.9393 47.3574 78.8483 47.5016 78.7103C47.6458 78.5724 47.7457 78.3939 47.7884 78.1979L49.7727 69.1784C49.8295 68.919 49.7819 68.6475 49.6405 68.4235C49.4991 68.1995 49.2755 68.0413 49.0187 67.9838Z" fill="#C28565"/>
<path d="M58.3218 74.5995L58.3099 74.5715L55.6628 68.5585C55.5849 68.3812 55.4577 68.2306 55.2967 68.1249C55.1358 68.0192 54.9479 67.9629 54.7559 67.9629C54.5639 67.9629 54.376 68.0192 54.2151 68.1249C54.0541 68.2306 53.927 68.3812 53.8491 68.5585L51.2019 74.5715L51.19 74.5985L49.8804 77.575C49.7735 77.8179 49.7666 78.0938 49.8611 78.3419C49.9557 78.5899 50.1439 78.7899 50.3844 78.8978C50.6249 79.0058 50.898 79.0127 51.1436 78.9173C51.3892 78.8218 51.5872 78.6317 51.6941 78.3887L52.7547 75.9785H56.7571L57.8177 78.3897C57.9246 78.6327 58.1226 78.8228 58.3682 78.9183C58.6138 79.0137 58.8869 79.0068 59.1274 78.8988C59.3679 78.7909 59.5562 78.5909 59.6507 78.3429C59.7452 78.0948 59.7383 77.8189 59.6314 77.576L58.3218 74.5995ZM53.6367 73.9742L54.7559 71.4307L55.8751 73.9742H53.6367Z" fill="#C28565"/>
<path d="M69.1972 68.1295C69.0888 68.0564 68.9672 68.0056 68.8394 67.9801C68.7115 67.9545 68.58 67.9546 68.4522 67.9803C68.3244 68.0061 68.2029 68.0571 68.0946 68.1303C67.9863 68.2035 67.8933 68.2976 67.821 68.4071L65.67 71.6691L63.519 68.4101C63.3729 68.1889 63.1459 68.0355 62.8878 67.9834C62.6297 67.9313 62.3618 67.985 62.1428 68.1325C61.9239 68.28 61.7719 68.5093 61.7204 68.77C61.6689 69.0307 61.7219 69.3013 61.868 69.5225L64.4794 73.473L61.87 77.4266C61.7239 77.6477 61.6708 77.9184 61.7224 78.1791C61.7739 78.4398 61.9259 78.6691 62.1448 78.8166C62.3637 78.9641 62.6317 79.0177 62.8898 78.9657C63.1479 78.9136 63.3749 78.7601 63.5209 78.539L65.67 75.2769L67.821 78.536C67.8933 78.6455 67.9863 78.7395 68.0946 78.8127C68.2029 78.886 68.3244 78.9369 68.4522 78.9627C68.58 78.9885 68.7115 78.9886 68.8394 78.963C68.9672 78.9374 69.0888 78.8866 69.1972 78.8136C69.3056 78.7406 69.3987 78.6467 69.4712 78.5373C69.5436 78.4279 69.5941 78.3052 69.6196 78.1761C69.6451 78.047 69.6452 77.9141 69.6199 77.785C69.5946 77.6559 69.5443 77.5331 69.472 77.4236L66.8606 73.473L69.47 69.5195C69.6163 69.2986 69.6697 69.0281 69.6185 68.7674C69.5674 68.5067 69.4158 68.2773 69.1972 68.1295Z" fill="#C28565"/>
</svg>
