<svg width="104" height="106" viewBox="0 0 104 106" fill="none" xmlns="http://www.w3.org/2000/svg">
<circle cx="52" cy="52" r="52" fill="#C28565"/>
<circle cx="54" cy="56" r="50" fill="white"/>
<path d="M68.8206 68.3368C68.7034 67.8663 68.2363 67.5818 67.7762 67.7018L65.6198 68.2646C65.1911 67.4901 64.472 66.9057 63.6145 66.668V64.3906C63.6145 63.905 63.23 63.5112 62.7556 63.5112C62.2813 63.5112 61.8967 63.905 61.8967 64.3906V66.6678C61.0768 66.8951 60.3827 67.4391 59.9488 68.1638L57.8128 67.5251C57.3576 67.3892 56.8806 67.6565 56.7476 68.1228C56.6146 68.589 56.8759 69.0773 57.3313 69.2134L59.467 69.8521C59.4665 69.8746 59.4653 69.8968 59.4653 69.9194C59.4653 70.7001 59.7267 71.419 60.1638 71.9909L58.8279 73.8141C58.5432 74.2026 58.6201 74.7538 58.9994 75.0453C59.154 75.164 59.3348 75.2213 59.5143 75.2213C59.7754 75.2213 60.0332 75.0999 60.2021 74.8696L61.5371 73.0476C61.9143 73.2021 62.3252 73.288 62.7555 73.288C63.2075 73.288 63.6385 73.1942 64.0309 73.0246L65.3983 74.8203C65.5677 75.0427 65.8206 75.1591 66.0763 75.1591C66.261 75.1591 66.4469 75.0984 66.6039 74.9732C66.9779 74.6746 67.0448 74.122 66.7531 73.739L65.3849 71.9422C65.7905 71.3908 66.0342 70.7082 66.0446 69.9687L68.2005 69.4061C68.6601 69.2862 68.9378 68.8074 68.8206 68.3368ZM62.7555 71.5293C61.8885 71.5293 61.1831 70.8071 61.1831 69.9194C61.1831 69.0317 61.8885 68.3095 62.7555 68.3095C63.6226 68.3095 64.328 69.0317 64.328 69.9194C64.328 70.8071 63.6226 71.5293 62.7555 71.5293Z" fill="#C28565"/>
<path d="M75.7056 79.2539H71.3747C72.6719 77.5289 72.8551 75.0831 71.8014 73.0314C72.8526 72.5267 73.7308 71.7285 74.3296 70.7182C75.1131 69.3966 75.3265 67.8722 74.9306 66.426C74.1454 63.5575 71.1676 61.8764 68.1997 62.5689C68.0501 59.4563 65.6656 56.974 62.7558 56.974C62.5154 56.974 62.279 56.9925 62.0466 57.0253C61.5435 56.427 61.0027 55.8626 60.4298 55.3464L60.4297 55.3463C60.3187 55.2463 60.2096 55.1446 60.1013 55.0421C57.2407 52.3312 55.2718 48.6609 54.5398 44.6559C54.4526 44.1786 54.0044 43.8637 53.5376 43.9532C53.0713 44.0425 52.7641 44.502 52.8513 44.9793C53.4933 48.4918 55.0083 51.7701 57.2003 54.4615C56.8969 54.3729 56.609 54.2732 56.3163 54.1715C55.3221 53.826 54.2939 53.4687 52.592 53.4687C50.8623 53.4687 49.95 53.8524 49.1453 54.1908C48.3922 54.5076 47.7419 54.781 46.3513 54.781C44.9606 54.781 44.3101 54.5076 43.5569 54.1908C43.1885 54.0359 42.793 53.8704 42.3067 53.7369C43.8543 51.6546 45.0107 49.2691 45.7047 46.6847C45.8648 46.0891 46.001 45.4778 46.1095 44.8683C46.2572 44.0382 46.3575 43.1893 46.4075 42.3449C46.4328 41.9166 46.4458 41.4822 46.4458 41.0539V37.8567H52.4982V40.6981C52.4982 41.1837 52.8828 41.5775 53.3571 41.5775C53.8315 41.5775 54.216 41.1837 54.216 40.6981V37.7944C55.469 37.5219 56.4121 36.3806 56.4121 35.0178C56.4121 33.4611 55.1817 32.1936 53.6645 32.1795L54.1454 28.5158C54.2287 27.8811 54.0403 27.2407 53.6286 26.7586C53.2166 26.2764 52.6217 26 51.9962 26H46.9471C46.3217 26 45.7267 26.2764 45.315 26.7584C44.9032 27.2405 44.7149 27.881 44.7982 28.5157L45.2792 32.1794C43.7619 32.1935 42.5316 33.461 42.5316 35.0177C42.5316 36.3806 43.4746 37.5219 44.7276 37.7944V41.0539C44.7276 41.4468 44.7158 41.8455 44.6926 42.2385C44.6467 43.013 44.5548 43.7917 44.4193 44.5531C44.3198 45.112 44.1949 45.6722 44.0482 46.2183C43.0889 49.7896 41.1727 52.9483 38.5067 55.3526C34.9211 58.5863 32.8691 63.2448 32.8767 68.1337C32.8809 70.7005 33.4566 73.1831 34.5881 75.5127C35.3132 77.0056 36.369 78.2809 37.6511 79.254H32.2945C30.4779 79.254 29 80.7671 29 82.627C29 84.4869 30.4779 86 32.2945 86H75.7055C77.5221 86 79 84.4869 79 82.6269C79 80.767 77.5221 79.2539 75.7056 79.2539ZM46.6081 27.9164C46.6583 27.8575 46.7692 27.7589 46.9471 27.7589H51.9962C52.1741 27.7589 52.285 27.8575 52.3352 27.9164C52.3855 27.9752 52.4663 28.1009 52.4426 28.2814L51.931 32.1788H47.0123L46.5007 28.2814C46.477 28.1008 46.5578 27.9752 46.6081 27.9164ZM44.2494 35.0177C44.2494 34.4221 44.7227 33.9374 45.3045 33.9374H53.6389C54.2206 33.9374 54.694 34.422 54.694 35.0177C54.694 35.6132 54.2207 36.0978 53.6389 36.0978H45.3045C44.7227 36.0979 44.2494 35.6133 44.2494 35.0177ZM62.7557 58.7327C64.8144 58.7327 66.4893 60.5931 66.4893 62.8797C66.4893 63.1171 66.4368 63.3956 66.3336 63.7078C66.215 64.0662 66.3336 64.4622 66.6281 64.6907C66.9226 64.9193 67.3269 64.9295 67.632 64.7157C67.8977 64.5297 68.1456 64.4029 68.3689 64.3388C70.5193 63.7219 72.7209 64.8709 73.2765 66.9005C73.5427 67.8729 73.395 68.9046 72.861 69.8055C72.3157 70.7255 71.436 71.3983 70.3833 71.7003C70.3556 71.7083 70.3274 71.7153 70.2988 71.7219C70.0047 71.7893 69.7666 72.0095 69.6713 72.3023C69.5761 72.5951 69.6378 72.9176 69.8339 73.1519C69.8561 73.1785 69.8778 73.2053 69.8976 73.2322C71.2437 75.0568 71.0025 77.5747 69.3598 78.8452C69.1503 79.0072 68.9238 79.1442 68.6846 79.2538H65.7095C65.0156 78.9588 64.4059 78.4725 63.9393 77.8404C63.8063 77.66 63.6888 77.4193 63.59 77.1249C63.4708 76.7699 63.1445 76.5313 62.7777 76.5313C62.4109 76.5313 62.0845 76.7697 61.9654 77.1249C61.8666 77.4193 61.7491 77.66 61.6161 77.8404C61.1495 78.4726 60.5399 78.9588 59.8459 79.2538H56.8708C56.6316 79.1442 56.4051 79.0072 56.1956 78.8452C55.4086 78.2366 54.9156 77.3242 54.8076 76.276C54.6973 75.2059 54.9993 74.1249 55.6578 73.2324C55.6765 73.2071 55.6966 73.1822 55.7171 73.1573C55.9132 72.9208 55.9732 72.596 55.8749 72.3026C55.7766 72.0091 55.5344 71.7905 55.2377 71.7271C55.2005 71.7191 55.1635 71.7108 55.1278 71.7005C55.1278 71.7005 55.1276 71.7005 55.1274 71.7003C52.9769 71.0832 51.6793 68.9302 52.2348 66.9006C52.7903 64.871 54.9918 63.7218 57.1423 64.3389C57.3656 64.403 57.6136 64.5298 57.8792 64.7159C58.1842 64.9294 58.5886 64.9194 58.8831 64.6907C59.1776 64.462 59.2962 64.0661 59.1775 63.7077C59.0743 63.3959 59.0218 63.1173 59.0218 62.8798C59.0222 60.593 60.6971 58.7327 62.7557 58.7327ZM75.7056 84.2411H32.2945C31.4252 84.2411 30.7179 83.5169 30.7179 82.6269C30.7179 81.7368 31.4252 81.0127 32.2945 81.0127H43.4279C43.9022 81.0127 44.2868 80.619 44.2868 80.1334C44.2868 79.6477 43.9022 79.254 43.4279 79.254H41.5103C39.1634 78.5947 37.2051 76.9508 36.1262 74.7296C35.1136 72.6446 34.5982 70.4245 34.5946 68.1309C34.5878 63.7481 36.4276 59.5717 39.6423 56.6725C40.1321 56.2307 40.5965 55.7639 41.039 55.2776C41.8377 55.3701 42.3379 55.5799 42.9043 55.818C43.7093 56.1563 44.6216 56.5398 46.3512 56.5398C48.0809 56.5398 48.993 56.1562 49.7978 55.8177C50.5508 55.501 51.2012 55.2276 52.5919 55.2276C54.0102 55.2276 54.862 55.5236 55.764 55.8371C56.6905 56.1591 57.6465 56.4913 59.15 56.535C59.1981 56.5792 59.2464 56.6233 59.2949 56.667L59.2951 56.6671C59.6311 56.9699 59.9548 57.2918 60.2657 57.6278C58.589 58.5646 57.4153 60.4156 57.3118 62.569C54.3441 61.8763 51.3661 63.5575 50.5808 66.4261C49.8546 69.0797 51.2472 71.8633 53.7452 73.0474C53.2054 74.1021 52.9779 75.2837 53.0993 76.4608C53.2071 77.5071 53.581 78.4639 54.1775 79.2541H47.4244C46.9501 79.2541 46.5655 79.6479 46.5655 80.1335C46.5655 80.6191 46.9501 81.0129 47.4244 81.0129H75.7056C76.575 81.0129 77.2822 81.737 77.2822 82.6271C77.2822 83.5169 76.575 84.2411 75.7056 84.2411Z" fill="#C28565"/>
</svg>
