<svg width="13" height="13" viewBox="0 0 13 13" fill="none" xmlns="http://www.w3.org/2000/svg">
<path d="M11.6211 7.95312C12.0221 8.48177 12.2318 9.10156 12.25 9.8125C12.2318 10.6693 11.931 11.3893 11.3477 11.9727C10.7643 12.556 10.0443 12.8568 9.1875 12.875C8.47656 12.8568 7.85677 12.6471 7.32812 12.2461C6.92708 12.319 6.52604 12.3555 6.125 12.3555C4.53906 12.319 3.21745 11.7721 2.16016 10.7148C1.10286 9.65755 0.55599 8.33594 0.519531 6.75C0.519531 6.33073 0.55599 5.92969 0.628906 5.54688C0.227865 5.01823 0.0182292 4.39844 0 3.6875C0.0182292 2.8125 0.31901 2.09245 0.902344 1.52734C1.46745 0.94401 2.1875 0.643229 3.0625 0.625C3.77344 0.643229 4.39323 0.852865 4.92188 1.25391C5.32292 1.18099 5.72396 1.14453 6.125 1.14453C7.71094 1.18099 9.03255 1.72786 10.0898 2.78516C11.1471 3.84245 11.694 5.16406 11.7305 6.75C11.7305 7.16927 11.694 7.57031 11.6211 7.95312ZM6.28906 10.4414C7.07292 10.4414 7.77474 10.25 8.39453 9.86719C8.99609 9.48438 9.3151 8.89193 9.35156 8.08984C9.3151 7.39714 9.04167 6.89583 8.53125 6.58594C8.02083 6.27604 7.46484 6.06641 6.86328 5.95703C6.71745 5.92057 6.57161 5.89323 6.42578 5.875C5.93359 5.76562 5.56901 5.65625 5.33203 5.54688C5.09505 5.45573 4.97656 5.29167 4.97656 5.05469C5.01302 4.63542 5.39583 4.4349 6.125 4.45312C6.47135 4.45312 6.74479 4.50781 6.94531 4.61719C7.1276 4.72656 7.29167 4.84505 7.4375 4.97266C7.61979 5.20964 7.86589 5.33724 8.17578 5.35547C8.44922 5.35547 8.65885 5.27344 8.80469 5.10938C8.93229 4.92708 9.00521 4.71745 9.02344 4.48047C8.98698 4.02474 8.66797 3.66016 8.06641 3.38672C7.46484 3.11328 6.77214 2.97656 5.98828 2.97656C5.25911 2.97656 4.58464 3.14062 3.96484 3.46875C3.36328 3.8151 3.04427 4.38932 3.00781 5.19141C3.02604 5.97526 3.29948 6.51302 3.82812 6.80469C4.33854 7.09635 4.98568 7.3151 5.76953 7.46094C5.91536 7.4974 6.07031 7.53385 6.23438 7.57031C6.2526 7.58854 6.27995 7.59766 6.31641 7.59766C6.64453 7.67057 6.89974 7.7526 7.08203 7.84375C7.26432 7.95312 7.36458 8.11719 7.38281 8.33594C7.34635 8.79167 6.95443 9.03776 6.20703 9.07422C5.80599 9.05599 5.48698 8.97396 5.25 8.82812C5.01302 8.66406 4.8125 8.5 4.64844 8.33594C4.42969 8.04427 4.14714 7.88021 3.80078 7.84375C3.52734 7.84375 3.32682 7.92578 3.19922 8.08984C3.07161 8.25391 3.00781 8.44531 3.00781 8.66406C3.02604 9.17448 3.34505 9.59375 3.96484 9.92188C4.60286 10.2682 5.3776 10.4414 6.28906 10.4414Z" fill="#B2B2B2"/>
</svg>
