<svg width="14" height="12" viewBox="0 0 14 12" fill="none" xmlns="http://www.w3.org/2000/svg">
<path d="M12.5508 2.90625C12.569 3.03385 12.5781 3.15234 12.5781 3.26172C12.5781 4.55599 12.2591 5.82292 11.6211 7.0625C11.0013 8.30208 10.0807 9.33203 8.85938 10.1523C7.65625 10.9727 6.17057 11.401 4.40234 11.4375C2.76172 11.4193 1.29427 10.9909 0 10.1523C0.21875 10.1706 0.446615 10.1797 0.683594 10.1797C2.05078 10.1615 3.24479 9.7513 4.26562 8.94922C3.60938 8.93099 3.04427 8.73958 2.57031 8.375C2.09635 8.01042 1.76823 7.54557 1.58594 6.98047C1.75 6.9987 1.92318 7.00781 2.10547 7.00781C2.37891 7.00781 2.63411 6.98047 2.87109 6.92578C2.19661 6.77995 1.64974 6.45182 1.23047 5.94141C0.811198 5.43099 0.592448 4.82031 0.574219 4.10938V4.05469C0.957031 4.27344 1.38542 4.40104 1.85938 4.4375C1.05729 3.8724 0.628906 3.07031 0.574219 2.03125C0.592448 1.5026 0.729167 1.01953 0.984375 0.582031C1.69531 1.45703 2.5612 2.15885 3.58203 2.6875C4.58464 3.21615 5.6875 3.51693 6.89062 3.58984C6.85417 3.37109 6.83594 3.15234 6.83594 2.93359C6.85417 2.13151 7.1276 1.45703 7.65625 0.910156C8.20312 0.363281 8.8776 0.0807292 9.67969 0.0625C10.5365 0.0807292 11.2383 0.38151 11.7852 0.964844C12.4414 0.83724 13.0521 0.609375 13.6172 0.28125C13.3802 0.955729 12.9609 1.48438 12.3594 1.86719C12.9245 1.79427 13.4714 1.63932 14 1.40234C13.599 1.98568 13.1159 2.48698 12.5508 2.90625Z" fill="#B2B2B2"/>
</svg>
