<svg width="16" height="11" viewBox="0 0 16 11" fill="none" xmlns="http://www.w3.org/2000/svg">
<path d="M15.0391 2.14062C15.1302 2.5599 15.2031 3.04297 15.2578 3.58984C15.2943 4.15495 15.3216 4.65625 15.3398 5.09375C15.3398 5.51302 15.3398 5.73177 15.3398 5.75C15.3398 5.78646 15.3398 6.01432 15.3398 6.43359C15.3216 6.87109 15.2943 7.36328 15.2578 7.91016C15.2031 8.47526 15.1302 8.96745 15.0391 9.38672C14.8203 10.0612 14.3737 10.4987 13.6992 10.6992C13.2617 10.7904 12.5872 10.8633 11.6758 10.918C10.7643 10.9544 9.91667 10.9818 9.13281 11C8.34896 11 7.92969 11 7.875 11C7.82031 11 7.40104 11 6.61719 11C5.83333 10.9818 4.98568 10.9544 4.07422 10.918C3.16276 10.8633 2.48828 10.7904 2.05078 10.6992C1.3763 10.4987 0.929688 10.0612 0.710938 9.38672C0.619792 8.96745 0.546875 8.47526 0.492188 7.91016C0.455729 7.36328 0.428385 6.87109 0.410156 6.43359C0.410156 6.01432 0.410156 5.78646 0.410156 5.75C0.410156 5.73177 0.410156 5.51302 0.410156 5.09375C0.428385 4.65625 0.455729 4.15495 0.492188 3.58984C0.546875 3.04297 0.619792 2.5599 0.710938 2.14062C0.929688 1.46615 1.3763 1.01953 2.05078 0.800781C2.48828 0.709635 3.16276 0.636719 4.07422 0.582031C4.98568 0.545573 5.83333 0.518229 6.61719 0.5C7.40104 0.5 7.82031 0.5 7.875 0.5C7.92969 0.5 8.34896 0.5 9.13281 0.5C9.91667 0.518229 10.7643 0.545573 11.6758 0.582031C12.5872 0.636719 13.2617 0.709635 13.6992 0.800781C14.3737 1.01953 14.8203 1.46615 15.0391 2.14062ZM6.34375 7.99219L10.2539 5.75L6.34375 3.53516V7.99219Z" fill="#B2B2B2"/>
</svg>
